<?xml version="1.0" encoding="utf-8"?>
<!-- Generator: Adobe Illustrator 16.0.0, SVG Export Plug-In . SVG Version: 6.00 Build 0)  -->
<!DOCTYPE svg PUBLIC "-//W3C//DTD SVG 1.1//EN" "http://www.w3.org/Graphics/SVG/1.1/DTD/svg11.dtd">
<svg version="1.1" id="Calque_1" xmlns="http://www.w3.org/2000/svg" xmlns:xlink="http://www.w3.org/1999/xlink" x="0px" y="0px"
	 width="432px" height="432px" viewBox="0 0 432 432" enable-background="new 0 0 432 432" xml:space="preserve">
<g>
	<g>
		<g>
			<path d="M70.809,90.792c-1.252,0-1.123,1.853-1.278,2.739c-0.313,1.904-1.749,10.695-2.191,13.095
				c-0.235-0.834-0.339-2.008-0.601-3.052l-1.095-4.93c-0.208-0.991-1.722-0.131-1.826,0.496c-0.156,0.913-1.226,5.687-1.565,6.808
				c-0.443-2.869-0.705-5.765-1.2-8.661C60.895,96.348,60.19,91.914,60.06,91c0-0.496-0.626-0.548-0.965-0.548
				c-0.548,0-0.574,0.417-0.574,0.809v0.234c0.809,4.07,1.644,8.27,2.035,12.418l0.678,6.809c0.209,0.417,0.366,0.522,0.757,0.522
				c0.965,0,0.809-0.835,0.939-1.565l1.826-8.713L67,110.905c0.104,0.157,0.365,0.313,0.6,0.313c0.365,0,0.626-0.339,0.756-0.678
				c0.704-6.339,1.905-12.47,3.026-18.678c0.026-0.052,0.026-0.288,0.026-0.392C71.409,91.105,71.226,90.792,70.809,90.792z"/>
			<path d="M80.096,89.8c-0.365,0-0.678,0.183-0.678,0.574v0.13c0.078,3.313-0.026,8.4-0.235,11.348
				c-0.965-0.052-1.957-0.052-2.948-0.052c-0.235,0-0.417,0.052-0.626-0.182c-0.026-0.339-0.026-2.009-0.026-2.374
				c0-2.661,0.235-6.235,0.235-8.74c-0.235-0.313-0.444-0.548-0.81-0.548c-0.287,0-0.521,0-0.73,0.208
				c-0.026,2.009-0.209,12.522-0.209,14.557c0,0.913-0.052,5.244-0.052,6.182c0.052,0.34,1.487,0.783,1.487-0.391v-7.356h3.73
				c0,0.469,0.13,4.696,0.13,5.166c0,1.748,0,2.87,0.913,2.843c0.861-0.026,0.208-6.078,0.574-18.052
				c0.026-0.548,0.104-2.218,0.104-2.791C80.775,90.062,80.41,89.8,80.096,89.8z"/>
			<path d="M86.541,109.68c-0.234,0-1.122,0-1.356-0.027l0.078-6.809l2.608-0.392c1.043-0.156,1.513-1.356,0.287-1.356h-0.13
				l-2.817,0.417l-0.13-8.661h3.13c0.418,0,1.122-0.235,1.122-0.756c0-0.052,0-0.079-0.025-0.13
				c-0.027-0.131-0.548-0.522-0.705-0.522H84.48c-0.47,0-0.914,0.443-0.914,0.913l0.287,18.209c0,0.496,5.844,0.6,5.792-0.287
				C89.567,109.079,88.289,109.68,86.541,109.68z"/>
			<path d="M101.229,91.444c-0.391,0-0.679,0-0.679,0.287c-0.339,1.46-0.234,3.052-0.313,4.617
				c-0.157,2.557-0.365,8.975-0.391,10.123l-5.322-14.426c-0.548-1.513-1.983-0.887-1.931,0.156l-0.313,18.365
				c0,0.548,1.331,0.626,1.331-0.157l0.183-16.018c5.53,14.792,5.739,15.313,6,15.861c0.209,0.444,1.017,0.757,1.2,0.208
				c0-1.513,0.261-8.739,0.313-10.252c0.104-2.713,0.496-5.426,0.574-8.14C101.908,91.496,101.855,91.47,101.229,91.444z"/>
		</g>
		<g>
			<path d="M145.867,92.607c-0.972,0-0.972,0.972-1.222,1.611c0.083,0.029-2.583,6.224-2.862,6.446
				c-1.055-2.362-1.667-5.195-2.528-7.667c-0.222-0.445-0.694-0.583-1.167-0.583c-0.361,0-0.639,0.166-0.667,0.472
				c0,0.222,0.056,0.361,0.194,0.667c0.084,0.25,0.861,2.277,0.972,2.528l2.362,6.417c0,1.111-0.333,8.306-0.417,10.391
				c0,0.194-0.028,0.306-0.028,0.417c0.083,0.333,0.388,0.361,0.64,0.389h0.054c0.445,0.027,0.917-0.055,0.945-0.5l0.5-10.585
				c0.833-3.167,2.917-6.14,4.056-9.279v-0.194C146.701,92.69,146.312,92.634,145.867,92.607z"/>
			<path d="M152.508,90.718c-4.917,0-5.167,6.473-5.167,10.001c0,3.25,0.223,11.64,5.14,11.64c2.777,0,3.805-3.528,4-5.556
				C156.759,103.108,157.481,91.273,152.508,90.718z M155.148,102.163c0,1.751-0.027,8.807-2.75,8.807
				c-1.973,0-3.473-2.222-3.473-10.362c0-0.778,0-1.556,0.028-2.445c0-1.389,0.889-6.028,2.973-6.028
				c2.638,0,3.222,7.778,3.222,9.918V102.163z"/>
			<path d="M166.651,91.357c-0.028-0.472-0.417-0.556-0.861-0.556c-0.501,0-0.667,0.055-0.807,0.5
				c0.139,5.362,0.195,13.113,0.111,16.558c-0.028,0.75-0.333,2.333-1.306,2.333c-3.806,0-2.583-18.085-3.056-18.891
				c-0.194-0.556-1.667-0.583-1.667,0.028v0.139l0.056,1.361c0.277,9.723,0.527,18.169,3.945,18.585
				c0.25,0.027,0.472,0.055,0.666,0.055c2.89,0,2.917-2.75,2.973-5.167C166.567,101.191,166.79,96.246,166.651,91.357z"/>
		</g>
		<g>
			<path d="M198.886,131.231c-0.305,0-0.608,0.152-0.912,0.455c-0.191,0.19-0.569,0.665-1.139,1.423
				c-1.935,2.506-3.824,4.642-5.666,6.407s-3.655,2.648-5.438,2.648c-1.024,0-1.898-0.911-2.62-2.732
				c-0.72-1.823-1.101-4.291-1.138-7.403c1.935-1.442,3.653-3.104,5.154-4.983c1.499-1.88,2.25-3.653,2.25-5.324
				c0-1.14-0.306-1.945-0.912-2.42c-0.608-0.475-1.271-0.712-1.992-0.712c-1.254,0-2.525,0.598-3.816,1.794
				c-1.29,1.196-2.364,2.856-3.216,4.982c-0.855,2.126-1.282,4.479-1.282,7.062c0,0.189,0.031,0.371,0.037,0.561
				c-0.229,0.248-0.375,0.405-0.434,0.464l-1.48,1.48c-1.709,1.823-3.218,3.217-4.528,4.186c-1.31,0.968-2.685,1.452-4.129,1.452
				c-0.189,0-0.351-0.512-0.482-1.538c-0.134-1.025-0.2-2.068-0.2-3.132c0-1.48,0.17-3.084,0.512-4.812
				c0.342-1.727,0.863-3.208,1.566-4.441c0.702-1.234,1.546-1.889,2.534-1.965c0.492,0,0.777,0.608,0.853,1.822
				c0.077,0.569,0.143,0.939,0.2,1.11s0.219,0.313,0.484,0.427c0.379,0.114,0.759,0.028,1.138-0.256
				c0.38-0.285,0.57-0.863,0.57-1.736c0-2.392-0.91-3.588-2.732-3.588c-1.481,0-2.895,0.675-4.243,2.021
				c-1.348,1.348-2.438,2.99-3.274,4.925c-0.833,1.937-1.252,3.683-1.252,5.239c0,0.077,0.005,0.141,0.007,0.216
				c-0.655,1.042-1.426,2.247-2.342,3.656c-1.975,3.038-4.024,5.866-6.15,8.484c-2.125,2.62-3.758,3.929-4.897,3.929
				c-0.759,0-1.138-1.215-1.138-3.644c0-2.201,0.256-4.991,0.768-8.371c0.512-3.378,0.997-6.074,1.452-8.085
				c0.151-0.646-0.028-1.233-0.54-1.765c-0.512-0.532-1.092-0.798-1.737-0.798c-0.531,0-0.988,0.209-1.367,0.626
				c-0.38,0.419-0.607,1.064-0.683,1.937c-0.038,0.874-0.418,2.525-1.139,4.954c-0.721,2.43-1.661,4.633-2.819,6.605
				c-1.159,1.974-2.438,2.981-3.844,3.018c-0.417,0.038-0.731-0.35-0.939-1.167c-0.209-0.816-0.313-2.002-0.313-3.559
				c0-3.112,0.455-7.421,1.367-12.926l0.057-0.456c0-0.72-0.257-1.309-0.769-1.764c-0.512-0.457-1.11-0.684-1.794-0.684
				c-0.683,0-1.29,0.228-1.822,0.684c-0.532,0.455-0.833,1.12-0.91,1.993l-0.172,1.708c-0.066,0.828-0.123,1.601-0.177,2.347
				l-0.845,1.468c-2.279,4.024-4.499,7.573-6.663,10.648c-2.164,3.075-4.082,4.613-5.75,4.613c-1.709,0-2.925-1.699-3.646-5.097
				c-0.721-3.397-1.176-7.677-1.365-12.841c2.011-2.315,4.193-5.438,6.548-9.367c2.353-3.929,4.365-8.076,6.035-12.442
				c1.671-4.365,2.507-8.293,2.507-11.787c0-2.392-0.419-4.147-1.254-5.268c-0.835-1.119-2.203-1.679-4.099-1.679
				c-0.57,0-1.197,0.057-1.88,0.171c-4.897,0.874-8.134,4.433-9.708,10.677c-1.576,6.245-2.383,13.354-2.42,21.325
				c-0.266-0.114-0.608-0.17-1.025-0.17c-0.685,0-1.405,0.152-2.164,0.455c-1.252,0.494-2.534,1.396-3.844,2.706
				c-1.31,1.309-2.419,2.96-3.332,4.954c-0.346,0.755-0.604,1.553-0.818,2.371c-0.171,0.218-0.368,0.473-0.604,0.789
				c-1.937,2.506-3.824,4.642-5.666,6.407c-1.843,1.765-3.654,2.648-5.438,2.648c-1.024,0-1.898-0.911-2.619-2.732
				c-0.723-1.823-1.102-4.291-1.14-7.403c1.937-1.442,3.653-3.104,5.154-4.983c1.499-1.88,2.249-3.653,2.249-5.324
				c0-1.14-0.304-1.945-0.911-2.42c-0.607-0.475-1.272-0.712-1.994-0.712c-1.252,0-2.526,0.598-3.814,1.794
				c-1.292,1.196-2.364,2.856-3.219,4.982c-0.826,2.057-1.243,4.331-1.27,6.814c-0.257,0.535-0.596,1.262-1.036,2.24
				c-2.278,5.012-4.403,9.32-6.377,12.927c-1.975,3.605-3.55,5.427-4.728,5.466c-0.644,0.037-1.186-0.674-1.622-2.136
				c-0.436-1.462-0.655-3.33-0.655-5.608c0-3.834,0.627-7.801,1.88-11.901c0.189-0.494,0.057-0.882-0.4-1.167
				c-0.455-0.285-1.252-0.616-2.392-0.997c-1.593-0.493-2.696-0.93-3.302-1.31c0.606-0.798,1.14-1.642,1.595-2.534
				c0.455-0.891,0.74-1.642,0.854-2.25c0.151-0.834,0.228-1.441,0.228-1.822c0-1.784-1.007-2.677-3.019-2.677
				c-0.948,0-1.784,0.267-2.505,0.797c-0.759,0.57-1.31,1.311-1.651,2.222c-0.342,0.911-0.551,1.785-0.627,2.62
				c-0.036,0.266-0.055,0.646-0.055,1.138c0,2.165,0.74,3.92,2.22,5.267c1.481,1.348,3.019,2.25,4.613,2.706
				c-0.912,3.455-1.367,6.776-1.367,9.965c0,3.112,0.474,5.6,1.424,7.46c0.948,1.859,2.296,2.752,4.042,2.677
				c2.126-0.114,4.356-2.174,6.691-6.179c2.193-3.762,4.36-8.071,6.503-12.887c0.127,0.811,0.262,1.62,0.474,2.41
				c0.53,1.994,1.289,3.616,2.277,4.869c0.986,1.253,2.107,1.879,3.359,1.879c3.605,0,6.956-2.059,10.051-6.179
				c0.876-1.168,1.624-2.16,2.268-3.012c-0.003,0.143-0.021,0.278-0.021,0.422c0,1.859,0.446,3.236,1.339,4.128
				c0.892,0.892,2.039,1.338,3.444,1.338c1.14,0,2.354-0.484,3.644-1.452c1.291-0.969,2.506-2.211,3.646-3.73
				c0.91,9.68,3.719,14.521,8.428,14.521c1.858,0,3.918-1.367,6.178-4.101c2.258-2.732,4.327-5.75,6.206-9.053
				c0.412-0.723,0.77-1.358,1.091-1.933c-0.063,1.283-0.096,2.353-0.096,3.185c0,3.266,0.361,5.8,1.083,7.603
				c0.721,1.802,1.975,2.704,3.758,2.704c0.986,0,2.03-0.456,3.131-1.367c1.101-0.912,2.069-1.965,2.904-3.161
				c0.835-1.196,1.329-2.136,1.481-2.818c-0.153,1.025-0.228,2.088-0.228,3.189c0,1.671,0.19,3.104,0.568,4.299
				c0.38,1.196,0.854,2.087,1.424,2.677c0.57,0.588,1.157,0.882,1.765,0.882c2.315,0,4.983-1.974,8.001-5.921
				c2.19-2.867,4.398-6.013,6.62-9.42c0.165,1.265,0.419,2.358,0.783,3.241c0.664,1.614,1.831,2.419,3.502,2.419
				c1.329,0,2.828-0.606,4.498-1.822c1.67-1.214,3.255-2.677,4.754-4.385c0.505-0.576,0.956-1.131,1.381-1.676
				c0.132,0.902,0.293,1.797,0.526,2.673c0.532,1.994,1.291,3.616,2.277,4.869c0.988,1.253,2.107,1.879,3.361,1.879
				c3.605,0,6.957-2.059,10.049-6.179c3.094-4.118,4.735-6.271,4.926-6.463c0.151-0.151,0.228-0.322,0.228-0.513
				c0-0.265-0.085-0.492-0.255-0.683C199.369,131.327,199.15,131.231,198.886,131.231z M183.881,124.028
				c0.74-1.841,1.546-2.762,2.419-2.762c0.721,0,1.083,0.323,1.083,0.968c0,0.835-0.541,2.049-1.623,3.645
				c-1.082,1.594-2.268,2.942-3.559,4.042C182.58,127.834,183.141,125.87,183.881,124.028z M86.11,124.028
				c0.742-1.841,1.548-2.762,2.421-2.762c0.721,0,1.083,0.323,1.083,0.968c0,0.835-0.542,2.049-1.624,3.645
				c-1.082,1.594-2.269,2.942-3.559,4.042C84.809,127.834,85.37,125.87,86.11,124.028z M59.946,126.619
				c0-0.912,0.094-1.812,0.285-2.705c0.189-0.892,0.493-1.338,0.91-1.338c0.835-0.038,1.254,0.475,1.254,1.537
				c0,0.646-0.153,1.377-0.457,2.193c-0.304,0.816-0.74,1.604-1.311,2.363C60.173,128.099,59.946,127.416,59.946,126.619z
				 M108.688,135.274c-0.874,1.405-1.728,2.543-2.562,3.417c-0.836,0.874-1.462,1.309-1.88,1.309c-0.76,0-1.139-0.815-1.139-2.448
				c0-1.632,0.265-3.417,0.797-5.354c0.532-1.936,1.244-3.653,2.136-5.153c0.891-1.499,1.831-2.477,2.817-2.933
				c0.304-0.151,0.589-0.228,0.855-0.228c0.303,0,0.542,0.114,0.712,0.342c0.17,0.228,0.285,0.54,0.342,0.938
				c0.056,0.399,0.085,0.637,0.085,0.713c0,2.164,0.019,3.872,0.057,5.125C110.302,132.446,109.562,133.87,108.688,135.274z
				 M114.896,120.81c0-7.098,0.749-13.618,2.249-19.559c1.499-5.941,4.203-9.235,8.114-9.881c1.253-0.151,2.145,0.306,2.676,1.368
				c0.532,1.063,0.798,2.373,0.798,3.929c0,3.455-1.044,7.565-3.132,12.328c-2.088,4.765-5.619,10.659-10.592,17.681v-1.252
				C114.932,123.753,114.896,122.215,114.896,120.81z"/>
			<path d="M248.996,122.69c0.264,0,0.512-0.085,0.74-0.256s0.36-0.407,0.398-0.711c0.039-0.342-0.066-0.627-0.313-0.855
				c-0.247-0.228-0.523-0.341-0.825-0.341c-0.268,0-0.504,0.114-0.712,0.341c-0.21,0.228-0.314,0.533-0.314,0.912
				c0,0.305,0.104,0.532,0.314,0.683C248.492,122.614,248.728,122.69,248.996,122.69z"/>
			<path d="M306.139,133.06c-0.356,0-0.712,0.179-1.067,0.534c-0.225,0.223-0.669,0.78-1.337,1.669
				c-2.272,2.939-4.487,5.445-6.646,7.516c-2.162,2.071-4.287,3.106-6.38,3.106c-1.202,0-2.227-1.068-3.073-3.206
				c-0.848-2.138-1.292-5.033-1.336-8.684c2.272-1.692,4.285-3.642,6.045-5.846c1.759-2.205,2.639-4.285,2.639-6.245
				c0-1.337-0.357-2.283-1.068-2.84c-0.713-0.557-1.494-0.835-2.339-0.835c-1.469,0-2.962,0.701-4.474,2.104
				c-1.517,1.403-2.773,3.351-3.776,5.845c-0.858,2.133-1.324,4.474-1.449,6.997c-0.927,0.425-2.27,1.065-4.096,1.955
				c-2.65,1.292-5.399,2.739-8.25,4.341c0.045-2.137,0.202-5.343,0.469-9.619c5.121-7.792,9.196-14.996,12.224-21.609
				c3.027-6.614,4.543-11.523,4.543-14.73c0-2.272-0.535-3.952-1.604-5.044c-1.07-1.09-2.227-1.636-3.474-1.636
				c-3.741,0-6.938,2.738-9.586,8.216c-2.649,5.477-4.642,12.503-5.979,21.076c-0.917,5.88-1.505,11.925-1.815,18.109
				c-0.78,1.218-2.162,3.37-4.16,6.473c-3.141,4.877-5.869,7.382-8.184,7.516c-0.491,0.045-1.002-0.278-1.539-0.969
				c-0.533-0.689-0.99-1.736-1.368-3.139c-0.38-1.403-0.567-3.083-0.567-5.043c0-2.983,0.467-6.369,1.402-10.155
				c0.045-0.177,0.067-0.423,0.067-0.734c0-0.712-0.234-1.313-0.701-1.803c-0.468-0.49-1.035-0.736-1.703-0.736
				c-0.625,0-1.214,0.246-1.771,0.736c-0.558,0.49-1.012,1.269-1.369,2.338c-0.668,2.033-1.086,4.198-1.277,6.48
				c-6.396,8.25-11.834,12.424-16.291,12.424c-1.292,0-2.404-1.224-3.34-3.675c-0.936-2.448-1.627-5.745-2.072-9.886
				c3.609-3.562,7.036-7.581,10.288-12.056c3.25-4.476,5.946-8.896,8.083-13.262c2.137-4.363,3.362-8.17,3.674-11.422
				c0.089-0.979,0.134-1.692,0.134-2.138c0-2.359-0.458-4.364-1.369-6.011c-0.915-1.647-2.417-2.627-4.509-2.939
				c-0.224-0.044-0.581-0.067-1.07-0.067c-2.716,0-5.688,1.337-8.918,4.008c-3.229,2.672-6.023,6.525-8.382,11.558
				c-2.361,5.032-3.719,10.866-4.076,17.502c-0.087,2.227-0.134,3.807-0.134,4.742c0,5.878,0.569,10.879,1.703,14.996
				c1.137,4.121,2.562,7.192,4.277,9.219c1.714,2.027,3.462,3.039,5.243,3.039c2.761,0,5.58-1.157,8.451-3.472
				c2.871-2.316,5.41-4.854,7.615-7.616c0.222-0.278,0.424-0.535,0.623-0.787c0.135,3.013,0.687,5.631,1.714,7.801
				c1.18,2.494,2.883,3.74,5.11,3.74c2.005,0,4.252-1.202,6.746-3.607c2.806-2.716,5.111-5.578,6.916-8.584
				c0.218-0.363,0.421-0.703,0.615-1.023c-0.055,1.703-0.108,3.406-0.116,5.132l-1.671,1.135c-1.068,0.759-1.603,1.604-1.603,2.539
				c0,0.534,0.179,1.035,0.535,1.502c0.357,0.468,0.801,0.769,1.335,0.902c0.713,0.224,1.227,0.401,1.537,0.535
				c0.179,6.012,0.648,11.445,1.403,16.3c0.757,4.853,1.792,8.706,3.106,11.556c1.313,2.848,2.861,4.275,4.643,4.275
				c1.871,0,3.45-0.868,4.744-2.604c1.29-1.736,1.936-4.209,1.936-7.416c0-2.049-0.334-4.475-1-7.281
				c-0.936-3.741-2.262-6.87-3.976-9.386c-1.715-2.514-3.573-4.509-5.579-5.979v-2.204v-4.409c3.741-2.404,7.116-4.252,10.121-5.544
				c0.911-0.391,1.673-0.717,2.321-0.994c0.088,2.04,0.338,4.039,0.854,5.971c0.621,2.339,1.511,4.242,2.671,5.712
				c1.157,1.469,2.471,2.205,3.941,2.205c4.23,0,8.161-2.416,11.791-7.249c3.629-4.831,5.555-7.357,5.779-7.583
				c0.177-0.177,0.267-0.377,0.267-0.601c0-0.311-0.102-0.578-0.301-0.802C306.708,133.172,306.451,133.06,306.139,133.06z
				 M288.537,124.61c0.87-2.16,1.815-3.24,2.84-3.24c0.846,0,1.27,0.379,1.27,1.136c0,0.979-0.636,2.404-1.905,4.275
				s-2.661,3.452-4.175,4.743C287.01,129.075,287.668,126.771,288.537,124.61z M274.408,99.325
				c1.916-6.902,4.297-10.354,7.148-10.354c0.758,0,1.536,0.312,2.339,0.935c0.801,0.624,1.202,1.694,1.202,3.207
				c0,2.316-1.27,6.379-3.808,12.191c-2.539,5.811-6.213,12.547-11.022,20.207C271.113,114.957,272.493,106.229,274.408,99.325z
				 M221.103,130.722c-0.132-2.138-0.199-4.364-0.199-6.68c0-2.181,0.021-3.852,0.067-5.01c0.177-5.387,1.112-10.476,2.806-15.263
				c1.691-4.789,3.717-8.607,6.078-11.457c2.36-2.851,4.586-4.276,6.682-4.276l0.666,0.067c1.825,0.267,3.085,0.991,3.776,2.17
				c0.688,1.18,1.035,2.685,1.035,4.51c0,0.623-0.045,1.469-0.135,2.538c-0.267,2.895-1.446,6.369-3.538,10.421
				c-2.096,4.053-4.699,8.139-7.817,12.258C227.405,124.121,224.265,127.695,221.103,130.722z M276.278,165.726
				c0.446,2.092,0.669,3.918,0.669,5.477c0,2.138-0.334,3.652-1.003,4.543c-0.666,0.892-1.312,1.336-1.936,1.336
				c-1.247,0-2.261-2.216-3.04-6.647c-0.78-4.432-1.26-10.209-1.437-17.335C272.917,156.484,275.166,160.693,276.278,165.726z"/>
			<path d="M350.921,131.971c-0.191-0.189-0.418-0.285-0.683-0.285c-0.267,0-0.551,0.096-0.854,0.285l-0.912,0.74
				c-1.898,1.633-3.397,2.715-4.499,3.246c-0.341-2.126-0.874-3.873-1.595-5.239c-0.72-1.366-1.613-2.05-2.675-2.05
				c-0.797,0-1.728,0.475-2.791,1.424c-0.987,0.911-1.765,2.278-2.334,4.1c-0.041,0.125-0.066,0.252-0.103,0.377
				c-0.615,1.346-1.435,3.146-2.488,5.459c-2.413,5.296-4.908,8.779-7.489,10.449c-0.91-2.619-1.365-5.789-1.365-9.509
				c0-4.973,0.749-10.382,2.25-16.229c1.499-5.845,3.253-11.142,5.267-15.887c1.86-0.189,3.682-0.493,5.466-0.911
				c0.304-0.076,0.617-0.303,0.939-0.683c0.323-0.379,0.485-0.74,0.485-1.083c0-0.455-0.323-0.684-0.967-0.684
				c-0.304,0-0.685,0.058-1.14,0.171c-1.443,0.304-2.658,0.494-3.645,0.569c0.987-1.974,1.727-3.321,2.22-4.043
				c0.151-0.265,0.229-0.512,0.229-0.74c0-0.265-0.125-0.484-0.372-0.655s-0.579-0.256-0.995-0.256
				c-0.419,0-0.846,0.105-1.282,0.313c-0.436,0.208-0.808,0.522-1.11,0.939c-0.495,0.76-1.368,2.335-2.62,4.728
				c-3.531,0.076-6.739-0.229-9.624-0.912c-2.885-0.684-4.915-1.765-6.093-3.247c-0.19-0.303-0.494-0.455-0.91-0.455
				c-0.229,0-0.427,0.085-0.6,0.256c-0.17,0.17-0.255,0.389-0.255,0.655c0,0.493,0.266,1.063,0.797,1.708
				c0.57,0.646,1.565,1.31,2.989,1.994c1.424,0.682,3.217,1.272,5.381,1.764c2.164,0.495,4.556,0.741,7.175,0.741
				c-2.05,4.708-3.872,9.889-5.466,15.545c-1.594,5.657-2.542,11.047-2.849,16.172c-0.037,0.341-0.055,0.874-0.055,1.594
				c0,2.013,0.208,3.948,0.625,5.809c0.419,1.859,0.989,3.359,1.709,4.498c0.721,1.139,1.499,1.708,2.335,1.708
				c1.252,0,2.743-0.968,4.47-2.904c1.727-1.937,3.445-4.499,5.154-7.688c0.412-0.77,0.768-1.582,1.153-2.371
				c0.156,1.932,0.606,3.622,1.379,5.047c0.969,1.784,2.381,2.676,4.243,2.676c0.19,0,0.549-0.039,1.083-0.114
				c1.441-0.266,2.477-1.195,3.102-2.791c0.626-1.594,0.901-3.549,0.826-5.864l-0.171-2.449c1.329-0.797,2.885-1.859,4.67-3.189
				c0.568-0.455,1.119-0.834,1.65-1.138c0.418-0.228,0.626-0.55,0.626-0.969C351.206,132.37,351.11,132.162,350.921,131.971z
				 M339.02,130.89c0.228-0.076,0.417-0.114,0.569-0.114c0.493,0.151,0.968,0.76,1.424,1.822c0.456,1.063,0.853,2.392,1.195,3.987
				c-0.455,0.076-0.759,0.113-0.912,0.113c-1.671,0-2.751-1.195-3.245-3.587C338.316,131.934,338.639,131.194,339.02,130.89z
				 M342.323,145.183c-0.306,0.797-0.761,1.196-1.367,1.196c-0.835,0-1.528-0.806-2.079-2.421c-0.551-1.612-0.883-3.538-0.997-5.779
				c0.266,0.379,0.627,0.646,1.082,0.797c0.457,0.152,1.063,0.228,1.823,0.228c0.457,0,1.044-0.151,1.766-0.455
				c0.151,1.519,0.228,2.6,0.228,3.246C342.778,143.323,342.625,144.386,342.323,145.183z"/>
		</g>
		<g>
			<path d="M115.214,223.816c-0.914,0-0.914,0.911-1.148,1.51c0.078,0.027-2.426,5.845-2.687,6.054
				c-0.992-2.216-1.565-4.877-2.374-7.2c-0.208-0.418-0.653-0.547-1.097-0.547c-0.339,0-0.6,0.156-0.626,0.442
				c0,0.209,0.053,0.341,0.184,0.627c0.078,0.233,0.808,2.139,0.913,2.375l2.217,6.026c0,1.042-0.313,7.8-0.391,9.757
				c0,0.182-0.026,0.286-0.026,0.391c0.078,0.311,0.365,0.338,0.6,0.365h0.052c0.417,0.025,0.861-0.055,0.887-0.47l0.47-9.941
				c0.783-2.972,2.739-5.765,3.809-8.712v-0.182C115.996,223.894,115.63,223.842,115.214,223.816z"/>
			<path d="M121.45,222.041c-4.617,0-4.852,6.078-4.852,9.392c0,3.051,0.208,10.931,4.826,10.931c2.608,0,3.574-3.313,3.757-5.219
				C125.441,233.676,126.119,222.563,121.45,222.041z M123.928,232.79c0,1.644-0.026,8.27-2.583,8.27
				c-1.852,0-3.261-2.087-3.261-9.731c0-0.731,0-1.46,0.027-2.296c0-1.304,0.834-5.66,2.792-5.66c2.478,0,3.026,7.304,3.026,9.313
				V232.79z"/>
			<path d="M134.729,222.641c-0.026-0.442-0.391-0.522-0.809-0.522c-0.47,0-0.626,0.053-0.757,0.47
				c0.131,5.037,0.184,12.313,0.105,15.55c-0.026,0.703-0.313,2.19-1.227,2.19c-3.574,0-2.427-16.981-2.869-17.74
				c-0.184-0.52-1.566-0.547-1.566,0.027v0.13l0.052,1.278c0.261,9.132,0.495,17.061,3.705,17.451
				c0.235,0.027,0.443,0.055,0.625,0.055c2.714,0,2.74-2.584,2.792-4.854C134.651,231.875,134.86,227.234,134.729,222.641z"/>
			<path d="M154.166,223.163c-0.391,0-0.678,0-0.678,0.286c-0.339,1.462-0.235,3.054-0.313,4.618
				c-0.156,2.557-0.365,8.976-0.392,10.122l-5.322-14.428c-0.547-1.512-1.982-0.885-1.93,0.157l-0.313,18.367
				c0,0.547,1.331,0.626,1.331-0.157l0.182-16.019c5.531,14.793,5.74,15.313,6,15.862c0.208,0.442,1.018,0.756,1.2,0.209
				c0-1.515,0.261-8.74,0.313-10.255c0.104-2.711,0.496-5.424,0.574-8.138C154.844,223.215,154.792,223.188,154.166,223.163z"/>
			<path d="M160.427,241.397c-0.235,0-1.121,0-1.356-0.024l0.078-6.81l2.609-0.391c1.043-0.159,1.514-1.357,0.288-1.357h-0.131
				l-2.817,0.417l-0.13-8.659h3.13c0.418,0,1.123-0.236,1.123-0.757c0-0.055,0-0.079-0.026-0.131
				c-0.027-0.13-0.548-0.522-0.704-0.522h-4.122c-0.469,0-0.913,0.445-0.913,0.912l0.287,18.211c0,0.494,5.843,0.599,5.791-0.289
				C163.454,240.799,162.176,241.397,160.427,241.397z"/>
			<path d="M173.003,221.519c-0.469,0-0.834,0.132-0.834,1.02c-0.835,4.773-1.748,10.799-2.609,15.574l-2.217-16.071
				c-0.026-0.104-0.392-0.445-0.496-0.495c-0.208-0.209-1.043,0.104-1.2,0.312c1.253,6.652,1.8,13.696,3.183,20.22
				c0.104,0.338,0.391,0.338,0.678,0.338c0.365,0,0.626-0.024,0.809-0.495l1.018-6.705c0.73-4.382,1.382-8.869,2.505-13.174
				C173.655,221.571,173.394,221.519,173.003,221.519z"/>
			<path d="M179.161,241.397c-0.235,0-1.123,0-1.357-0.024l0.079-6.81l2.609-0.391c1.043-0.159,1.513-1.357,0.287-1.357h-0.131
				l-2.817,0.417l-0.13-8.659h3.13c0.417,0,1.122-0.236,1.122-0.757c0-0.055,0-0.079-0.025-0.131
				c-0.026-0.13-0.549-0.522-0.705-0.522h-4.123c-0.469,0-0.913,0.445-0.913,0.912l0.287,18.211c0,0.494,5.843,0.599,5.792-0.289
				C182.186,240.799,180.908,241.397,179.161,241.397z"/>
			<path d="M187.066,221.937h-0.261c-1.043,0-1.487,0-1.539,1.201c-0.157,5.867-0.366,11.791-0.366,17.661v2.19
				c0.182,0.262,0.497,0.366,0.782,0.366c0.653,0,0.574-0.55,0.574-1.045c0.026-2.219,0.157-8.008,0.184-8.244
				c0-0.234,0.104-1.276,0.157-1.51h0.417c1.592,0,1.853,1.746,1.958,3.024c0.051,0.888,0.286,4.879,0.312,5.739
				c0.104,0.363,0.444,0.363,0.731,0.363h0.026c0.339,0,0.756-0.052,0.756-0.495v-0.208c0-0.157-0.156-1.355-0.156-1.513
				c-0.131-1.801,0.156-5.531-1.018-7.07c-0.104-0.182-0.705-0.886-0.835-1.018c1.722-1.174,2.218-3.393,2.218-5.295v-0.288
				C191.005,223.501,189.466,221.937,187.066,221.937z M186.936,230.703c-0.157,0-0.339-0.027-0.339-0.236
				c0-2.32,0.208-4.225,0.182-6.496c0-0.442,0.261-0.676,0.652-0.676c1.486,0,2.061,1.564,2.061,2.79
				C189.492,227.286,188.787,230.703,186.936,230.703z"/>
		</g>
		<g>
			<path d="M164.299,255.763c0-1.323,0.151-4.012,2.081-4.012c2.08,0,1.627,2.271,3.102,2.271c0.757,0,0.985-0.416,0.985-1.135
				c0-1.967-2.762-3.29-4.427-3.29c-2.611,0-3.896,3.52-3.896,5.636c0,4.693,3.822,8.098,5.599,12.182
				c0.871,1.97,1.023,4.203,1.023,6.282c0,1.549-0.606,4.464-2.725,4.464h-0.227c-1.891-1.097-0.455-4.427-1.968-4.879
				c-0.605-0.189-1.476,0.452-1.476,1.097c0,2.271,0.871,5.75,3.67,5.75c2.309,0,4.011-2.687,4.616-4.653
				c0.908-2.875,0.113-7.113-1.438-10.025C167.516,262.271,164.299,259.586,164.299,255.763z"/>
			<path d="M179.168,278.05c-0.34,0-1.626,0-1.967-0.04l0.114-9.874l3.783-0.566c1.513-0.229,2.195-1.97,0.417-1.97h-0.19
				l-4.085,0.606l-0.189-12.56h4.54c0.605,0,1.626-0.341,1.626-1.097c0-0.077,0-0.114-0.038-0.189
				c-0.038-0.188-0.793-0.758-1.022-0.758h-5.977c-0.681,0-1.326,0.644-1.326,1.323l0.417,26.409c0,0.719,8.476,0.868,8.399-0.418
				C183.558,277.177,181.705,278.05,179.168,278.05z"/>
			<path d="M191.807,278.05c-0.34,0-1.626,0-1.967-0.04l0.114-9.874l3.783-0.566c1.513-0.229,2.195-1.97,0.417-1.97h-0.189
				l-4.086,0.606l-0.189-12.56h4.54c0.605,0,1.626-0.341,1.626-1.097c0-0.077,0-0.114-0.038-0.189
				c-0.038-0.188-0.794-0.758-1.021-0.758h-5.977c-0.682,0-1.326,0.644-1.326,1.323l0.417,26.409c0,0.719,8.476,0.868,8.399-0.418
				C196.196,277.177,194.342,278.05,191.807,278.05z"/>
		</g>
		<g>
			<path d="M190.146,293.737c0.339,0,0.658-0.111,0.949-0.33c0.293-0.219,0.462-0.522,0.512-0.915
				c0.048-0.436-0.086-0.801-0.403-1.092c-0.316-0.294-0.669-0.44-1.058-0.44c-0.343,0-0.646,0.146-0.913,0.44
				c-0.269,0.291-0.403,0.684-0.403,1.168c0,0.389,0.135,0.682,0.403,0.873C189.5,293.639,189.804,293.737,190.146,293.737z"/>
			<path d="M346.286,304.113c-0.246-0.293-0.489-0.442-0.731-0.442c-0.438,0-0.755,0.224-0.95,0.662
				c-0.78,1.994-1.985,3.76-3.616,5.295c-1.633,1.539-3.642,3.034-6.03,4.491c-0.729-1.216-1.607-2.482-2.629-3.795
				c-1.511-2.146-2.644-3.933-3.397-5.372c-0.756-1.436-1.133-3.052-1.133-4.857c0-1.269,0.219-2.423,0.659-3.47
				c0.437-1.047,1.192-1.571,2.263-1.571c0.732,0,1.302,0.132,1.718,0.397c0.414,0.269,0.718,0.612,0.913,1.027
				c0.195,0.415,0.342,0.688,0.44,0.838c0.192,0.294,0.461,0.44,0.804,0.44c0.291,0,0.546-0.146,0.767-0.44
				c0.219-0.288,0.329-0.682,0.329-1.169c0-0.632-0.244-1.351-0.732-2.156c-0.485-0.803-1.156-1.472-2.008-2.007
				c-0.853-0.535-1.838-0.806-2.958-0.806c-2.241,0-4.055,0.806-5.443,2.412c-1.389,1.609-2.058,4.139-2.009,7.599
				c0.027,0.922,0.181,1.798,0.412,2.646c-2.598,0.043-5.196,0.493-7.792,1.376c-0.243,0.097-0.56,0.203-0.95,0.325
				c-0.391,0.125-0.694,0.294-0.913,0.513c-0.221,0.216-0.329,0.646-0.329,1.278c0,1.266-0.366,4.887-1.096,10.851
				c-0.731,5.967-1.717,11.461-2.96,16.477c-1.242,5.017-2.667,7.499-4.274,7.454c-1.413-0.05-2.412-1.962-2.996-5.737
				c-0.584-3.773-0.877-8.536-0.877-14.286c0-3.601,0.147-8.401,0.438-14.393l0.074-2.044c0.048-1.266-0.086-2.193-0.401-2.778
				c-0.318-0.584-0.891-0.878-1.717-0.878c-0.78,0-1.278,0.209-1.499,0.624c-0.219,0.416-0.524,1.423-0.913,3.032l-0.438,2.41
				c-0.488,1.559-1.305,3.275-2.448,5.152c-1.144,1.873-2.362,3.468-3.654,4.783c-1.29,1.315-2.374,2.002-3.25,2.047
				c-0.683,0-1.023-0.657-1.023-1.973c0-2.288,0.925-6.257,2.777-11.908c0.096-0.393,0.146-0.684,0.146-0.88
				c0-0.679-0.221-1.264-0.658-1.751c-0.439-0.485-0.975-0.731-1.607-0.731c-0.536,0-1.071,0.219-1.607,0.657
				c-0.536,0.439-0.997,1.097-1.388,1.975c-0.147,0.325-0.288,0.674-0.426,1.039l-0.159,0.127c-2.436,2.097-4.358,3.487-5.771,4.163
				c-0.439-2.723-1.122-4.964-2.046-6.72c-0.925-1.753-2.071-2.631-3.434-2.631c-1.023,0-2.217,0.609-3.58,1.827
				c-0.071,0.065-0.131,0.152-0.2,0.22c-0.206-0.065-0.398-0.149-0.675-0.149c-0.247,0-0.439,0.029-0.586,0.077
				c-2.338,0.878-4.92,2.266-7.745,4.163c-0.584-1.413-1.377-2.532-2.374-3.36c-1-0.828-2.181-1.243-3.544-1.243
				c-1.023,0-2.155,0.363-3.397,1.097c-1.242,0.731-2.327,1.56-3.252,2.484c-0.925,0.926-1.437,1.585-1.533,1.973
				c-0.293-0.873-0.538-2.216-0.732-4.017c6.578-6.819,12.642-14.127,18.194-21.921c5.553-7.792,8.33-14.907,8.33-21.334
				c0-2.778-0.816-4.591-2.448-5.446c-1.631-0.854-3.446-1.301-5.442-1.351c-3.361,0-6.686,1.597-9.975,4.787
				c-3.287,3.191-6.149,7.867-8.585,14.027c-2.436,6.165-4.065,13.479-4.894,21.958c-0.341,3.407-0.512,6.601-0.512,9.57
				c0,0.738,0.012,1.444,0.032,2.129c-1.293,1.492-2.586,2.927-3.869,4.226c-1.924,1.952-4.104,4.071-6.54,6.361l-2.921,2.773
				c-0.78,0.778-1.316,1.171-1.607,1.171c-0.292,0-0.438-0.296-0.438-0.878v-0.438c0.046-0.781,0.315-1.975,0.803-3.584
				c0.486-1.604,1.023-3.285,1.608-5.041c0.973-2.97,1.753-5.491,2.337-7.561c0.584-2.071,0.976-3.935,1.17-5.588
				c0.048-0.294,0.072-0.709,0.072-1.244c0-1.462-0.292-2.716-0.876-3.763s-1.511-1.644-2.775-1.791
				c-0.245-0.045-0.61-0.072-1.098-0.072c-3.459,0-6.112,1.632-7.964,4.895c-1.85,3.264-3.167,6.481-3.945,9.647
				c-0.098,0.098-0.231-0.733-0.402-2.484c-0.172-1.756-0.281-2.947-0.329-3.584c-0.048-0.731-0.281-1.338-0.695-1.823
				c-0.413-0.489-0.865-0.73-1.35-0.73c-0.538,0-1.013,0.303-1.426,0.915c-0.414,0.604-0.668,1.497-0.767,2.663
				c-0.049,0.538-0.073,1.609-0.073,3.216c0,0.373,0.016,0.789,0.02,1.174c-0.727,1.14-2.377,3.703-4.951,7.705
				c-3.433,5.33-6.418,8.07-8.95,8.22c-0.538,0.048-1.098-0.304-1.682-1.062c-0.584-0.754-1.084-1.897-1.498-3.433
				c-0.415-1.532-0.622-3.375-0.622-5.519c0-3.263,0.512-6.961,1.535-11.103c0.048-0.196,0.074-0.462,0.074-0.808
				c0-0.776-0.257-1.436-0.769-1.97c-0.512-0.535-1.132-0.806-1.864-0.806c-0.682,0-1.326,0.271-1.936,0.806
				c-0.61,0.534-1.108,1.385-1.497,2.554c-0.438,1.336-0.763,2.73-1.013,4.163c-0.001,0.003-0.007,0.003-0.008,0.005
				c-3.265,2.97-6.602,6.602-10.011,10.887c-3.409,4.287-5.918,8.231-7.525,11.838c-0.098-0.781-0.146-1.413-0.146-1.897
				c0-2.391,0.389-5.23,1.169-8.516c0.779-3.29,1.923-7.636,3.434-13.042l0.659-2.193c0.146-0.585,0.219-1.095,0.219-1.532
				c0-0.731-0.195-1.278-0.584-1.646c-0.391-0.366-0.877-0.548-1.462-0.548c-0.584,0-1.158,0.16-1.716,0.478
				c-0.562,0.316-0.987,0.719-1.278,1.204c-1.023,1.169-2.095,2.592-3.214,4.272c-1.122,1.682-2.145,3.278-3.07,4.788
				c-1.413,2.293-2.484,3.925-3.215,4.895c-0.731,0.975-1.34,1.462-1.826,1.462c-0.537,0-0.975-0.303-1.316-0.912
				c-0.341-0.612-0.487-1.913-0.437-3.91c0.048-2.481,0.548-5.153,1.497-8.003c0.951-2.848,2.143-5.308,3.58-7.379
				c1.437-2.069,2.912-3.273,4.421-3.614c0.485-0.1,0.829-0.149,1.023-0.149c1.12,0,2.021,0.416,2.703,1.244
				s1.023,1.584,1.023,2.263c0,0.685,0.098,1.219,0.293,1.609c0.192,0.391,0.439,0.585,0.73,0.585c0.438,0,0.778-0.413,1.023-1.241
				c0.192-0.635,0.291-1.463,0.291-2.485c0-1.608-0.425-2.972-1.278-4.091s-2.206-1.681-4.054-1.681
				c-0.78,0-1.388,0.049-1.828,0.146c-1.802,0.341-3.811,1.547-6.027,3.613c-2.217,2.074-4.202,4.75-5.956,8.038
				c-0.8,1.5-1.446,3.062-1.971,4.666c-2.054,2.701-4.705,5.608-8,8.742c-3.484,3.313-6.979,4.972-10.485,4.972
				c-1.706,0-4.19-0.746-7.454-2.231c-3.263-1.482-7.989-3.984-14.174-7.485l0.949-0.149c5.115-0.781,10.314-3.114,15.6-7.014
				c5.286-3.897,9.657-8.596,13.115-14.106c3.458-5.499,5.188-10.98,5.188-16.438c0-1.8-0.219-3.578-0.658-5.329
				c-0.73-2.729-2.095-5.19-4.09-7.384c-1.999-2.191-4.557-3.93-7.673-5.224c-3.118-1.288-6.602-1.935-10.449-1.935
				c-0.633,0-1.633,0.05-2.996,0.145c-4.774,0.439-9.132,1.229-13.08,2.375c-3.943,1.146-8,3.106-12.165,5.882
				c-4.164,2.778-8.44,6.625-12.822,11.545c-1.17,1.315-1.754,2.435-1.754,3.362c0,0.485,0.17,0.863,0.512,1.132
				c0.34,0.269,0.73,0.4,1.168,0.4s0.779-0.119,1.023-0.366c10.764-14.367,22.697-21.555,35.803-21.555
				c3.507,0,6.769,0.769,9.79,2.303c3.02,1.537,5.492,3.594,7.417,6.176c1.924,2.581,3.056,5.329,3.397,8.254
				c0.096,1.167,0.147,2.047,0.147,2.632c0,5.165-1.523,10.117-4.568,14.867c-3.044,4.748-6.831,8.707-11.361,11.876
				c-4.531,3.163-8.865,5.063-13.005,5.697c-0.684,0.098-1.17,0.147-1.461,0.147c-1.073,0-2.059-0.169-2.959-0.513
				c-0.903-0.341-1.841-0.825-2.813-1.46l-1.096-0.656c-0.439-5.944-1.122-11.886-2.047-17.832
				c-0.927-5.941-1.949-11.249-3.068-15.925c-0.146-0.585-0.451-1.024-0.913-1.315c-0.464-0.294-0.988-0.443-1.571-0.443
				c-0.976,0-1.826,0.309-2.559,0.916c-0.73,0.609-1.096,1.452-1.096,2.521c0,0.388,0.074,0.804,0.219,1.238
				c1.852,6.287,3.373,13.438,4.566,21.451c1.194,8.008,1.79,15.693,1.79,23.05c0,7.31-0.656,13.492-1.972,18.559
				c-0.098,0.338-0.146,0.803-0.146,1.388c0,0.682,0.17,1.206,0.512,1.571c0.341,0.366,0.756,0.55,1.242,0.55
				c0.633,0,1.254-0.246,1.864-0.731c0.608-0.487,1.009-1.097,1.206-1.827c1.605-5.75,2.41-12.883,2.41-21.409
				c0-1.85-0.023-3.235-0.072-4.163c5.601,3.36,10.12,5.857,13.553,7.488c3.436,1.632,6.113,2.691,8.038,3.177
				c1.923,0.487,3.763,0.733,5.517,0.733h2.484c3.018,0,6.1-1.209,9.243-3.616c3.14-2.41,5.918-5.066,8.33-7.964
				c0.043-0.052,0.07-0.089,0.114-0.139c-0.002,0.01-0.003,0.017-0.005,0.027c-0.099,1.074-0.146,1.825-0.146,2.263
				c0,2.439,0.5,4.322,1.499,5.666c0.998,1.338,2.324,2.009,3.982,2.009c2.093,0,4.055-1.216,5.881-3.655
				c1.828-2.433,3.421-5.285,4.786-8.549c-0.73,2.047-1.425,4.703-2.083,7.967c-0.656,3.263-0.986,6.234-0.986,8.913
				c0,5.552,1.533,8.327,4.604,8.327c0.925,0,1.764-0.473,2.521-1.42c0.754-0.95,1.813-2.624,3.179-5.007
				c2.143-3.753,4.284-7.15,6.429-10.194c1.616-2.296,3.636-4.706,6.056-7.24c-0.03,0.598-0.066,1.187-0.066,1.799
				c0,3.944,0.646,7.284,1.937,10.01c1.29,2.729,3.154,4.092,5.59,4.092c2.191,0,4.651-1.313,7.378-3.947
				c3.07-2.97,5.59-6.101,7.563-9.389c0.492-0.82,0.927-1.542,1.306-2.171c0.042,1.084,0.086,2.181,0.155,3.34
				c0.171,2.853,0.353,4.835,0.549,5.954c0.145,0.778,0.438,1.439,0.875,1.975c0.439,0.534,0.901,0.801,1.389,0.801
				c0.487,0,0.901-0.288,1.242-0.875c0.339-0.585,0.536-1.485,0.583-2.701c0-1.219,0.404-3.656,1.207-7.308
				c0.805-3.655,1.876-6.966,3.214-9.94c1.341-2.97,2.886-4.457,4.64-4.457c0.732,0,1.266,0.197,1.609,0.59
				c0.339,0.388,0.51,0.997,0.51,1.823c0,1.121-0.414,3.266-1.242,6.432c-0.097,0.438-0.317,1.412-0.657,2.925
				c-0.343,1.504-0.707,3.275-1.098,5.292c-0.389,2.024-0.68,4.179-0.876,6.472c-0.098,1.066-0.145,1.875-0.145,2.409
				c0,2.92,0.657,4.457,1.973,4.599c1.023,0.1,3.811-2.151,8.366-6.757c3.252-3.285,6.198-6.412,8.867-9.387
				c0.064,0.704,0.136,1.383,0.229,2.01c0.291,1.973,0.682,3.47,1.168,4.494c0.294,0.585,0.768,0.985,1.426,1.204
				c0.656,0.216,1.132,0.231,1.423,0.034c1.122-2.87,2.4-5.369,3.837-7.488c1.437-2.116,3.179-3.179,5.225-3.179
				c1.997,0,3.117,1.025,3.361,3.072c-2.875,2.335-5.237,4.882-7.087,7.635c-1.852,2.751-2.777,5.491-2.777,8.22
				c0,1.751,0.377,3.348,1.134,4.783c0.754,1.439,1.79,2.156,3.104,2.156c2.045,0,3.811-1.095,5.297-3.288
				c1.484-2.193,2.604-4.845,3.361-7.961c0.754-3.119,1.133-5.994,1.133-8.625c0-0.632-0.05-1.485-0.147-2.56
				c1.654-1.02,3.384-1.97,5.188-2.848c0.286-0.142,0.523-0.254,0.773-0.376c-0.17,0.426-0.336,0.855-0.482,1.326
				c-0.73,2.34-1.096,4.772-1.096,7.31c0,3.31,0.621,6.11,1.862,8.401c1.242,2.285,3.057,3.432,5.444,3.432
				c0.243,0,0.704-0.047,1.388-0.146c1.851-0.339,3.179-1.532,3.982-3.579c0.803-2.044,1.158-4.557,1.06-7.523l-0.219-3.144
				c1.289-0.773,2.797-1.806,4.421-2.967c-0.037,0.151-0.076,0.288-0.111,0.445c-0.485,2.121-0.731,4.081-0.731,5.884
				c0,3.992,1.268,5.989,3.8,5.989c1.754,0,3.628-0.9,5.626-2.703c1.801-1.704,3.58-3.97,5.334-6.795l-0.146,3.213
				c0,0.443-0.036,1.194-0.109,2.264c-0.074,1.076-0.086,1.905-0.037,2.489c0.292,8.424,1.266,14.661,2.923,18.702
				c1.654,4.042,3.652,6.066,5.99,6.066c3.02,0,5.407-4.203,7.161-12.604c1.753-8.401,2.994-16.501,3.727-24.293
				c0-0.485,0.024-0.866,0.072-1.132c0.049-0.267,0.243-0.45,0.584-0.547c0.341-0.1,0.61-0.175,0.804-0.225
				c1.51-0.438,3.191-0.653,5.043-0.653c0.618,0,1.317,0.029,2.072,0.084c0.705,1.304,1.681,2.868,2.967,4.735
				c1.609,2.243,2.729,4.066,3.363,5.479c-3.118,1.658-5.444,3.121-6.979,4.387c-1.534,1.266-2.35,2.751-2.448,4.457
				c-0.048,1.851,0.476,3.432,1.571,4.748c1.096,1.313,2.693,1.975,4.786,1.975c3.216,0,5.663-1.027,7.342-3.072
				c1.682-2.047,2.522-4.626,2.522-7.742c0-1.85-0.391-3.605-1.17-5.265c2.29-1.119,4.322-2.47,6.101-4.052
				c1.78-1.581,3.277-3.69,4.495-6.319c0.048-0.146,0.072-0.365,0.072-0.661C346.649,304.748,346.529,304.404,346.286,304.113z
				 M244.579,293.372c0.632-7.016,2.07-13.323,4.31-18.921c2.24-5.604,4.834-9.964,7.782-13.085
				c2.948-3.113,5.785-4.676,8.512-4.676c1.12,0,2.035,0.478,2.741,1.428c0.705,0.95,1.009,2.06,0.913,3.325
				c-0.293,4.726-2.292,10.117-5.992,16.186c-3.702,6.062-9.937,13.6-18.706,22.61C244.188,298.973,244.334,296.683,244.579,293.372
				z M254.698,320.115c-0.61,2.532-1.351,4.661-2.227,6.392c-0.878,1.729-1.754,2.595-2.631,2.595c-0.439,0-0.889-0.304-1.352-0.913
				c-0.464-0.612-0.695-1.428-0.695-2.447c0-0.388,0.024-0.706,0.072-0.95c0.634-4.435,3.289-8.401,7.965-11.91
				C255.686,315.174,255.307,317.584,254.698,320.115z M270.882,304.261c0.293-0.098,0.536-0.147,0.73-0.147
				c0.632,0.197,1.242,0.973,1.828,2.336c0.583,1.365,1.094,3.071,1.533,5.118c-0.584,0.097-0.976,0.146-1.17,0.146
				c-2.143,0-3.532-1.539-4.164-4.605C269.979,305.599,270.395,304.648,270.882,304.261z M275.12,322.598
				c-0.391,1.022-0.975,1.534-1.753,1.534c-1.072,0-1.961-1.034-2.667-3.104c-0.706-2.072-1.133-4.542-1.279-7.417
				c0.34,0.485,0.806,0.829,1.388,1.022c0.586,0.194,1.364,0.294,2.34,0.294c0.584,0,1.338-0.197,2.265-0.585
				c0.193,1.947,0.292,3.335,0.292,4.163C275.705,320.215,275.509,321.578,275.12,322.598z M330.357,326.656
				c-0.829,1.187-2.095,1.786-3.801,1.786c-0.924,0-1.667-0.269-2.229-0.804c-0.559-0.534-0.839-1.146-0.839-1.825
				c0-2.484,2.508-4.967,7.524-7.454c0.39,1.271,0.585,2.46,0.585,3.579C331.598,323.891,331.185,325.46,330.357,326.656z"/>
		</g>
		<path d="M227.632,204.211c-0.272,0.127-0.468,0.352-0.586,0.678c-0.107,0.29-0.126,0.508-0.057,0.655
			c0.058,0.125,0.155,0.22,0.293,0.291c0.137,0.073,0.325,0.15,0.56,0.236c0.235,0.087,0.407,0.15,0.516,0.189
			c0.611,0.287,1.073,0.763,1.382,1.43c0.321,0.691,0.472,1.49,0.459,2.397c-0.015,0.905-0.181,1.763-0.497,2.569
			c-0.54,1.301-1.502,3.233-2.893,5.798c-1.059,1.992-1.874,3.613-2.446,4.869c-0.573,1.256-0.966,2.495-1.178,3.719
			c-0.212,1.224-0.101,2.308,0.333,3.243c0.436,0.939,1.247,1.748,2.433,2.43c0.394,0.206,0.691,0.264,0.889,0.171
			c0.097-0.047,0.159-0.142,0.181-0.285c0.025-0.147,0.006-0.279-0.052-0.406c-0.091-0.193-0.244-0.365-0.459-0.505
			c-0.897-0.574-1.512-1.221-1.843-1.937c-0.458-0.988-0.479-2.132-0.063-3.436c0.416-1.303,1.159-2.937,2.227-4.904
			c1.318,0.321,2.555,0.818,3.71,1.497c1.155,0.682,1.927,1.44,2.317,2.281c0.927,1.999,1.37,3.925,1.328,5.774
			c-0.042,1.851-0.479,3.45-1.312,4.793c-0.831,1.346-1.901,2.32-3.209,2.927c-1.384,0.642-2.784,0.858-4.203,0.647
			c-1.419-0.214-2.732-0.828-3.938-1.844c-1.206-1.017-2.199-2.365-2.977-4.044c-0.721-1.557-1.017-3.181-0.889-4.877
			c0.13-1.693,0.709-3.275,1.738-4.742c0.332-0.453,0.417-0.851,0.256-1.199c-0.127-0.271-0.487-0.433-1.082-0.487
			c-1.398-0.104-2.639-0.436-3.724-0.997c-1.087-0.56-1.938-1.51-2.557-2.843c-0.274-0.592-0.498-1.27-0.671-2.029
			c-0.342-1.644-0.298-3.118,0.131-4.426c0.427-1.311,1.186-2.216,2.273-2.721c1.283-0.594,2.406-0.634,3.364-0.119
			c0.96,0.518,1.749,1.409,2.369,2.684c0.123,0.331,0.303,0.557,0.537,0.673c0.236,0.117,0.464,0.123,0.686,0.02
			c0.222-0.103,0.383-0.305,0.483-0.608c0.101-0.298,0.097-0.664-0.013-1.094c-0.602-1.492-1.584-2.492-2.945-3
			c-1.36-0.51-2.905-0.363-4.633,0.439c-1.506,0.699-2.637,1.725-3.389,3.078c-0.751,1.354-1.13,2.819-1.134,4.396
			c-0.004,1.576,0.298,3.02,0.905,4.328c0.594,1.285,1.364,2.233,2.309,2.848c0.943,0.611,1.948,1.06,3.01,1.348
			c-0.79,1.597-1.247,3.407-1.376,5.432c-0.125,2.024,0.144,3.753,0.807,5.184c0.974,2.099,2.242,3.753,3.809,4.964
			c1.565,1.209,3.281,1.912,5.145,2.116c1.863,0.196,3.684-0.111,5.462-0.938c1.926-0.893,3.406-2.246,4.439-4.059
			c1.035-1.815,1.577-3.801,1.629-5.954c0.05-2.156-0.353-4.158-1.212-6.012c-0.583-1.258-1.44-2.348-2.569-3.263
			c-1.131-0.915-2.419-1.579-3.87-1.987c1.439-2.527,2.513-4.675,3.223-6.444c0.474-1.179,0.747-2.4,0.82-3.666
			c0.073-1.265-0.1-2.353-0.523-3.267c-0.424-0.914-1.071-1.528-1.938-1.847C228.623,204.084,228.026,204.028,227.632,204.211z"/>
		<g>
			<g>
				<path d="M261.015,206.113c-0.63,7.16-1.776,20.749-2.063,28.824l-6.362-12.667c-0.4-0.505-1.032-0.505-1.662-0.457
					c-0.974,0.09-1.776,0.597-1.891,1.328c-0.574,3.35-0.918,7.068-2.122,10.602l-1.089-5.048
					c-1.375-6.285-2.923-14.778-4.585-20.928c-0.287-1.148-3.668-0.964-3.668,0.367c0,0,0,0.047,0.058,0.23
					c0.859,1.835,1.433,3.855,1.891,5.736c1.892,8.31,3.267,16.525,4.872,24.876l0.745,3.029c0.516,0.552,0.631,0.552,1.433,0.507
					c1.491-0.139,1.663-0.92,2.006-1.975c0-0.045,0.058-0.092,0.058-0.137c0.687-4.271,2.063-7.807,2.751-14.092l6.821,14.045
					c0.515,1.102,0.458,2.066,1.949,2.066h0.401c1.146-0.095,0.917-0.505,1.547-1.057c0.516-9.683,0.631-19.322,1.605-29.055
					c0.115-1.469,0.86-4.542,0.688-6.012C264.167,204.782,261.645,204.919,261.015,206.113z"/>
				<path d="M283.543,204.093c-0.803,0-1.49,0.323-1.49,1.01v0.23c0.171,5.828-0.058,14.78-0.517,19.966
					c-2.12-0.092-4.299-0.092-6.476-0.092c-0.516,0-0.917,0.092-1.376-0.32c-0.057-0.598-0.057-3.534-0.057-4.179
					c0-4.681,0.516-10.969,0.516-15.375c-0.516-0.551-0.975-0.964-1.777-0.964c-0.63,0-1.146,0-1.604,0.368
					c-0.058,3.534-0.459,22.032-0.459,25.609c0,1.608-0.114,9.229-0.114,10.881c0.114,0.597,3.267,1.378,3.267-0.689v-12.942h8.197
					c0,0.825,0.286,8.262,0.286,9.085c0,3.077,0,5.052,2.006,5.004c1.892-0.047,0.458-10.691,1.26-31.761
					c0.058-0.963,0.23-3.901,0.23-4.91C285.034,204.553,284.231,204.093,283.543,204.093z"/>
				<path d="M294.607,206.206c-1.204,0-1.491,0.045-1.892,0.963l-1.547,34.058c0,1.33,3.21,1.146,3.324-0.873l1.72-31.395
					c0-0.092,0.056-0.688,0.056-0.826C296.269,206.802,296.269,206.206,294.607,206.206z"/>
				<path d="M310.198,205.426h-4.814c-5.961-0.277-5.961,0.273-6.076,1.835c0.114,0.779,1.719,0.826,5.273,0.642l1.146,29.055
					c0,0.411,1.146,0.64,1.49,0.64c0.344,0,1.49-0.229,1.49-0.64l-1.088-29.146h4.814c0.516,0,1.146-0.458,1.146-0.872
					C313.579,205.608,311.458,205.471,310.198,205.426z"/>
				<path d="M322.695,239.067c-0.516,0-2.464,0-2.98-0.045l0.172-11.979l5.731-0.689c2.292-0.273,3.324-2.385,0.63-2.385h-0.287
					l-6.19,0.733l-0.287-15.237h6.877c0.917,0,2.465-0.415,2.465-1.332c0-0.093,0-0.137-0.057-0.23
					c-0.058-0.229-1.204-0.917-1.548-0.917h-9.056c-1.032,0-2.007,0.781-2.007,1.606l0.631,32.037
					c0,0.871,12.838,1.055,12.724-0.507C329.344,238.011,326.536,239.067,322.695,239.067z"/>
			</g>
			<path d="M338.727,219.515c7.429-6.211,14.485-12.822,20.998-20c0.892-0.98,1.546-2.02,1.176-3.344
				c-0.417-1.486-1.792-1.446-3.01-1.677c-5.285-1-10.627-0.913-15.964-0.813c-17.149,0.324-34.3,0.678-51.451,1.02
				c-0.002-0.091-0.002-0.182-0.002-0.273c-20.138,0-13.397-0.009-33.538,0.006c-3.899,0.001-4.211-0.249-4.208-4.204
				c0.009-7.212,0.209-14.424-0.237-21.63c-0.061-0.984-0.164-1.967,0.244-2.939c2.357-5.606,0.747-8.336-5.194-8.125
				c-17.525,0.621-35.044-0.862-52.572,0.144c-13.771,0.787-27.571,1.017-41.355,1.531c-20.725,0.775-61.21-0.159-81.906,1.717
				c-1.576,0.141-3.546-0.023-4.155,1.808c-0.633,1.902,1.219,2.75,2.374,3.831c6.341,5.954,12.404,12.172,18.271,18.597
				c1.9,2.08,1.926,3.878,0.306,5.906c-1.551,1.938-3.051,3.941-4.799,5.693c-5.615,5.631-11.34,11.163-17.843,15.798
				c-0.853,0.609-1.666,1.204-1.353,2.381c0.355,1.334,1.565,1.096,2.479,1.04c1.594-0.098,3.169-0.567,4.762-0.614
				c11.798-0.328,23.6-0.551,35.4-0.887c19.255-0.548,58.216,1.107,77.477,0.09c3.837-0.202,7.699,0.068,11.547,0.175
				c1.772,0.052,3.503,0.092,3.6,2.679c0.142,3.845,0.564,7.683,0.796,11.524c0.308,5.201,0.626,10.381,0.076,15.609
				c-0.484,4.594,0.806,5.61,5.364,4.772c1.849-0.344,3.681-0.64,5.547-0.585c22.014,0.637,43.988-0.783,65.984-1.203
				c31.831-0.607,36.758-0.194,68.546,1.534c2.22,0.119,4.438,0.815,6.664,0.104c1.367-0.436,3.219-0.276,3.653-2.071
				c0.379-1.582-1.136-2.32-2.042-3.303c-5.475-5.93-10.994-11.821-16.379-17.835C335.536,223.24,335.912,221.869,338.727,219.515z
				 M245.291,190.778c0.295-4.95,0.605-9.9,0.979-14.844c0.138-1.84,0.713-3.639,0.135-5.525c-0.255-0.828,0.41-1.5,1.16-1.646
				c1.11-0.213,1.023,0.807,1.133,1.478c0.653,3.939,0.528,7.92,0.565,11.891c0,2.856,0.058,5.714-0.026,8.567
				c-0.035,1.283,0.247,3.011-1.739,3.135C245.36,193.967,245.197,192.359,245.291,190.778z M235.563,190.138
				c-0.027-0.245-0.004-0.493-0.004-0.461c-0.49-4.588,1.583-8.655,1.1-13.051c-0.15-1.348,2.095-2.91,3.824-2.843
				c1.658,0.061,1.159,1.951,1.158,3.04c-0.014,4.559,0.09,9.125-0.524,13.673c-0.293,2.177-0.673,3.708-3.56,3.423
				C234.533,193.626,235.734,191.636,235.563,190.138z M222.874,189.148c0.526-3.334,0.806-6.759,4.847-8.441
				c4.096-1.701,3.963-2.028,4.171,3.85c-0.226,1.614-0.564,4.441-1.032,7.249c-0.263,1.583-1.028,2.552-2.936,2.703
				C222.528,194.931,222.017,194.595,222.874,189.148z M211.224,191.003c1.79-1.303,3.624-2.544,5.462-3.778
				c0.8-0.535,1.772-1.355,2.371,0.133c1.214,3.018-1.538,6.983-4.754,6.936c-0.737-0.009-1.477-0.074-2.39-0.121
				c-1.167-0.579-3.327,0.946-3.794-0.516C207.783,192.598,210.071,191.843,211.224,191.003z M333.325,227.408
				c5.695,4.875,10.422,10.642,15.272,16.298c0.603,0.703,1.776,1.438,1.172,2.494c-0.58,1.022-1.83,0.391-2.747,0.336
				c-25.952-1.579-34.019-1.522-59.993-1.373c-14.536,0.082-20.104,0.886-34.64,1.132c-10.682,0.182-21.369,0.783-32.058-0.053
				c-4.078-0.318-8.178,0.603-12.282-0.099c-1.542-0.264-2.236-0.667-2.45-2.475c-1.657-13.968-1.745-27.981-1.532-42.01
				c0.044-2.843,2.161-3.271,4.383-3.532c7.056-0.833,14.149-0.698,21.23-0.74c11.068-0.063,22.134-0.014,34.013-0.014
				c10.252-0.411,12.355,0.022,23.404,0.39c11.931,0.393,5.907-0.701,17.806-0.46c12.925,0.267,25.804-1.465,38.725-0.554
				c2.225,0.155,4.455,0.384,6.655,0.745c2.353,0.386,3.667,1.358,1.908,3.925c-0.765,1.118-1.239,2.435-2.306,3.349
				c-5.184,4.454-9.716,9.625-15.222,13.726c-0.688,0.518-1.289,1.172-1.854,1.828C329.849,223.757,329.853,224.434,333.325,227.408
				z"/>
			<g>
				<path fill="#FFFFFF" d="M106.58,180.735c1.949-1.744,3.095-3.901,3.095-6.287c0-5.645-8.425-6.611-12.15-3.214v0.966
					l1.146,10.923c0.86,8.306,0.86,15.329,1.49,22.398c0.458,0.644,1.605,0.689,2.006,0.689c8.999,0,13.526-5.602,13.526-12.165
					C115.693,187.896,113.114,183.995,106.58,180.735z M100.849,172.244c3.038-1.148,5.731-0.229,5.731,2.386
					c0,2.527-1.948,5.187-4.872,5.187L100.849,172.244z M104.23,203.456c-0.344,0-0.688,0-1.032-0.047
					c-0.688-6.883-1.318-13.725-1.318-20.654c7.509,0,10.431,6.197,10.431,11.291C112.312,198.452,110.307,203.456,104.23,203.456z"
					/>
				<path fill="#FFFFFF" d="M130.656,202.997c-2.465,0-4.758,0.642-7.164,0.642h-0.402c-0.688-9.454-0.802-18.955-1.089-28.32
					c-0.057-1.788,0.172-2.889-0.343-4.681c-0.344-1.008-0.803-0.964-1.834-0.964c-0.23,0-0.917,0.045-1.089,0.093
					c-0.402,0.322-0.402,0.459-0.402,0.826v0.323c0.058,0.87,0.745,7.893,0.745,8.765c0,3.122,0.688,26.804,0.746,26.804
					l11.635-1.376c0.803-0.091,1.146-0.506,1.146-1.01C132.604,203.179,131.573,202.997,130.656,202.997z"/>
				<path fill="#FFFFFF" d="M146.018,169.537l-0.459-0.964c-0.343-0.459-1.146-0.689-1.776-0.689c-1.433,0-1.834,1.285-2.121,2.156
					c0,0-0.057,0.093-6.018,33.368c0,0.459,0.516,1.652,1.26,1.652c1.663,0,1.605-1.974,1.72-2.66l0.975-5.19l0.343-0.273h8.484
					l1.433,8.72c0.057,0.322,0.63,0.322,0.974,0.322h0.172c1.088,0,1.318-0.367,1.719-1.237c0-0.048,0.058-0.048,0.058-0.092
					l-0.344-2.986C150.89,190.833,149.343,180.046,146.018,169.537z M140.803,194.092l3.324-21.296l3.841,21.433L140.803,194.092z"
					/>
				<path fill="#FFFFFF" d="M165.336,201.161c-5.044-3.35-5.503-7.527-5.503-13.402c0-5.187,2.465-14.414,8.024-14.414h0.344
					c0.803,0,4.127,0.322,4.127-1.285c0-1.056-1.49-1.697-2.695-1.697c-7.45,0-11.004,6.378-12.38,11.154
					c-2.636,8.949-0.631,22.765,12.38,22.995c1.834,0,3.955-0.551,2.809-2.159C171.583,201.116,167.801,202.813,165.336,201.161z"/>
				<path fill="#FFFFFF" d="M182.646,188.585l9.285-17.167c0.802-2.019-0.745-2.296-1.547-2.296c-2.063,0-2.121,1.837-2.579,3.122
					c-1.376,3.856-4.241,8.72-7.681,14.229l-0.572-15.329c-0.058-1.195-0.574-1.744-1.72-1.744c-0.917,0-1.605,0.549-1.605,1.33
					l1.605,35.48c0.114,1.836,2.521,1.329,3.152,0.091c0-5.782-0.745-13.31-0.745-15.42v-0.37
					c3.897,4.775,6.992,10.834,10.203,15.469c0.458,0.596,0.745,0.596,1.489,0.596c1.491,0,2.006-1.238,1.433-2.063L182.646,188.585
					z"/>
			</g>
		</g>
	</g>
	<g>
		<path fill-rule="evenodd" clip-rule="evenodd" fill="#6ECEF5" d="M171.208,102.583c-0.007-0.155,0.085-0.29,0.336-0.378
			c0.244-0.086,0.527-0.11,0.783-0.137c0.657-0.071,1.324-0.053,1.982-0.006c2.91,0.206,5.805,0.973,8.559,1.902
			c2.826,0.954,5.689,2.138,8.122,3.889c1.379,0.992,3.386,2.727,2.654,4.664c-0.167,0.44-0.491,0.774-0.92,0.962
			c-0.845,0.371-1.882,0.2-2.746,0.003c-1.325-0.3-2.601-0.817-3.834-1.375c-3.005-1.357-5.86-3.054-8.642-4.817
			c-1.234-0.783-2.454-1.586-3.66-2.41c-0.473-0.324-0.944-0.649-1.413-0.98C172.168,103.719,171.23,103.053,171.208,102.583z"/>
		<path fill-rule="evenodd" clip-rule="evenodd" fill="#0D73BB" d="M172.564,99.109c-0.008-0.03-0.004-0.063,0.015-0.101
			c0.153-0.296,0.996-0.47,1.284-0.559c0.379-0.116,0.768-0.199,1.146-0.316c1.254-0.391,2.524-0.727,3.802-1.027
			c3.362-0.789,6.829-1.383,10.29-1.417c2.304-0.023,5.743,0.062,7.213,2.197c0.299,0.434-0.319,1.462-0.602,1.768
			c-0.51,0.553-1.237,0.869-1.943,1.085c-2.556,0.784-5.437,0.61-8.066,0.417c-2.965-0.219-5.914-0.649-8.844-1.15
			c-1.054-0.18-2.106-0.373-3.158-0.563C173.424,99.392,172.628,99.343,172.564,99.109z"/>
		<path fill-rule="evenodd" clip-rule="evenodd" fill="#605DA8" d="M194.485,81.978c0.16,0.287,0.246,0.664,0.283,0.93
			c0.069,0.483,0.032,0.973-0.094,1.443c-0.286,1.068-0.99,1.984-1.758,2.756c-2.072,2.081-4.828,3.488-7.483,4.671
			c-2.694,1.201-5.501,2.193-8.359,2.925c-1.1,0.283-2.281,0.615-3.427,0.612c0.082-0.625,0.655-1.252,1.026-1.726
			c0.764-0.972,1.618-1.874,2.491-2.749c2.289-2.289,4.785-4.406,7.466-6.222c2.188-1.481,4.854-3.177,7.583-3.273
			c0.527-0.02,1.548,0,1.999,0.31C194.321,81.731,194.412,81.845,194.485,81.978z"/>
	</g>
	<g>
		<path fill-rule="evenodd" clip-rule="evenodd" fill="#FBED22" d="M103.197,239.883c-0.013-0.154-0.123-0.275-0.383-0.33
			c-0.253-0.053-0.537-0.039-0.794-0.032c-0.661,0.018-1.319,0.123-1.965,0.257c-2.857,0.588-5.625,1.73-8.233,3.016
			c-2.675,1.318-5.356,2.87-7.537,4.927c-1.236,1.166-2.997,3.15-2.015,4.975c0.224,0.413,0.588,0.701,1.039,0.832
			c0.886,0.255,1.892-0.051,2.722-0.36c1.274-0.471,2.47-1.152,3.62-1.868c2.8-1.741,5.406-3.801,7.93-5.917
			c1.12-0.938,2.223-1.896,3.31-2.872c0.426-0.383,0.851-0.768,1.271-1.157C102.395,241.136,103.237,240.352,103.197,239.883z"/>
		<path fill-rule="evenodd" clip-rule="evenodd" fill="#F16724" d="M101.394,236.619c0.004-0.031-0.004-0.063-0.028-0.098
			c-0.19-0.273-1.049-0.334-1.346-0.385c-0.391-0.064-0.787-0.096-1.178-0.162c-1.294-0.222-2.598-0.387-3.904-0.516
			c-3.438-0.338-6.952-0.47-10.387-0.046c-2.287,0.282-5.685,0.82-6.859,3.131c-0.239,0.47,0.509,1.407,0.83,1.673
			c0.578,0.48,1.341,0.698,2.069,0.818c2.637,0.44,5.47-0.112,8.051-0.651c2.91-0.609,5.776-1.426,8.614-2.309
			c1.021-0.317,2.038-0.647,3.056-0.975C100.578,237.014,101.361,236.86,101.394,236.619z"/>
		<path fill-rule="evenodd" clip-rule="evenodd" fill="#ED2024" d="M77.402,222.533c-0.121,0.306-0.156,0.691-0.158,0.959
			c-0.004,0.488,0.097,0.97,0.284,1.419c0.424,1.021,1.243,1.836,2.107,2.499c2.329,1.79,5.247,2.82,8.034,3.643
			c2.83,0.835,5.743,1.448,8.672,1.797c1.128,0.135,2.342,0.307,3.478,0.153c-0.164-0.609-0.814-1.155-1.246-1.575
			c-0.885-0.862-1.852-1.645-2.833-2.396c-2.571-1.967-5.325-3.734-8.222-5.18c-2.364-1.18-5.231-2.509-7.95-2.243
			c-0.524,0.05-1.535,0.204-1.94,0.571C77.532,222.268,77.457,222.393,77.402,222.533z"/>
	</g>
	<g>
		<path fill="#605DA8" d="M380.911,335.207l-0.147-1.918c-0.071-0.796-0.055-1.574-0.178-2.38c-0.127-0.833-0.212-1.666-0.283-2.499
			c-0.111-0.821-0.255-1.627-0.388-2.44c-0.21-1.241-0.462-2.487-0.706-3.723c-0.158-0.978-0.507-1.818-0.503-2.714
			c-0.046,0.092,0.015,0.299-0.083,0.339c-0.126-0.152-0.191-0.361-0.25-0.555c-0.348-1.151-0.649-2.32-1.036-3.46
			c-0.533-1.333-0.98-2.666-1.6-3.972c-0.406-0.783-0.658-1.691-1.082-2.452c-0.511-1.032-1.084-2.024-1.636-3.021
			c-0.673-1.363-1.602-2.547-2.421-3.806c-1.043-1.691-2.386-3.146-3.605-4.7c-0.79-1.104-1.794-2.039-2.779-2.975
			c-0.607-0.537-1.104-1.201-1.713-1.738c-0.968-0.826-1.982-1.582-2.925-2.442c-0.915-0.843-2.035-1.463-3.061-2.169
			c-1.108-0.791-2.307-1.457-3.497-2.142c-0.951-0.542-1.888-1.108-2.915-1.531l-2.075-0.926c-0.685-0.318-1.378-0.624-2.099-0.893
			c-0.789-0.318-1.605-0.547-2.404-0.833c-1.152-0.458-2.402-0.699-3.597-1.042l-1.804-0.487l-1.84-0.416l-2.544-0.604
			c-0.866-0.156-1.73-0.32-2.592-0.505c-1.635-0.391-3.335-0.515-5.006-0.775c-1.667-0.284-3.383-0.273-5.063-0.548
			c-0.521-0.087-1.043-0.034-1.562-0.069c-1.352-0.052-2.691-0.206-4.051-0.201l-2.783-0.04l-2.79,0.05
			c-1.645,0-3.276,0.222-4.92,0.289c-1.226,0.116-2.459,0.233-3.691,0.351c-2.297,0.248-4.581,0.566-6.846,0.92
			c-1.464,0.216-2.858,0.562-4.185,0.987l-0.096,0.064c-1.158,0.696-1.443,1.388-0.983,1.975c0.475,0.607,1.402,0.778,2.943,0.657
			c1.312-0.112,2.637-0.239,3.966-0.391c2.07-0.204,4.144-0.421,6.223-0.587l2.913-0.227l2.915-0.122
			c2.522-0.029,5.033,0.058,7.532,0.174c0.785,0.013,1.553,0.093,2.329,0.138l2.495,0.187l2.468,0.275
			c1.544,0.132,3.04,0.4,4.555,0.632c1.72,0.254,3.356,0.746,5.05,1.035c0.737,0.169,1.429,0.442,2.167,0.597
			c0.868,0.204,1.781,0.378,2.598,0.716c1.017,0.403,2.063,0.689,3.09,1.05c1.115,0.41,2.184,0.893,3.276,1.343
			c1.007,0.388,1.93,0.9,2.884,1.355c0.898,0.463,1.855,0.858,2.675,1.42c1.168,0.762,2.472,1.326,3.577,2.154
			c0.813,0.604,1.642,1.171,2.487,1.729c1.005,0.684,1.853,1.552,2.804,2.298c0.942,0.696,1.71,1.572,2.517,2.405
			c0.771,0.815,1.591,1.586,2.276,2.481l2.107,2.55c0.664,0.994,1.329,1.997,2.026,2.957c0.655,0.82,1.15,1.769,1.663,2.701
			l1.568,2.785c0.392,0.878,0.703,1.798,1.134,2.636c0.249,0.485,0.466,0.982,0.682,1.48c0.23,0.489,0.426,1,0.603,1.529
			c0.291,0.776,0.605,1.582,0.838,2.388c0.321,1.187,0.879,2.261,1.151,3.481c0.283,1.02,0.568,2.047,0.852,3.069
			c0.209,0.771,0.462,1.527,0.624,2.323c0.149,0.801,0.303,1.599,0.474,2.388c0.486,2.203,0.97,4.401,1.462,6.635
			c0.442,1.801,1.134,3.301,1.774,5.002c-0.002-1.077,0.401-1.727,0.571-2.637c0.222-1.184,0.353-2.42,0.425-3.688
			C380.893,336.492,380.947,335.841,380.911,335.207z"/>
		<path fill="#FBED22" d="M391.976,325.172c-0.211-1.112-0.427-2.243-0.703-3.373c-0.184-0.753-0.393-1.566-0.446-2.348
			c-0.213-1.229-0.627-2.42-0.977-3.623l-1.079-3.611c-0.275-1.077-0.759-2.092-1.171-3.129l-1.268-3.104
			c-0.465-1.326-1.192-2.577-1.872-3.841c-0.583-1.049-1.163-2.126-1.703-3.203c-0.725-1.211-1.575-2.34-2.333-3.531
			c-0.409-0.637-0.836-1.266-1.271-1.891l-1.464-1.756c-0.951-1.124-1.845-2.298-2.843-3.377c-0.668-0.701-1.343-1.41-2.004-2.106
			c-1.608-1.858-3.542-3.373-5.408-4.944c-0.851-0.761-1.811-1.37-2.734-2.032l-2.792-1.952l-2.925-1.719
			c-0.982-0.562-1.941-1.169-2.967-1.629c-2.145-1.047-4.267-2.153-6.512-2.942c-1.194-0.438-2.389-0.925-3.595-1.345
			c-0.942-0.358-1.916-0.587-2.875-0.908c-1.087-0.391-2.209-0.637-3.322-0.913c-1.117-0.261-2.226-0.56-3.344-0.791
			c-2.112-0.39-4.207-0.92-6.329-1.19c-1.111-0.167-2.229-0.326-3.334-0.445c-2.465-0.185-4.922-0.478-7.38-0.555
			c-2.168-0.14-4.341-0.202-6.503-0.189c-1.148,0.05-2.322,0.008-3.482-0.018c-0.982-0.034-1.947,0.085-2.923,0.104
			c-1.896,0.038-3.778,0.279-5.656,0.458c-2.056,0.244-4.133,0.41-6.168,0.771c-1.384,0.254-2.802,0.416-4.153,0.784
			c-0.416,0.109-0.861,0.182-1.292,0.271c-0.004,0-0.008,0.003-0.011,0.003c-1.182,0.331-2.064,0.838-2.912,1.357
			c-0.949,0.587-1.35,1.224-0.92,1.783c0.418,0.555,1.304,0.791,2.579,0.773h1.612c1.684-0.574,3.479-0.967,5.298-1.32
			c2.451-0.458,4.955-0.687,7.455-0.853c2.526-0.185,5.07-0.192,7.601-0.231c1.743-0.032,3.486,0.018,5.229,0.047
			c1.716-0.015,3.435,0.146,5.152,0.264c1.898,0.095,3.781,0.365,5.672,0.563c1.88,0.28,3.769,0.52,5.638,0.902
			c0.823,0.191,1.664,0.355,2.495,0.518c1.613,0.275,3.196,0.684,4.788,1.066c1.603,0.349,3.166,0.841,4.731,1.336
			c1.717,0.487,3.354,1.221,5.013,1.888c0.761,0.326,1.565,0.54,2.308,0.925l4.11,1.97l3.989,2.211
			c1.731,0.965,3.302,2.194,4.971,3.269c1.577,1.196,3.065,2.534,4.587,3.81c1.852,1.883,3.89,3.604,5.521,5.701l1.893,2.263
			c0.627,0.759,1.132,1.606,1.706,2.405c0.669,0.97,1.364,1.927,2.01,2.912c0.617,1.127,1.273,2.229,1.869,3.37
			c0.44,0.885,0.977,1.733,1.381,2.641c0.584,1.358,1.148,2.724,1.701,4.087c0.262,0.688,0.58,1.355,0.79,2.059l0.632,2.112
			c0.479,1.729,1.078,3.419,1.424,5.168c0.391,1.949,0.702,3.899,0.997,5.832c0.223,1.687,0.34,3.409,0.429,5.086l0,0l0.542,1.798
			c0.166,0.55,0.353,1.102,0.545,1.624c0.165,0.522,0.356,1.013,0.59,1.431c0.525,0.938,0.671,0.979,1.112,0.129
			c0.217-0.418,0.363-0.992,0.475-1.606c0.209-1.46,0.22-3.002,0.241-4.602C392.378,328.248,392.249,326.696,391.976,325.172z"/>
		<path fill="#F16724" d="M395.919,326.796c-0.019-0.378-0.106-0.833,0.069-1.058c-0.286-1.137-0.302-2.181-0.472-3.285
			c-0.232-1.325-0.362-2.641-0.603-3.984c-0.174-1.174-0.387-2.335-0.717-3.496c-0.597-2.047-0.774-4.087-1.684-6.188
			c-0.655-1.423-1.226-2.981-1.844-4.474c-0.659-1.776-1.698-3.438-2.64-5.119c-0.791-1.35-1.528-2.748-2.459-4.046
			c-0.847-1.271-1.735-2.52-2.605-3.775c-1.216-1.624-2.578-3.148-3.872-4.713c-0.478-0.602-1.006-1.159-1.559-1.696l-1.641-1.616
			l-2.11-2.01l-2.255-1.841c-1.365-1.124-2.769-2.188-4.221-3.166c-1.538-1.066-3.049-2.188-4.683-3.059
			c-1.458-0.821-2.911-1.714-4.411-2.44c-1.4-0.658-2.821-1.283-4.22-1.967c-1.51-0.684-3.096-1.177-4.645-1.714
			c-1.249-0.46-2.549-0.758-3.786-1.176c-2.511-0.878-5.074-1.403-7.612-2.1c-1.215-0.296-2.442-0.524-3.668-0.769l-1.84-0.346
			l-1.845-0.251c-1.085-0.154-2.173-0.309-3.263-0.463c-1.09-0.119-2.18-0.248-3.27-0.397c-1.599-0.244-3.215-0.281-4.819-0.36
			c-0.389-0.018-0.742-0.145-1.124-0.107c-1.129,0.13-2.286,0.027-3.44-0.057c-1.509,0.027-3.034-0.016-4.54,0.074
			c-1.317,0.064-2.641,0.129-3.962,0.194c-1.183,0.057-2.365,0.137-3.545,0.241c-1.29,0.094-2.58,0.193-3.863,0.343
			c-1.231,0.122-2.456,0.291-3.684,0.455c-1.792,0.224-3.581,0.492-5.342,0.881c-1.012,0.214-1.807,0.594-2.409,1.06
			c-1.38,1.074-0.938,2.441,1.796,2.726c0.003-0.003,0.007-0.003,0.011-0.003c0.431-0.089,0.876-0.161,1.292-0.271
			c1.352-0.368,2.769-0.53,4.153-0.784c2.035-0.36,4.112-0.526,6.168-0.771c1.878-0.179,3.76-0.42,5.656-0.458
			c0.977-0.02,1.941-0.139,2.923-0.104c1.16,0.025,2.334,0.067,3.482,0.018c2.163-0.013,4.335,0.05,6.503,0.189
			c2.458,0.077,4.915,0.37,7.38,0.555c1.105,0.119,2.223,0.278,3.334,0.445c2.123,0.271,4.217,0.801,6.329,1.19
			c1.119,0.231,2.228,0.53,3.344,0.791c1.113,0.276,2.235,0.522,3.322,0.913c0.958,0.321,1.933,0.55,2.875,0.908
			c1.206,0.42,2.401,0.907,3.595,1.345c2.245,0.789,4.367,1.896,6.512,2.942c1.026,0.46,1.985,1.067,2.967,1.629l2.925,1.719
			l2.792,1.952c0.924,0.662,1.884,1.271,2.734,2.032c1.866,1.571,3.799,3.086,5.408,4.944c0.661,0.696,1.336,1.405,2.004,2.106
			c0.998,1.079,1.892,2.253,2.843,3.377l1.464,1.756c0.435,0.625,0.862,1.254,1.271,1.891c0.759,1.191,1.609,2.32,2.333,3.531
			c0.54,1.077,1.119,2.154,1.703,3.203c0.68,1.264,1.407,2.515,1.872,3.841l1.268,3.104c0.412,1.037,0.896,2.052,1.171,3.129
			l1.079,3.611c0.35,1.203,0.764,2.395,0.977,3.623l1.042,3.283l0.966,2.885c0.256,0.973,0.496,1.95,0.727,2.935
			c0.413,1.826,0.849,3.664,1.218,5.504c0.284,1.841,0.578,3.684,0.914,5.514c0.026,0.14,0.025,0.329,0.147,0.391l0.077-1.214
			c0.141-1.927,0.308-3.899,0.277-5.898L395.919,326.796z"/>
		<path fill="#8DC440" d="M388.454,325.923c-0.294-1.933-0.605-3.883-0.997-5.832c-0.347-1.749-0.946-3.439-1.424-5.168
			l-0.632-2.112c-0.21-0.703-0.527-1.37-0.79-2.059c-0.553-1.363-1.117-2.729-1.701-4.087c-0.405-0.907-0.941-1.756-1.381-2.641
			c-0.595-1.142-1.252-2.243-1.869-3.37c-0.646-0.985-1.341-1.942-2.01-2.912c-0.574-0.799-1.079-1.646-1.706-2.405l-1.893-2.263
			c-1.631-2.097-3.668-3.818-5.521-5.701c-1.522-1.275-3.01-2.613-4.587-3.81c-1.668-1.074-3.24-2.304-4.971-3.269l-3.989-2.211
			l-4.11-1.97c-0.743-0.385-1.547-0.599-2.308-0.925c-1.658-0.667-3.296-1.4-5.013-1.888c-1.566-0.495-3.129-0.987-4.731-1.336
			c-1.592-0.383-3.175-0.791-4.788-1.066c-0.831-0.162-1.671-0.326-2.495-0.518c-1.87-0.383-3.758-0.622-5.638-0.902
			c-1.891-0.197-3.774-0.468-5.672-0.563c-1.717-0.117-3.436-0.278-5.152-0.264c-1.743-0.029-3.487-0.079-5.229-0.047
			c-2.531,0.039-5.075,0.047-7.601,0.231c-2.5,0.166-5.003,0.395-7.455,0.853c-1.82,0.354-3.615,0.746-5.298,1.32l-0.191,0.143
			c-1.079,0.693-1.365,1.435-0.785,1.937c0.651,0.56,1.918,0.736,3.446,0.527c0.316-0.05,0.639-0.06,0.96-0.082
			c2.21-0.418,4.457-0.743,6.724-0.928c2.808-0.266,5.626-0.452,8.447-0.494c2.197,0.005,4.395-0.045,6.584,0.042
			c1.435,0.022,2.867,0.104,4.295,0.224c1.432,0.087,2.86,0.196,4.285,0.333l2.6,0.239l2.586,0.408
			c1.526,0.229,3.047,0.47,4.56,0.768c1.745,0.294,3.448,0.746,5.159,1.177c1.63,0.363,3.192,0.931,4.786,1.407
			c1.583,0.44,3.082,1.093,4.621,1.652l1.324,0.502l1.283,0.584l2.563,1.194c1.59,0.759,3.062,1.73,4.599,2.589
			c1.557,0.965,3.016,2.074,4.536,3.099l4.022,3.293c1.322,1.231,2.607,2.505,3.909,3.766c1.148,1.301,2.24,2.656,3.361,3.984
			c1.158,1.52,2.177,3.144,3.28,4.705c0.958,1.515,1.749,3.134,2.681,4.666c0.499,0.778,0.883,1.619,1.248,2.47l1.125,2.534
			l0.737,1.639c0.231,0.555,0.397,1.135,0.586,1.706c0.321,1,0.644,2.002,0.966,3.002c0.211,0.691,0.439,1.376,0.615,2.074
			c0.14,0.712,0.266,1.423,0.371,2.137c0.146,1.092,0.291,2.176,0.436,3.266c0.561,1.566,0.691,3.263,1.159,4.852
			c0.398,1.408,0.795,2.793,1.541,3.766c0.241,0.316,0.38,0.336,0.535-0.037c0.352-0.854,0.406-1.978,0.434-3.144l0,0
			C388.794,329.332,388.677,327.609,388.454,325.923z"/>
		<path fill="#6ECEF5" d="M385.214,325.572c-0.146-1.09-0.291-2.174-0.436-3.266c-0.104-0.714-0.23-1.425-0.371-2.137
			c-0.176-0.698-0.404-1.383-0.615-2.074c-0.322-1-0.645-2.002-0.966-3.002c-0.189-0.571-0.354-1.151-0.586-1.706l-0.737-1.639
			l-1.125-2.534c-0.365-0.851-0.749-1.691-1.248-2.47c-0.932-1.532-1.722-3.151-2.681-4.666c-1.103-1.562-2.122-3.186-3.28-4.705
			c-1.121-1.328-2.212-2.684-3.361-3.984c-1.302-1.261-2.587-2.534-3.909-3.766l-4.022-3.293c-1.52-1.024-2.979-2.134-4.536-3.099
			c-1.537-0.858-3.009-1.83-4.599-2.589l-2.563-1.194l-1.283-0.584l-1.324-0.502c-1.54-0.56-3.038-1.212-4.621-1.652
			c-1.594-0.477-3.156-1.044-4.786-1.407c-1.71-0.431-3.414-0.883-5.159-1.177c-1.513-0.298-3.034-0.539-4.56-0.768l-2.586-0.408
			l-2.6-0.239c-1.425-0.137-2.854-0.246-4.285-0.333c-1.428-0.119-2.86-0.201-4.295-0.224c-2.19-0.087-4.387-0.037-6.584-0.042
			c-2.821,0.042-5.639,0.229-8.447,0.494c-2.267,0.185-4.513,0.51-6.724,0.928c-0.316,0.137-0.698,0.18-1.051,0.269
			c-1.208,0.289-2.411,0.585-3.439,1.09c-1.141,0.572-1.409,1.46-0.567,1.878c0.439,0.219,1.028,0.273,1.691,0.291
			c0.3,0.007,0.693-0.058,0.786,0.159c1.509-0.394,3.044-0.752,4.593-1.085c1.535-0.311,3.115-0.51,4.686-0.693
			c1.69-0.231,3.392-0.368,5.097-0.521c1.654-0.087,3.322-0.181,4.974-0.229c1.637-0.069,3.276-0.05,4.908,0.02
			c1.54,0.025,3.074,0.145,4.602,0.286c1.169,0.082,2.332,0.189,3.487,0.331c1.155,0.142,2.327,0.212,3.472,0.398
			c1.571,0.256,3.169,0.428,4.722,0.761c1.506,0.325,3.055,0.522,4.535,0.94c1.62,0.442,3.277,0.803,4.853,1.362
			c1.45,0.492,2.951,0.868,4.354,1.465c1.501,0.604,3.06,1.109,4.497,1.843c1.476,0.712,3.011,1.326,4.398,2.191
			c1.319,0.788,2.706,1.489,3.923,2.425l1.878,1.333l0.941,0.667l0.88,0.735l2.821,2.355c0.882,0.846,1.71,1.751,2.539,2.649
			c1.073,1.079,2.003,2.3,2.95,3.496c0.787,0.992,1.59,1.975,2.195,3.094l1.921,3.146c0.581,1.084,1.093,2.214,1.62,3.32
			c1.088,2.087,1.757,4.402,2.474,6.608c0.026,0.084,0.068,0.171,0.101,0.256c0.152-0.296,0.251,0.191,0.291,0.273
			c0.343,0.667,0.517,1.42,0.77,2.126c0.709,2.256,1.531,4.445,2.156,6.758c0.313,1,0.657,1.957,1.046,2.872
			c0.195,0.458,0.401,0.905,0.62,1.346c0.181,0.45,0.376,0.894,0.586,1.328c0.395,0.815,0.955,1.151,1.248,2.007
			c0.299-0.761,0.5-1.624,0.633-2.559c0.062-0.468,0.127-0.955,0.142-1.45C385.256,326.589,385.24,326.087,385.214,325.572z"/>
		<path fill="#ED2024" d="M399.309,323.525c0.084-2.04-0.585-4.278-1.001-6.432c-0.133-0.806-0.373-1.606-0.639-2.407l-0.782-2.403
			c-0.505-1.484-0.935-2.981-1.542-4.443c-0.555-1.296-1.159-2.577-1.679-3.875c-0.297-0.739-0.613-1.473-0.938-2.199
			c-0.331-0.724-0.762-1.412-1.138-2.116c-1.361-2.439-2.625-4.924-4.305-7.205c-0.944-1.32-1.758-2.729-2.825-3.972
			c-0.833-0.978-1.674-1.979-2.47-2.984c-0.497-0.612-0.985-1.231-1.524-1.801l-1.674-1.656c-1.098-1.067-2.126-2.229-3.326-3.206
			c-0.849-0.661-1.718-1.385-2.561-2.106l-1.759-1.497c-0.595-0.485-1.238-0.897-1.867-1.325l-3.067-2.085
			c-1.016-0.701-2.104-1.266-3.173-1.865c-1.022-0.542-2.021-1.146-3.046-1.686l-3.109-1.527c-1.98-1.022-4.048-1.746-6.056-2.624
			c-1.046-0.475-2.114-0.851-3.187-1.203l-3.213-1.08c-1.238-0.396-2.494-0.688-3.746-1.017c-1.253-0.329-2.509-0.635-3.765-0.86
			l-3.046-0.625c-1.948-0.341-3.896-0.6-5.841-0.92l-5.405-0.664c-1.91-0.137-3.824-0.304-5.729-0.378
			c-1.68-0.045-3.367-0.177-5.041-0.149l-3.473,0.04l-3.458,0.156c-2.642,0.145-5.266,0.368-7.824,0.828
			c-1.35,0.244-2.461,0.943-2.41,1.485c0.055,0.6,1.27,1.069,2.66,1.079c2.315,0.01,4.648-0.005,6.981-0.042
			c3.392-0.003,6.79,0.005,10.192,0.214c1.038-0.018,2.067,0.045,3.096,0.159c0.168,0.018,0.337,0.024,0.505,0.047
			c0.382-0.037,0.735,0.09,1.124,0.107c1.604,0.079,3.22,0.116,4.819,0.36c1.09,0.149,2.18,0.278,3.27,0.397
			c1.09,0.154,2.178,0.309,3.263,0.463l1.845,0.251l1.84,0.346c1.226,0.244,2.453,0.473,3.668,0.769
			c2.538,0.696,5.101,1.222,7.612,2.1c1.236,0.418,2.537,0.716,3.786,1.176c1.548,0.537,3.134,1.03,4.645,1.714
			c1.399,0.684,2.82,1.309,4.22,1.967c1.5,0.727,2.953,1.619,4.411,2.44c1.633,0.87,3.145,1.992,4.683,3.059
			c1.453,0.978,2.856,2.042,4.221,3.166l2.255,1.841l2.11,2.01l1.641,1.616c0.553,0.537,1.082,1.095,1.559,1.696
			c1.294,1.564,2.656,3.089,3.872,4.713c0.871,1.256,1.758,2.505,2.605,3.775c0.931,1.298,1.668,2.696,2.459,4.046
			c0.941,1.682,1.981,3.343,2.64,5.119c0.618,1.492,1.188,3.051,1.844,4.474c0.91,2.102,1.087,4.142,1.684,6.188
			c0.33,1.161,0.543,2.322,0.717,3.496c0.241,1.344,0.371,2.659,0.603,3.984c0.17,1.104,0.187,2.148,0.472,3.285
			c0.184,0.373,0.331,0.813,0.55,1.135c1.407,2.076,2.93,0.92,2.851-2.36C399.385,324.185,399.291,323.813,399.309,323.525z"/>
		<path fill="#0D73BB" d="M378.357,316.964c-0.174-0.867-0.334-1.763-0.591-2.586c-0.033-0.085-0.075-0.172-0.101-0.256
			c-0.717-2.206-1.386-4.521-2.474-6.608c-0.527-1.106-1.039-2.236-1.62-3.32l-1.921-3.146c-0.604-1.119-1.408-2.102-2.195-3.094
			c-0.947-1.196-1.877-2.417-2.95-3.496c-0.829-0.898-1.657-1.804-2.539-2.649l-2.821-2.355l-0.88-0.735l-0.941-0.667l-1.878-1.333
			c-1.217-0.936-2.604-1.637-3.923-2.425c-1.387-0.865-2.922-1.479-4.398-2.191c-1.438-0.733-2.996-1.238-4.497-1.843
			c-1.403-0.597-2.905-0.973-4.354-1.465c-1.576-0.56-3.233-0.92-4.853-1.362c-1.48-0.418-3.029-0.615-4.535-0.94
			c-1.553-0.333-3.151-0.505-4.722-0.761c-1.145-0.187-2.317-0.257-3.472-0.398c-1.156-0.142-2.318-0.249-3.487-0.331
			c-1.528-0.142-3.062-0.261-4.602-0.286c-1.632-0.069-3.271-0.089-4.908-0.02c-1.652,0.048-3.319,0.142-4.974,0.229
			c-1.705,0.152-3.406,0.289-5.097,0.521c-1.571,0.184-3.151,0.383-4.686,0.693c-1.548,0.333-3.083,0.691-4.593,1.085
			c-2.215,0.741-2.551,2.552-0.093,2.944c1.327-0.426,2.721-0.771,4.185-0.987c2.266-0.354,4.549-0.672,6.846-0.92
			c1.232-0.117,2.465-0.234,3.691-0.351c1.644-0.067,3.275-0.289,4.92-0.289l2.79-0.05l2.783,0.04c1.36-0.005,2.7,0.149,4.051,0.201
			c0.518,0.035,1.04-0.018,1.562,0.069c1.68,0.274,3.396,0.264,5.063,0.548c1.67,0.261,3.371,0.385,5.006,0.775
			c0.861,0.185,1.726,0.349,2.592,0.505l2.544,0.604l1.84,0.416l1.804,0.487c1.195,0.343,2.445,0.584,3.597,1.042
			c0.799,0.286,1.615,0.515,2.404,0.833c0.721,0.269,1.415,0.574,2.099,0.893l2.075,0.926c1.027,0.423,1.964,0.989,2.915,1.531
			c1.19,0.685,2.388,1.351,3.497,2.142c1.026,0.706,2.146,1.326,3.061,2.169c0.942,0.86,1.957,1.616,2.925,2.442
			c0.608,0.537,1.105,1.201,1.713,1.738c0.985,0.936,1.99,1.87,2.779,2.975c1.219,1.555,2.562,3.009,3.605,4.7
			c0.819,1.259,1.748,2.442,2.421,3.806c0.552,0.997,1.125,1.989,1.636,3.021c0.423,0.761,0.676,1.669,1.082,2.452
			c0.62,1.306,1.067,2.639,1.6,3.972c0.387,1.14,0.688,2.309,1.036,3.46c0.059,0.193,0.124,0.402,0.25,0.555
			c0.098-0.04,0.037-0.247,0.083-0.339c0-0.002,0-0.002,0-0.005C378.667,318.698,378.525,317.835,378.357,316.964z"/>
		<path fill="#FAC1B8" d="M315.708,261.103c0.499,0.055,0.986,0.055,1.471,0.042c-0.889-0.029-1.774-0.074-2.657-0.171
			c0.084,0.045,0.198,0.082,0.161,0.149C315,261.033,315.364,261.068,315.708,261.103z"/>
		<path fill="#FAC1B8" d="M318.123,261.18c-0.316-0.008-0.629-0.022-0.944-0.035c-0.485,0.013-0.973,0.013-1.471-0.042
			c-0.344-0.034-0.708-0.069-1.025,0.021C315.837,261.207,316.994,261.31,318.123,261.18z"/>
		<path fill="#FAC1B8" d="M317.618,261.133c-1.028-0.114-2.058-0.177-3.096-0.159c0.883,0.097,1.769,0.142,2.657,0.171
			C317.325,261.143,317.471,261.138,317.618,261.133z"/>
		<path fill="#FAC1B8" d="M318.123,261.18c-0.168-0.022-0.337-0.029-0.505-0.047c-0.146,0.005-0.292,0.01-0.438,0.012
			C317.494,261.157,317.807,261.172,318.123,261.18z"/>
	</g>
</g>
</svg>
