<?xml version="1.0" encoding="utf-8"?>
<!-- Generator: Adobe Illustrator 21.1.0, SVG Export Plug-In . SVG Version: 6.00 Build 0)  -->
<svg version="1.1" id="Calque_1" xmlns="http://www.w3.org/2000/svg" xmlns:xlink="http://www.w3.org/1999/xlink" x="0px" y="0px"
	 viewBox="0 0 432 432" style="enable-background:new 0 0 432 432;" xml:space="preserve">
<style type="text/css">
	.st0{fill:#1A1A1A;}
	.st1{fill:#F486A1;}
	.st2{fill:#CCCCCC;}
	.st3{fill:#3F3531;}
	.st4{fill:#BC4662;}
	.st5{fill:#6BAE3D;}
	.st6{fill:#F8982A;}
	.st7{fill:#BA61BB;}
	.st8{fill:#16BACB;}
	.st9{fill:#C4DA6D;}
	.st10{fill:#5C62B8;}
	.st11{fill:#8F99F2;}
	.st12{fill:#ED5F7D;}
	.st13{fill:#5A9100;}
	.st14{fill:#E2B8E0;}
	.st15{fill:#F8BE74;}
	.st16{fill:#43934A;}
	.st17{fill:#F55D00;}
	.st18{fill:#456F01;}
	.st19{fill:#333333;}
	.st20{fill:#9BE0ED;}
	.st21{fill:#A67C52;}
	.st22{fill:#42210B;}
	.st23{fill:#999999;}
	.st24{fill:#8F1A53;}
	.st25{fill:#E38BA4;}
	.st26{fill:#4D4D4D;}
	.st27{fill:#DF5376;}
	.st28{fill:#E5445E;}
	.st29{fill:#EDBAC9;}
	.st30{fill:#E7D3D5;}
	.st31{fill:#C1272D;}
	.st32{fill:#BC2A34;}
	.st33{fill:#AB827E;}
	.st34{fill:#75614D;}
	.st35{fill:#4F4A41;}
	.st36{fill:#7E7163;}
</style>
<g>
	<path class="st0" d="M120.1,246.5c0.2,0.3,0.3,0.4,0.4,0.6c4.7,4.9,7.6,10.9,8.9,17.5c1.8,8.7,1.5,17.3-0.7,25.9
		c-1.4,5.3-4.1,9.8-8,13.6c-3.8,3.8-8.1,6.8-13.3,8.6c-4,1.4-8.2,1.8-12.4,1.4c-5.5-0.6-10.9-1.8-16-3.9
		c-9.4-3.8-16.3-10.3-20.8-19.3c-1.9-3.8-2.8-7.8-3.3-12c-0.3-2.6-0.4-5.2-0.2-7.9c0.3-5,1.6-9.8,4.3-14.1
		c5.9-9.9,14.6-15.9,25.8-18.2c4.3-0.9,8.7-1.3,13.1-1.3c4.5,0,8.8,0.9,12.8,2.8c1.1,0.5,1.2,0.5,2.1-0.3c0.3-0.2,0.5-0.4,0.9-0.7
		c-0.3-0.3-0.6-0.6-0.8-0.8c-6.9-6.3-13.6-12.8-20-19.5c-5.3-5.6-10.4-11.4-15.4-17.3c-4.9-5.8-9.7-11.5-14.5-17.3
		c-0.6-0.8-1.2-1.6-1.8-2.4c-0.2-0.2-0.4-0.5-0.7-0.7c-0.9-0.8-1.1-1.7-0.4-2.7c0.5-0.6,1-1.2,1.7-1.6c2-1.2,4-2.4,6-3.5
		c3.5-1.9,7-3.7,10.7-5.2c2.5-1.1,5.1-1.4,7.8-1.2c2.2,0.2,4.5,0.3,6.7,0.4c0.2,0,0.4-0.1,0.6-0.3c-0.2,0-0.3-0.1-0.5-0.1
		c-3-0.3-5.9-1-8.8-1.9c-1.8-0.6-3.5-0.5-5.3-0.1c-1.2,0.3-2.4,0.8-3.5,1.1c-0.1,0.3-0.1,0.5-0.2,0.7c-0.4,1.5-1.7,2.3-3.2,2
		c-1.5-0.3-2.6-1.7-2.4-3.1c0.1-1.2,1.5-2.3,2.8-2.2c1,0.1,1.8,0.4,2.4,1.1c1.3-0.6,2.6-1.1,3.9-1.7c-0.3-0.2-0.6-0.4-0.9-0.7
		c-1.1-1-2.2-2.1-3.4-3.2c-0.4-0.3-0.7-0.6-1.2-0.6c-1.3,0-2.6-1.2-2.8-2.5c-0.2-1.1,0.5-2.3,1.6-2.9c1.2-0.6,2.8-0.2,3.6,0.8
		c0.7,0.9,0.7,1.8,0.3,2.8c-0.1,0.3-0.3,0.5-0.6,0.9c0.2,0.1,0.4,0.3,0.7,0.4c0,0,0,0,0.1,0.1c3.8,3.2,4.4,3.5,9.3,4.7
		c3.3,0.8,6.7,1.6,10,2.4c0.4,0.1,0.7,0.1,1.1-0.2c1.7-1.5,3.6-2.6,5.7-3.6c0.1,0,0.1-0.1,0.3-0.2c-1.1-0.7-2.3-0.9-3.6-0.6
		c-1.6,0.4-3.3,0.9-4.9,1.3c-1.4,0.4-2.9,0.6-4.4,0.3c-1.3-0.2-2.5-0.8-3.4-1.8c-1.1-1.3-1.9-2.7-2.1-4.5c-0.2-2.1,1-3,3.1-2.4
		c1.9,0.6,3.9,1.2,5.8,1.7c1.8,0.5,3.7,0.9,5.5,1.3c-0.4-1-7.6-9-9.1-10.1c-1.7,1.1-3.5,2.1-5.2,3.2c-1.2,0.7-2.4,1.3-3.8,1.5
		c-1.7,0.3-3.1-0.2-4.4-1.3c-0.3-0.3-0.6-0.6-0.8-1c-0.9-1.5-0.2-2.9,1.5-3.3c0.4-0.1,0.8-0.1,1.1-0.1c2.7-0.3,5.3-1,8.1-1.9
		c-2.1-1.4-4.2-2.5-6.7-2.8c-4.1-0.5-7.5,1.1-10.7,3.6c0.2,1.5,0.1,3.1-0.4,4.6c-0.7,2.5-2,4.6-4.1,6.1c-1.6,1.1-3.3,2.2-5,3.2
		c-1.5,0.9-2.7,0.5-3.4-1c-1.5-3-1.9-6.2-0.8-9.5c1-2.9,3.8-4.9,7-5c1.1,0,2.1,0,3.2,0c0.3,0,0.6,0,0.8-0.2c0.7-0.5,1.4-1.1,2.2-1.7
		c-2.5-0.9-4.4-2.6-6.5-4c-0.2-0.1-0.4-0.3-0.6-0.5c-0.6-0.6-0.6-1.4-0.1-2c0.2-0.2,0.4-0.5,0.7-0.6c1.9-1,3.9-1.6,6.1-1.2
		c2.4,0.5,3.9,2.1,4.9,4.2c0.2,0.4,0.4,0.9,0.5,1.3c1.9-0.3,3.7-0.6,5.6-0.9c-0.1-0.1-0.2-0.3-0.3-0.6c-0.9-1.8-1.9-3.5-2.8-5.3
		c-0.6-1.2,0.1-2.2,1.4-2.3c4.1-0.3,7.9,3.5,7.6,7.6c0,0.7-0.1,1.3-0.2,2c0.1,0.1,0.2,0.2,0.3,0.2c3.8,1.7,6.8,4.4,9.5,7.4
		c1.4,1.6,2.7,3.2,4.1,4.9c0.2,0.2,0.3,0.4,0.7,0.7c-0.1-0.4-0.1-0.6-0.2-0.8c-0.5-1.5-1-3-1.5-4.5c-0.1-0.5-0.3-0.7-0.9-0.8
		c-1.6-0.3-3-1.1-4-2.4c-0.6-0.8-1.2-1.6-1.8-2.5c-0.3-0.4-0.4-0.9-0.5-1.4c-0.2-1.4,1-2.2,2.3-1.7c0.3,0.2,0.7,0.4,1,0.6
		c0.4,0.2,0.8,0.4,1.4,0.6c-0.4-1.4-0.8-2.7-1.3-3.9c-0.4,0.1-0.7,0.1-1,0.2c-3.4,0.8-5.8-0.2-7.6-3.2c-0.5-0.9-0.9-1.9-1.2-2.9
		c-0.2-0.5-0.2-1.1-0.1-1.6c0.1-1.2,1.1-1.8,2.2-1.4c0.4,0.1,0.7,0.3,1,0.5c0.7,0.4,1.5,0.7,2.3,1.1c0.2,0.1,0.5,0.2,0.9,0.4
		c-0.2-0.3-0.2-0.5-0.4-0.7c-1-1.3-2-2.6-3.1-3.9c-0.4-0.5-1-0.7-1.6-0.7c-0.9,0.1-1.6-0.2-2.4-0.5c-1.7-0.8-3.1-1.8-4.1-3.4
		c-0.8-1.2-1.5-2.5-2.2-3.8c-0.9-1.7-1.8-3.5-2.7-5.2c-0.4-0.7-0.5-1.4,0-2.1c0.5-0.6,1.2-0.7,1.9-0.5c1.4,0.3,2.8,0.6,4.2,0.9
		c1.5,0.4,3,0.9,4.4,1.7c3.2,2.1,4.9,4.9,4.5,8.8c-0.2,1.9-0.2,1.9,1,3.3c0.9,1.1,1.8,2.2,2.7,3.3c0.1,0.2,0.3,0.3,0.6,0.6
		c0.2-1.1,0.3-2,0.4-2.9c0.2-1.2,0.3-2.5,0.5-3.7c0.2-1.5,1.4-2.1,2.5-1.2c1.9,1.4,3.3,3.2,3.8,5.5c0.4,1.8-0.1,3.5-1,5
		c-0.8,1.2-1.7,2.3-2.6,3.6c0.6,1.6,1.3,3.3,2,5.2c0.5-1.6,1-2.9,1.4-4.2c0.1-0.4,0.3-0.9,0.4-1.3c0.3-0.7,0.7-1.3,1.5-1.4
		c0.9-0.1,1.5,0.4,1.9,1c0.8,1.2,1.3,2.4,1.5,3.8c0.7,4.1-0.4,7.6-3.9,10.2c-0.1,0.1-0.2,0.2-0.4,0.3c0.1,0.3,0.1,0.5,0.2,0.8
		c0.6,1.8,1.1,3.5,1.7,5.3c0.2,0.5,0.4,1,0.7,1.5c1.4,2.2,2.8,4.3,4.3,6.5c0.9,0,1.8,0,2.8,0c0-0.3,0-0.6-0.1-0.9
		c-0.4-2.2-0.9-4.4-1.7-6.6c-0.2-0.6-0.3-1.2-0.4-1.8c-0.1-0.2-0.1-0.5,0-0.8c0.1-0.5,0.3-1,0.9-1.1c0.6-0.2,1,0,1.4,0.4
		c0.3,0.3,0.5,0.7,0.7,1c1,1.8,2.1,3.5,3.1,5.3c0.2,0.3,0.4,0.6,0.7,1c0.1-0.3,0.1-0.4,0.1-0.5c-0.4-3.8,0.4-7.3,1.7-10.8
		c1.2-3-0.7-4.9-3.2-5.3c-0.4-0.1-0.8-0.1-1.1-0.1c-0.6-0.1-1-0.4-1.2-1c-0.2-0.6,0-1.1,0.5-1.4c1-0.6,1.9-1.3,3-1.7
		c1.8-0.7,3.7,0.1,4.8,1.8c0.1,0.2,0.2,0.4,0.4,0.7c0.1-0.2,0.3-0.4,0.3-0.6c0.9-2.3,1.5-4.7,1.7-7.2c0.1-1-0.2-1.3-1.1-1.4
		c-1.8-0.2-3.5-0.4-5.2-0.6c-0.9-0.1-1.6-0.6-2.1-1.3c-0.4-0.5-0.4-1.1-0.1-1.5c0.4-0.5,0.9-0.7,1.4-0.5c1.1,0.3,2.2,0.2,3.2,0.2
		c0.1,0,0.2-0.1,0.5-0.1c-1.7-1.7-3.3-3.5-5.3-4.8c-0.8-0.5-1.6-0.8-2.5-1.1c-1.4-0.5-1.7-1.7-0.7-2.7c1-1.1,2.3-1.5,3.8-1.7
		c0.3,0,0.5,0,0.9-0.1c-0.1-0.4-0.1-0.8-0.2-1.1c-0.2-1.6-0.3-3.2-0.4-4.9c0-0.5,0-1,0.1-1.4c0.3-1.7,1.7-2.4,3.2-1.7
		c1.9,0.9,3.6,2.1,4.9,3.8c0.2,0.2,0.4,0.4,0.6,0.8c0.1-0.2,0.2-0.4,0.3-0.6c0.2-0.7,0.4-1.5,0.7-2.2c0.6-1.4,1.9-1.9,3.2-1
		c0.5,0.3,0.9,0.8,1.2,1.2c1.2,1.6,1.9,3.4,2.2,5.4c0.1,0.4,0.2,0.9,0.3,1.4c0.2-0.2,0.4-0.4,0.6-0.5c1.1-1.2,2.3-2.4,3.4-3.6
		c0.3-0.3,0.5-0.6,0.8-0.8c1.1-0.8,2.3-0.6,3,0.6c0.5,0.9,0.6,1.9,0.7,2.9c0.2,2.9-0.7,5.4-2.7,7.6c-0.2,0.2-0.4,0.5-0.6,0.7
		c0,0,0,0.1,0,0.1c0.2,0.2,0.5,0.4,0.7,0.6c1,0.9,1.6,2.1,1.6,3.5c0,1.3-1,2.1-2.2,1.6c-1.8-0.9-3.6-0.7-5.4-0.2
		c-0.4,0.1-0.7,0.2-1.1,0.3c0,0.4,0.3,0.5,0.6,0.7c0.7,0.6,1.2,1.4,1.3,2.3c0,0.4,0,0.8-0.1,1.1c-0.3,1.1-1.5,2.2-2.9,1
		c-0.9-0.8-2-1.4-3.1-1.8c-0.1,0-0.2-0.1-0.4-0.1c-0.1,0-0.1,0-0.3,0c-0.8,3.3-1.3,6.7-2.7,9.9c0,0,0.1,0.1,0.1,0.1
		c0.5-0.2,0.9-0.3,1.4-0.6c1.4-0.8,3-1.2,4.6-1.3c2.3-0.2,4.6,0.8,5.7,3.2c0.7,1.6,1.4,3.1,1.2,4.9c-0.1,1.4-0.5,2.7-1.2,3.9
		c-0.6,1.1-1.6,1.3-2.6,0.4c-1.6-1.5-3.1-3-4.7-4.5c-1.2-1.2-2.6-1.6-4.2-1.2c-0.6,0.2-1.1,0.5-1.5,1c-1,1.4-1.6,3-2,4.6
		c-0.6,2-0.7,4-0.5,6.1c0,0.3,0.1,0.6,0.3,1c0.5-3,2-5.6,3.2-8.3c0.1-0.2,0.2-0.4,0.3-0.5c0.3-0.4,0.7-0.6,1.2-0.5
		c0.5,0.1,0.9,0.5,0.9,1c0,0.6,0,1.2-0.1,1.7c-0.4,2.6-0.8,5.1-0.6,7.7c0.1,1.1,0.2,2.3,0.3,3.6c0.4,0.1,0.8,0.1,1.1,0.2
		c2.5,0.1,4.9,0.1,7.4,0.2c2.1,0.1,4.3,0.1,6.4,0.2c0.6,0,1.2,0.1,1.9,0.2c-0.1-0.3-0.1-0.5-0.2-0.7c-1-2.1-2.1-4-3.9-5.6
		c-0.2-0.2-0.5-0.4-0.7-0.7c-0.5-0.6-0.5-1.3-0.1-1.9c0.4-0.5,1.1-0.8,1.8-0.5c0.4,0.2,0.8,0.4,1.2,0.7c1.1,1,2.4,1.9,3.7,2.7
		c0.6,0.4,1.1,0.9,1.8,1.5c0-0.4,0-0.6,0-0.9c-0.1-3.5-0.7-7-1.5-10.5c-0.1-0.4-0.2-0.9-0.3-1.3c-0.1-0.8,0.2-1.4,0.8-1.7
		c0.6-0.3,1.3-0.2,1.8,0.4c0.4,0.5,0.8,1.1,1.1,1.6c1.1,2.1,1.8,4.3,2.3,6.6c0.1,0.4,0.2,0.8,0.4,1.2c0.1-0.3,0.2-0.7,0.2-1
		c1.2-5.8,1.8-11.7,1.8-17.7c0-4.1-0.5-8.1-1.2-12.1c-0.1-0.7-0.2-1.3-0.3-2c-0.1-0.8,0.2-1.3,0.9-1.5c0.6-0.2,1.3,0.1,1.5,0.8
		c0.4,1,0.6,2,0.9,3c0.3,1.3,0.5,2.6,0.8,4c0.1-0.4,0.1-0.9,0.2-1.3c0.4-4.5,0-9-1-13.5c-0.2-1-0.4-2.1-0.6-3.1
		c-0.1-0.5-0.1-1-0.1-1.4c0.1-1,1.1-1.6,2-1.2c0.4,0.2,0.9,0.5,1.2,0.9c0.5,0.6,0.9,1.3,1.2,2.1c1.4,3.1,2.1,6.4,2.4,9.8
		c0,0.3,0.1,0.6,0.1,1c0,0.1,0.1,0.1,0.1,0.2c0.2-0.2,0.3-0.4,0.4-0.6c1.4-2.1,2.9-4.2,4.3-6.2c0.2-0.3,0.4-0.5,0.6-0.7
		c0.4-0.4,0.9-0.4,1.4-0.1c0.5,0.3,0.7,0.7,0.6,1.2c-0.1,0.4-0.2,0.9-0.4,1.3c-2.5,5.2-4.6,10.6-6.5,16c-1.7,4.9-2.9,9.9-4,15
		c0,0.1,0,0.2-0.1,0.5c0.8-0.7,1.3-1.4,1.8-2.1c0.8-1.2,1.6-2.4,2.4-3.6c0.2-0.3,0.5-0.7,0.8-0.9c0.6-0.6,1.5-0.5,2,0
		c0.5,0.5,0.6,1.2,0.2,1.9c-0.5,0.8-1.1,1.6-1.6,2.4c-2.4,3.7-4.3,7.7-5.6,12c-0.1,0.4-0.2,0.8-0.4,1.3c0.3-0.2,0.5-0.2,0.7-0.3
		c1.9-0.9,3.7-1.9,5.6-2.8c0.6-0.3,1.3-0.5,1.9-0.6c1.3-0.3,2.6-0.5,4-0.7c0.9-0.1,1.5,0.3,1.8,1c0.2,0.7-0.2,1.4-1,1.8
		c-2.8,1.2-5.1,3.1-6.8,5.6c-0.9,1.3-1.6,2.6-2.4,3.9c-0.1,0.2-0.2,0.5-0.3,0.8c2.4,0.3,4.8,0.4,7.2,0.5c2.4,0.1,4.7,0.3,7.2,0.4
		c-0.1-0.8-0.3-1.5-0.4-2.3c-0.4-2-0.9-4-1.1-6c-0.4-3.2,0.2-6.3,1.6-9.2c0.2-0.4,0.5-0.8,0.8-1.2c0.9-0.8,2-0.5,2.3,0.7
		c0.2,0.8,0.2,1.6,0.3,2.5c0.2,1.9,0.4,3.9,0.7,5.9c1.5-5.4,3-10.6,4.4-15.8c-0.1,0-0.1-0.1-0.2-0.1c-2.1,1.2-4.5,1.5-6.9,2
		c-1.8,0.4-2.9-0.9-2.4-2.7c0.2-0.7,0.6-1.5,1.1-2.1c0.7-0.8,1.5-1.5,2.3-2.2c-0.1-0.1-0.3-0.2-0.5-0.3c-1.8-0.7-3.2-1.9-4.6-3.3
		c-1-1-0.8-2.2,0.5-2.9c0.8-0.4,1.7-0.6,2.7-0.7c1.4-0.1,2.7,0.1,4.1,0.4c0.2,0,0.4,0.1,0.6,0.1c-0.1-0.6-0.2-1.1-0.3-1.6
		c-0.5-2.2-0.4-4.3-0.1-6.5c0.3-1.9,1.9-2.6,3.5-1.5c1.1,0.8,2,1.9,2.5,3.1c0.5,1.1,0.8,2.2,1.2,3.3c0.1,0.3,0.2,0.5,0.3,0.9
		c0.3-0.3,0.4-0.5,0.6-0.7c1.1-1.1,2.1-2.2,3.2-3.3c0.2-0.2,0.5-0.4,0.9-0.6c1.2-0.6,2.5-0.2,2.9,1.2c0.3,0.7,0.2,1.4,0.1,2.2
		c-0.3,1.7-1.1,3.1-2.1,4.5c-0.3,0.4-0.6,0.8-0.9,1.2c0.3,0.1,0.5,0.2,0.7,0.2c1.6,0.4,3.1,1.1,4.5,2c0.3,0.2,0.7,0.6,0.8,0.9
		c0.2,0.5,0.5,0.8,0.8,1.1c1,0.9,1.9,1.9,2.9,2.9c0.1-0.3,0.2-0.5,0.2-0.8c0.3-0.8,0.5-1.6,0.8-2.4c0.2-0.5,0.6-1.1,1-1.5
		c1.4-1.5,3.6-1.1,4.3,0.9c0.4,1,0.3,2,0.2,3c0,0.3-0.1,0.5-0.1,0.9c0.4-0.2,0.6-0.3,0.9-0.4c0.7-0.3,1.5-0.6,2.3-0.8
		c2.1-0.5,3.4,0.5,3.8,2.5c0,0.1,0.1,0.1,0.1,0.2c1.8-0.5,2.8-0.8,5.8,0.7c0-0.1,0.1-0.2,0.1-0.3c-0.2-1.9-0.4-3.8-0.6-5.6
		c0-0.3-0.2-0.7-0.4-0.9c-1.5-1.9-3.2-3.5-5.6-4.5c-0.7-0.3-1.4-0.7-2-1.1c-0.4-0.2-0.8-0.6-1.1-0.9c-1.1-1.2-0.8-2.9,0.5-3.7
		c1-0.7,2.1-0.8,3.2-0.5c1.1,0.3,2.1,0.8,2.9,1.6c0.8,0.8,1.4,1.7,2.1,2.6c0.2,0.2,0.3,0.5,0.7,0.8c0.1-1.2,0.3-2.5,0.3-3.7
		c0.1-2.7,0.2-5.4,0.4-8.2c0.1-2,0.5-3.9,1.3-5.7c0.8-1.8,1.8-3.4,3.3-4.7c0.4-0.4,0.9-0.7,1.3-0.9c2-1,4.2,0.2,4.4,2.5
		c0.1,1.2-0.1,2.4-0.5,3.6c-1.3,3.4-3,6.7-5.1,9.6c-0.9,1.3-1.8,2.6-2.7,4c-0.2,0.3-0.3,0.8-0.4,1.2c-0.2,1.3-0.3,2.6-0.2,4
		c0.1-0.1,0.3-0.3,0.4-0.4c0.6-0.8,1.2-1.6,1.9-2.3c1-1,2.2-1.7,3.5-2c1.2-0.3,2.4-0.2,3.4,0.4c1.3,0.7,1.7,1.9,1.1,3.3
		c-0.3,0.7-0.8,1.4-1.5,1.7c-1,0.6-2,1-3,1.5c-0.8,0.4-1.7,0.7-2.5,1.2c-1.2,0.7-1.9,1.8-2.3,3.2c-0.6,2.1-0.6,4.3-0.1,6.6
		c0.3-0.4,0.6-0.7,0.8-0.9c1.5-1.6,3.3-2.3,5.4-1.8c0.9,0.2,1.7,0.7,2.3,1.5c1.1,1.3,0.9,3-0.6,4c-0.6,0.4-1.3,0.6-2,0.9
		c-1.5,0.6-2.8,1.3-3.8,2.6c-0.3,0.4-0.6,0.8-0.8,1.2c0,0.1,0.1,0.1,0.1,0.2c0.2-0.1,0.4-0.1,0.6-0.2c1.6-0.7,3.2-0.9,4.9-0.3
		c0.8,0.3,1.5,0.7,2.1,1.4c0.9,1,1.2,2.5,0.6,3.6c-0.5,1.1-1.9,1.8-3.2,1.6c-0.8-0.1-1.5-0.3-2.3-0.4c-0.5-0.1-1,0-1.5,0.3
		c-0.3,0.2-0.5,0.5-0.5,0.9c0,0.7,0,1.5,0.1,2.2c0,0.7,0,1.4,0,2.2c0.3-0.1,0.6-0.3,0.8-0.4c1.8-0.8,3.9-0.5,5.2,0.9
		c1.2,1.2,1,2.7-0.5,3.4c-0.8,0.4-1.6,0.6-2.5,0.8c-1.4,0.3-2.7,0.7-3.7,1.9c-0.1,0.1-0.1,0.2-0.2,0.2c0,0.1,0,0.1,0,0.2
		c2.5,0.5,5.1,1.1,7.7,1.6c0.3-0.4,0.5-0.9,0.9-1.3c1-1.2,2-2.5,3.1-3.6c2.1-2,2.9-4.6,3.1-7.4c0.1-1.3-0.1-2.7-0.2-4
		c-0.2-1.7-0.5-3.4-0.7-5c0-0.1-0.1-0.2-0.1-0.4c-0.3,0-0.5-0.1-0.7-0.1c-1.2-0.1-2-0.7-2.4-1.8c-0.4-1.1-0.2-2.2,0.6-3
		c0.8-0.8,1.8-1.2,3-0.8c1.9,0.7,2.6,2.5,1.5,4.2c-0.2,0.2-0.3,0.6-0.3,0.9c0.4,2,0.8,4.1,1.3,6.1c0.1-0.3,0.2-0.5,0.2-0.8
		c0.2-1.9,0.3-3.8,0.5-5.6c0.1-1.3,0.3-2.6,0.4-3.9c0.1-0.6,0-1.1-0.1-1.7c-0.5-2.3-1.9-4.1-2.7-6.2c-2.2-0.2-3.4-1.2-3.7-2.8
		c-0.2-1.4,0.4-2.7,1.6-3.3c1.2-0.6,2.7-0.3,3.7,0.8c1.1,1.2,1.1,2.6-0.2,4.7c0.7,1.1,1.5,2.3,2.4,3.6c0.7-2.2,1.3-4.2,1.9-6.3
		c-0.3-0.5-0.6-1.1-0.8-1.7c-0.7-1.6,1.2-4.2,2.6-4.3c1.3-0.1,2.5,0.5,3.1,1.8c0.6,1.3,0.3,2.8-0.9,3.6c-0.5,0.4-1.2,0.7-1.9,1.1
		c-1,3.6-2.3,7.2-2.9,11c-0.1,0.8-0.2,1.6-0.2,2.4c-0.2,2.1-0.4,4.3-0.6,6.4c0,0.1,0,0.3,0.2,0.5c0.3-0.7,0.7-1.4,0.9-2.1
		c0.1-0.2,0-0.4-0.1-0.6c-0.1-0.8-0.3-1.5-0.3-2.3c0-1.2,0.8-2.2,1.9-2.5c1-0.3,2.2,0.1,2.9,1c1.6,2,0.5,4.7-2,5.1
		c-0.2,0-0.4,0-0.8,0.1c-0.3,0.9-0.7,1.8-1,2.7c-0.1,0.2,0,0.5,0.2,0.7c0.4,0.5,0.8,1,1.1,1.6c0.5,0.8,0.9,1.6,1.3,2.4
		c0.3,0.8,0.5,1.6,0.8,2.5c0.2-0.2,0.4-0.3,0.5-0.5c0.9-1.3,1.9-2.7,2.8-4c0.3-0.5,0.4-1.2,0.6-1.8c0.7-2.5,0.7-5.1,0.3-7.6
		c-0.3-2.2-0.5-4.5-0.8-6.7c0-0.3-0.1-0.6-0.1-1c-0.3-0.1-0.5-0.2-0.7-0.3c-0.9-0.5-1.4-1.2-1.5-2.2c-0.1-0.9,0.4-1.9,1.2-2.3
		c0.8-0.4,2.1-0.1,2.8,0.6c1,1,1.1,2.3,0.1,3.4c-0.3,0.3-0.4,0.6-0.3,1.1c0.3,1.6,0.6,3.2,0.8,4.8c0.3,1.6,0.5,3.3,0.7,4.9
		c0.4-0.4,1.9-4.1,3-7.4c0-0.1-0.1-0.2-0.1-0.2c-1.7-1.8-1.3-3.6,0.1-5.4c0.8-1,1.9-1.3,3.1-1c1.3,0.3,2.2,1.2,2.6,2.6
		c0.7,2.4-1.5,4.9-3.6,4.7c-0.2,0-0.3,0-0.6,0c-1.8,4.8-3.2,9.8-5.6,14.5c0.2,0,0.3,0,0.3,0c1.9-0.9,3.9-1.5,5.9-2
		c0.6-0.2,1-0.3,1.3-1c0.1-0.4,0.5-0.8,0.9-1.1c1.1-1.1,2.5-1.2,3.7-0.5c1.2,0.8,1.8,2.4,1.3,3.7c-0.9,2.5-3.9,2.9-5.3,1.4
		c-0.2-0.3-0.4-0.4-0.8-0.3c-3.1,0.9-6.1,1.9-8.7,3.9c-0.2,0.2-0.5,0.4-0.7,0.5c-0.1,0.1-0.1,0.2-0.1,0.2c1.9,0.5,3.7,0.9,5.4,1.3
		c0.7-0.3,1.4-0.7,2.1-0.9c1.6-0.5,3.1,0.6,3.3,2.3c0.1,1.5-1,2.9-2.5,3.2c-1.4,0.3-2.8-0.6-3.3-2.1c-0.1-0.2-0.1-0.5-0.2-0.8
		c-2.7-0.2-5.3-0.9-8-0.1c-0.6,0.2-1.1,0.4-1.6,0.8c-1.1,0.8-2.2,1.6-3.3,2.4c0,0,0,0.1,0.1,0.1c1.6,0.3,3,1,4.4,1.6
		c0.5,0.2,0.8,0.2,1.2-0.2c1.1-1,2.5-1.1,3.7-0.2c1.2,0.9,1.7,2.5,1.1,3.8c-0.5,1.1-1.4,1.8-2.6,1.9c-1.2,0.2-2.1-0.3-2.6-1.3
		c-0.3-0.7-0.5-1.4-0.8-2.3c-0.1,0-0.3-0.1-0.5-0.1c-1.5-0.3-3-0.5-4.5-0.7c-0.7-0.1-1.5,0-2.2,0c-0.9,0-1.5,0.4-2.1,1
		c-0.2,0.2-0.4,0.4-0.6,0.7c1.5,1.3,2.4,3,3.2,4.8c1,0.1,2,0.1,3,0.3c1.3,0.2,2.7,0.4,4,0.7c2.1,0.5,4.1,1.4,5.7,2.8
		c2,1.8,4,3.7,5.9,5.6c0.8,0.7,1.3,1.7,1.6,2.9c0.3-0.3,0.5-0.4,0.7-0.7c3.1-3.1,6.2-6.2,9.2-9.3c3-3,5.9-6.1,9-9.1
		c2.4-2.4,4.5-5.1,6.7-7.7c3-3.6,6-7.2,9-10.8c1.6-1.9,3.4-3.6,5.4-5.1c1.5-1.1,3.1-1.9,4.9-2.3c1.3-0.3,2.5-0.7,3.8-1
		c0.5-0.1,0.9-0.3,1.3-0.5c0-0.2,0-0.4,0-0.6c-0.1-1.8,0.8-3,2.5-3.6c1.5-0.6,3-1.2,4.5-1.7c4.5-1.6,9.1-2.9,13.8-3.6
		c1.4-0.2,2.8-0.4,4.2-0.1c1.7,0.4,3.1,1.3,3.9,2.8c0.7,1.2,1,2.5,1.1,3.8c0.1,1.7-0.6,3-2.1,3.8c-0.6,0.3-1.2,0.6-1.8,0.8
		c-2.8,0.8-5.6,1.6-8.4,2.4c-3.4,0.9-6.8,1.8-10.2,2.7c-1.6,0.4-3.1,0.3-4.4-0.7c-0.3-0.2-0.6-0.5-1-0.8c-2.3,0.9-4.5,1.8-6.6,3.1
		c-0.5,0.3-0.9,0.7-1.2,1.1c-2.7,2.9-5.4,5.8-8,8.7c-9.2,9.9-18.4,19.9-27.6,29.8c-1.3,1.4-2.9,2.7-4.4,4c-1.8,1.7-3.6,3.3-5.4,5
		c-0.2,0.2-0.5,0.6-0.5,0.9c-0.7,3.2-1.3,6.4-1.9,9.6c0,0.2,0,0.4,0,0.6c0.1,0,0.1,0,0.1,0c4.3-3.8,9-7.1,13.4-10.7
		c5.3-4.4,10.6-8.9,15.9-13.2c6-4.9,12-9.8,17.9-14.7c2.4-2,4.6-4,7-6c2.9-2.4,5.9-4.7,8.8-7.1c2.2-1.8,4.4-3.8,6.6-5.6
		c2-1.7,3.9-3.4,6-5c2.3-1.8,4.9-3.3,7.8-4c0.8-0.2,1.6-0.4,2.5-0.6c0-0.1,0.1-0.2,0.1-0.3c0.2-1.1,0.9-1.8,1.8-2.2
		c1-0.5,2.1-0.9,3.1-1.2c3.3-0.8,6.6-1.6,9.9-2.2c4.5-0.9,9.1-1.8,13.7-2.7c0.4-0.1,0.8-0.2,1.2-0.2c1.7-0.3,3.2,0.4,4.1,1.9
		c0.3,0.5,0.6,1.1,0.7,1.7c0.2,1.2,0.4,2.4,0.6,3.6c0.2,1.8-0.6,3.1-2.1,4c-1.1,0.6-2.3,0.9-3.5,1.2c-6.1,1.3-12.1,2.7-18.2,4
		c-1.6,0.3-3.2,0.6-4.8,0.9c-2,0.4-3.6-0.3-4.6-2.2c-0.4,0.2-0.7,0.4-1,0.6c-2.9,2.2-5.8,4.4-8.6,6.7c-9.7,7.8-19.4,15.7-29,23.6
		c-10.4,8.6-20.7,17.3-30.8,26.3c-2.3,2-4.6,4-6.9,6c-1.3,1.2-2.5,2.4-3.8,3.6c-2.5,2.4-3.9,5.4-4.5,8.7c-0.8,3.9-0.7,7.8-0.3,11.8
		c0.5,4.3,1.6,8.6,2.7,12.8c2.1,8.5,3.7,17,4.8,25.7c0.6,4.8,1.2,9.6,1.3,14.5c0.1,5.1-0.2,10.2-1.4,15.3c-0.7,3-1.9,5.9-3.4,8.7
		c-2.4,4.5-6.1,7.1-11,8.2c-4.7,1-9.2,0.3-13.6-1.4c-3.4-1.3-6.4-3.3-9.3-5.3c-7.5-5.3-14.7-11-21.2-17.5
		c-6.6-6.5-13.2-13-19.6-19.7c-4.7-4.9-9.1-10.1-13.6-15.2c-3.3-3.7-6.6-7.4-10.1-11c-1.8-1.9-3.8-3.6-5.9-5.2
		c-3.6-2.9-7.7-4.4-12.3-4.8c-5.1-0.4-10.1-0.2-15.2-0.1c-3.6,0.1-7.2,0.4-10.9,0.2C120.9,246.5,120.6,246.5,120.1,246.5z
		 M173.4,242.2c0.2,0.2,0.3,0.3,0.3,0.4c4.8,3.8,9.6,7.6,14.6,11.1c6,4.2,12,8.4,17.9,12.7c6.5,4.7,12.8,9.5,19.2,14.2
		c2.6,1.9,5.2,3.6,7.9,5.4c1.5,1,3,1.9,4.6,2.7c1.1,0.5,2.3,0.9,3.4,1.2c1.5,0.4,2.4-0.1,3.3-1.3c0.6-1,1-2,1.2-3.1
		c0.6-3.2,0.7-6.5,0.5-9.8c-0.3-5.1-0.7-10.3-0.9-15.4c-0.3-6.1-0.6-12.2-0.9-18.2c-0.1-2.8-0.3-5.5-0.4-8.3c0-0.3-0.1-0.5-0.1-0.9
		c-0.3,0-0.5,0.1-0.7,0.1c-3.2,0.5-6.4,1.2-9.7,1.6c-5.7,0.8-11.4,1.6-17.1,2.4c-4.6,0.6-9.3,1.1-13.9,1.7c-4,0.5-8.1,1-12.1,1.5
		c-4.3,0.5-8.5,1.1-12.8,1.6C176.1,241.8,174.8,242,173.4,242.2z M162.4,243.6c2.3,2.3,4.5,4.4,6.8,6.6c2.6,2.4,5.3,4.8,7.8,7.3
		c7.8,7.9,15.6,15.8,23.4,23.8c4,4.1,7.9,8.2,11.9,12.3c5.4,5.6,10.9,11.1,16.7,16.2c3.6,3.2,7.4,6,11.7,8.1c2.1,1,4.2,1.8,6.5,2.1
		c4.8,0.6,7.6-0.8,9.7-5c0.1-0.3,0.2-0.5,0.3-0.8c0.8-2.2,1.3-4.4,1.5-6.7c0.5-4.3,0.6-8.6,0.7-12.9c0-1.4,0.1-2.8,0-4.2
		c-0.4-3-0.5-6-0.9-9c-0.6-5.1-1.3-10.2-2.4-15.3c-0.1-0.5-0.2-1.1-0.4-1.6c-0.1,0.2-0.1,0.4-0.1,0.6c0.3,5.7,0.4,11.3-0.1,17
		c-0.2,2.7-0.7,5.3-1.5,7.8c-1.6,5-6.9,8.1-11.7,7.8c-2.5-0.1-4.8-0.7-7.1-1.6c-3.5-1.3-6.7-3.1-9.9-5.2
		c-5.3-3.5-10.5-7.3-15.5-11.1c-5.1-3.9-10.2-7.9-15.1-12c-5.9-4.8-11.9-9.6-17.8-14.4c-3.9-3.2-8.1-5.9-11.8-9.4
		C164.5,243.3,163.6,243.1,162.4,243.6z M63.4,272.4c0.1,1.8,0.1,3.1,0.2,4.5c0.1,1,0.2,1.9,0.4,2.8c0.9,4.1,2.4,7.9,4.6,11.4
		c5.6,9.3,14,13.8,24.6,14.6c3.8,0.3,7.4-0.5,10.9-1.9c7-2.7,11.5-7.8,13.8-14.9c0.9-2.8,1.2-5.8,1.4-8.7c0.4-5.9-0.3-11.6-2.6-17
		c-1.5-3.6-3.6-6.8-6.6-9.3c-7-5.6-15-7.8-23.9-6.7c-4.2,0.6-8.2,2-11.7,4.5c-2.6,1.9-4.9,4.1-6.7,6.7c-1.9,2.6-3.4,5.3-4,8.5
		C63.6,268.9,63.5,270.9,63.4,272.4z M238.3,220c0-0.5,0-0.9-0.1-1.3c-0.1-0.5-0.3-1.1-0.6-1.6c-0.5-0.7-1.3-0.7-1.8,0
		c-0.3,0.4-0.5,0.9-0.7,1.4c-0.2,0.5-0.3,1.1-0.4,1.7c-0.7,0-1.3,0-1.9,0c-0.3,0-0.6,0-0.8,0.1c-0.2,0.1-0.5,0.4-0.5,0.6
		c0,0.2,0.3,0.5,0.5,0.6c0.2,0.1,0.4,0.1,0.6,0.2c0.6,0.1,1.2,0.1,1.8,0.2c0,0.2,0,0.3,0,0.4c-0.2,1.5-0.4,2.9-0.6,4.4
		c0,0.2-0.1,0.5-0.3,0.7c-0.6,0.7-1.2,1.5-1.9,2.1c-0.3,0.3-0.8,0.5-1.3,0.9c0.1-0.5,0.1-0.8,0.2-1.1c0.2-1.1,0.3-2.3,0.4-3.4
		c0.1-0.7-0.1-1.3-0.5-1.8c-0.4-0.6-1.1-0.8-1.8-0.5c-0.3,0.1-0.6,0.3-0.8,0.4c-0.5,0.3-1,0.5-1.6,0.8c-0.2-0.4-0.2-0.7-0.4-0.9
		c-0.3-0.5-0.6-1-1.1-1.3c-1-0.7-2.1-0.3-2.3,0.9c-0.3,1.4,0.5,2.6,1.9,3c0.1,0,0.2,0.1,0.3,0.1c-0.1,2.1-1.7,4.6-3.1,5
		c-0.4-0.5-0.4-1.1-0.4-1.7c0.1-0.9,0.2-1.8,0.3-2.7c0-0.7,0.1-1.5,0-2.2c-0.2-1.2-1.3-1.5-2.1-0.7c-0.1,0.1-0.2,0.2-0.4,0.3
		c-0.1-0.1-0.2-0.3-0.4-0.4c-1.5-1.5-3.6-1.4-5,0.3c-0.4,0.4-0.7,1-0.9,1.5c-0.3,0.9-0.7,1.7-0.8,2.7c-0.1,1.2-0.7,2-1.6,2.6
		c-0.5,0.3-1,0.6-1.5,0.9c-0.2,0.1-0.5,0.1-0.7,0.2c-0.6-0.9-0.6-1.8-0.6-2.8c0.4-0.2,0.7-0.3,1-0.4c1.4-0.7,2.2-2.1,1.9-3.5
		c-0.1-0.9-0.6-1.7-1.5-2.1c-0.9-0.4-1.7-0.1-2.4,0.5c-0.4,0.3-0.7,0.7-1,1.2c-0.8,1.1-1.1,2.4-1.3,3.8c-0.1,0.5-0.1,1.1-0.3,1.6
		c-0.3,0.9-0.7,1.7-1.1,2.6c-0.2,0.4-0.5,0.7-0.7,1.1c-0.1,0-0.2,0-0.2-0.1c0-0.5-0.1-0.9-0.1-1.4c0-1.5,0.1-3.1-0.4-4.6
		c-0.1-0.5-0.3-1-0.6-1.4c-0.7-0.9-1.8-1-2.6-0.2c-0.3,0.3-0.6,0.7-0.8,1.1c-0.7,1.1-1.3,2.3-1.9,3.4c-0.1,0.2-0.3,0.4-0.4,0.7
		c-0.2-1-0.1-1.9-0.2-2.8c0-0.6,0.1-1,0.6-1.4c1.2-0.9,1.9-2.1,2.2-3.6c0.2-1.1,0-2.1-0.6-3c-0.6-0.9-1.6-1.2-2.5-0.5
		c-0.5,0.3-1,0.8-1.3,1.4c-0.8,1.2-1.2,2.5-1.4,3.9c-0.2,1-0.3,2-0.4,2.9c-0.8,0.3-1.5,0.5-2.3,0.8c-0.3,0.1-0.6,0.3-0.8,0.4
		c-0.1,0.1-0.2,0.3-0.1,0.4c0,0.1,0.2,0.2,0.4,0.2c0.3,0,0.6-0.1,0.9-0.2c0.6-0.1,1.3-0.3,2-0.4c0,1,0,1.9,0,2.8
		c0.1,1.1,0.1,2.1,0.7,3.1c0.9,1.4,2.5,1.4,3.3,0c0.4-0.7,0.7-1.5,1-2.3c0.5-1.3,1.1-2.7,1.6-4c0.1-0.3,0.3-0.5,0.6-1
		c0,0.7,0,1.1,0,1.6c-0.1,1.4,0,2.7,0.4,4c0.3,0.9,0.7,1.7,1.6,2.2c0.8,0.5,1.6,0.5,2.3-0.1c0.5-0.5,0.8-1.1,1.2-1.7
		c0.3-0.5,0.4-1,0.6-1.7c0.4,0.5,0.6,0.9,0.9,1.2c1.1,1.2,2.6,1.4,3.9,0.4c0.5-0.4,0.9-0.9,1.3-1.3c0.3-0.4,0.7-0.8,1-1.2
		c0.3,0.6,0.5,1.1,0.8,1.6c0.8,1.2,2.2,1.6,3.4,0.8c0.6-0.3,1.1-0.9,1.6-1.4c0.2-0.2,0.4-0.5,0.6-0.7c0.3,0.4,0.5,0.8,0.8,1.1
		c0.9,1.1,2.2,1.4,3.5,0.7c0.6-0.3,1.1-0.8,1.5-1.3c1.4-1.7,2.2-3.7,2.4-5.9c0-0.5,0.2-0.8,0.6-1c0.3-0.1,0.6-0.3,1.1-0.5
		c-0.3,0.9-0.5,1.7-0.7,2.4c-0.3,1-0.5,2.1-0.3,3.1c0.3,2.3,2.5,3.2,4.3,1.7c0.8-0.7,1.5-1.6,2.2-2.4c0.2-0.2,0.4-0.5,0.6-0.8
		c0.2,0.5,0.4,0.9,0.6,1.3c0.9,1.7,2.6,2.2,4.2,1.3c0.8-0.4,1.5-1,2-1.7c1.1-1.4,2-3,2.9-4.5c0.1-0.1,0.1-0.3,0.2-0.4
		c0.1-0.3,0.1-0.6-0.2-0.8c-0.3-0.2-0.5,0.1-0.7,0.3c-0.5,0.7-1,1.4-1.5,2c-0.6,0.7-1.2,1.4-1.9,2.1c-0.5,0.5-1.1,0.9-1.8,0.9
		c-0.6-1.1-0.4-4.2,0.5-7.8c0.5,0,1.1-0.1,1.6-0.2c0.3,0,0.6,0,0.8-0.1c0.2-0.1,0.5-0.4,0.5-0.6c0.1-0.4-0.2-0.6-0.6-0.6
		c-0.2,0-0.4,0-0.6,0C239.5,220,239,220,238.3,220z M144.8,226.4c-0.1,1.1-0.3,2-0.4,3c-0.2,1.5-0.4,3-0.4,4.5
		c-0.1,1.1,0.3,2.2,1.1,3c1,1,2.2,1.2,3.4,0.3c0.5-0.3,0.8-0.8,1.2-1.2c0.3-0.3,0.5-0.7,0.8-1.1c0.2,0.5,0.3,1,0.4,1.4
		c0.3,0.7,0.8,1.1,1.4,1.1c0.6,0,1.1-0.4,1.2-1.3c0.2-1.1,0.3-2.2,0.4-3.2c0-0.4,0-0.8,0-1.2c1,0,1.6,0.4,1.9,1.1
		c0.4,0.8,0.7,1.6,1,2.5c0.2,0.7,0.3,1.4,0.5,2.1c0.2,0.6,0.6,0.9,1.1,0.8c0.5-0.1,0.8-0.4,0.7-1.1c-0.1-1.3-0.2-2.6-0.4-3.8
		c-0.3-1.5-1.2-2.6-2.7-3.2c-0.1,0-0.2-0.1-0.3-0.2c0.3-0.3,0.6-0.5,0.8-0.8c0.9-0.8,1.4-1.8,1.5-3c0.1-0.7,0-1.3-0.4-1.9
		c-0.2-0.3-0.6-0.5-0.9-0.3c-0.3,0.1-0.5,0.4-0.6,0.7c-0.1,0.2,0,0.5-0.1,0.8c-0.1,0.5-0.1,1-0.2,1.5c-0.3,1-0.9,1.7-1.9,2.2
		c0-0.3,0-0.5-0.1-0.7c-0.1-0.9-0.2-1.9-0.4-2.8c-0.1-0.6-0.4-1.2-0.8-1.7c-0.5-0.6-1.2-0.5-1.6,0.1c-0.2,0.3-0.3,0.6-0.4,1
		c-0.1,0.7-0.2,1.4-0.2,2.1c0,1.3,0,2.6,0,3.9c0,0.3,0,0.7-0.2,0.9c-0.6,0.9-1.3,1.7-2,2.6c-0.1,0.1-0.3,0.1-0.6,0.3
		c0.1-0.9,0.1-1.6,0.1-2.4c0.1-1.6,0.1-3.1,0.1-4.7c0-0.6-0.2-1.1-0.4-1.7c-0.6-1.2-1.7-1.6-2.9-1c-0.3,0.1-0.7,0.3-1,0.5
		c-0.1-0.2-0.1-0.4-0.2-0.5c-0.3-0.7-0.8-1.1-1.4-1.1c-0.6,0-1.2,0.5-1.3,1.1c-0.2,0.7,0.1,1.3,0.7,1.7c0.2,0.1,0.3,0.2,0.5,0.3
		c-0.2,0.7-0.8,0.8-1.3,1c-0.3-0.6-0.5-1.1-0.8-1.6c-0.5-0.9-1.3-1.6-2.3-1.7c-0.4-0.1-0.9,0-1.3,0.2c-1.7,1.1-1.6,3.6,0.1,4.6
		c0.5,0.3,1.1,0.4,1.7,0.5c0.3,0.1,0.6,0,1,0c0,1.4-0.3,2.7-1.2,3.7c-0.6,0.6-1.2,1.2-2.2,0.9c-0.9-0.3-1.1-1.1-1.1-1.9
		c0-0.9,0.1-1.7,0.1-2.6c0-0.8,0.1-1.6,0.1-2.4c0-0.7-0.4-1.2-1-1.3c-0.5-0.1-1,0.2-1.3,0.7c-0.2,0.3-0.3,0.6-0.5,0.9
		c-1.4-0.1-2.7-0.1-3.7-1.2c-0.5-0.6-1.3-0.2-1.4,0.6c0,0.3,0,0.5,0,0.8c-0.1,1.4-0.1,2.7-0.2,4.1c0,0.6-0.2,1.3-0.6,1.8
		c-0.6-0.7-0.7-1.6-0.9-2.4c-0.3-1.1-0.5-2.3-0.8-3.4c-0.1-0.4-0.3-0.8-0.5-1.1c-0.6-0.7-1.5-0.5-1.8,0.4c-0.1,0.3-0.1,0.6-0.1,0.9
		c-0.2,1.7-0.7,3.3-1.3,4.8c-0.2,0.4-0.4,0.7-0.7,1.2c-0.8-1-1-2-1.1-3.1c-0.2-1.2-0.2-2.5-0.4-3.7c-0.1-1-0.7-1.6-1.4-1.6
		c-0.7,0-1.2,0.6-1.3,1.6c-0.2,1.4-0.2,2.7,0,4.1c0.3,1.7,0.9,3.3,2.2,4.5c1.1,1,2.3,0.9,3.3-0.3c0.3-0.3,0.5-0.8,0.7-1.2
		c0.2-0.4,0.3-0.8,0.5-1.3c0.2,0.4,0.3,0.7,0.4,1c0.4,0.8,0.9,1.5,1.6,2c1.2,0.8,2.5,0.5,3.2-0.7c0.3-0.5,0.5-1,0.6-1.5
		c0.2-1.2,0.2-2.4,0.3-3.5c0-0.6,0-1.3,0-1.9c1.1,0.1,2.1,0.2,3.1,0.3c-0.1,0.9-0.3,1.8-0.3,2.6c-0.1,1.6,0.3,3,1.5,4.1
		c1.5,1.5,3.6,1.6,5.3,0.3c0.9-0.7,1.6-1.7,2-2.8c0.3-1,0.5-2,0.7-3c0.1-0.5,0.2-0.8,0.6-1.1c0.6-0.5,1.3-1,1.6-1.7
		C143.4,226.6,143.9,226.4,144.8,226.4z M181.8,148.2c-1.5,4.5-2.6,9-3.4,13.6c0.2-0.1,0.3-0.2,0.4-0.3c1-1,2-1.9,2.9-2.9
		c1.4-1.4,2.7-2.9,4.1-4.3c0.3-0.3,0.5-0.6,0.8-0.8c0.7-0.6,1.6-0.5,2.2,0.3c0.2,0.4,0.4,0.8,0.5,1.2c0.8,3.1,0.1,5.8-2.1,8.1
		c-1.2,1.3-2.8,2.3-4.4,3.1c-1.7,0.9-3.5,1.8-5.2,2.7c-0.2,0.1-0.4,0.3-0.8,0.5c1.1,0.4,2,0.7,3,1c2.1,0.7,4.1,0.8,6.3,0.4
		c2.6-0.5,5.3-1,7.9-1.5c1-0.2,2-0.4,3.3-0.6c-0.4-0.3-0.7-0.5-1-0.7c-1.3-0.9-2.3-2-3.1-3.4c-1.2-1.9-1.3-4-0.9-6.2
		c0.2-0.8,0.6-1.5,1.5-1.7c0.9-0.1,1.3,0.5,1.8,1.1c1.3,1.9,2.7,3.8,4,5.8c0.2,0.2,0.3,0.4,0.5,0.7c0.5-1.7,0.4-10.9-0.1-12.2
		c-0.3,0.2-0.5,0.4-0.7,0.6c-1.2,1-2.5,1.6-4,1.8c-1,0.1-1.9-0.1-2.5-1c-0.6-0.9-0.5-1.8,0.1-2.6c0.4-0.6,0.9-1.1,1.3-1.6
		c0.2-0.3,0.5-0.5,0.8-0.8c-0.4-0.1-0.7-0.2-1-0.3c-0.7,2-1.7,2.5-3.6,1.5c-0.8-0.5-1.6-1.2-2.3-1.8c-0.2-0.2-0.4-0.4-0.7-0.7
		c-0.2,0.4-0.3,0.8-0.4,1.1c-0.4,1-0.8,2-1.4,2.8c-0.7,1.1-2,1.1-2.8,0c-0.3-0.4-0.5-0.9-0.6-1.4C182.1,149.3,182,148.7,181.8,148.2
		z M125.2,184.3c0.5-1,1.1-1.9,1.4-2.9c0.8-2.6,0.4-5.1-0.9-7.4c-0.7-1.3-1.7-2.1-3.1-2.5c-2-0.6-3.9-0.3-5.8,0.5
		c-0.4,0.2-0.8,0.5-1.2,0.8c-0.5,0.5-0.8,1.1-0.8,1.8c0,0.8,0,1.6,0,2.4c0.3,4.3,0.5,8.6,0.8,12.8c0.1,1.2,0.2,2.5,0.3,3.7
		c0.1,1.1,0.6,1.7,1.7,1.9c1.6,0.3,3.1,0.2,4.7,0c1.6-0.2,3-0.9,4.2-2c1.5-1.3,2-3,1.6-5C127.9,186.7,127.1,185.1,125.2,184.3z
		 M149.8,188.8c0.3,1,0.5,2,0.9,2.9c0.2,0.6,0.5,1.1,0.8,1.6c0.7,0.9,1.9,1.3,2.9,0.9c1.1-0.4,1.7-1.2,1.8-2.4c0-0.5,0-1-0.1-1.5
		c-0.3-1.2-0.6-2.3-0.8-3.4c-0.8-3.2-1.5-6.4-2.8-9.5c-0.6-1.3-1.2-2.6-1.9-3.9c-0.5-0.9-1.2-1.7-2.3-2.1c-1.4-0.6-2.7-0.2-3.4,1.2
		c-0.3,0.7-0.6,1.5-0.8,2.3c-0.9,3.6-1.5,7.2-1.7,10.9c-0.1,2-0.2,4.1-0.2,6.1c0,0.6,0.1,1.2,0.2,1.8c0.1,0.4,0.4,0.7,0.7,0.6
		c0.3,0,0.6-0.3,0.7-0.5c0.2-0.4,0.3-0.9,0.4-1.4c0.1-0.9,0.2-1.7,0.2-2.6c0-0.3,0.1-0.7,0.1-1.1
		C146.5,188.8,148.1,188.8,149.8,188.8z M206.7,167.9c0,0.1,0,0.1,0.1,0.2c1.1,0.1,2.2,0.2,3.3,0.3c2.7,0.3,5.3,1.1,7.9,1.7
		c0.4,0.1,0.8,0.2,1.2,0.3c-0.2-1.6-0.8-2.7-2.2-3.2c-0.5-0.2-1-0.5-1.4-0.8c-0.5-0.3-0.8-0.9-0.7-1.5c0.1-0.6,0.6-1,1.1-1.2
		c0.4-0.1,0.8-0.1,1.2-0.1c1.2,0.1,2.4,0.5,3.3,1.3c0.2,0.1,0.4,0.3,0.7,0.5c0.1-1.9,0.4-3.6,0.1-5.3c-0.1-0.9-0.5-1.7-1-2.5
		c-0.6-1-1.5-1.1-2.5-0.4c-0.2,0.2-0.5,0.3-0.7,0.5c-1.9,1.1-3.8,0.2-4.1-2.1c-0.1-0.7,0-1.3,0.4-1.9c1-1.7,2.5-2.6,4.4-2.6
		c0.5,0,1,0,1.7,0.1c-0.4-0.8-0.7-1.5-1-2.1c-0.7-1.4-1.8-2.3-3.3-2.8c-0.4-0.1-0.8-0.3-1.2-0.4c-0.9-0.3-1.7-0.8-2.1-1.8
		c-0.4,0.4-0.8,0.7-1.2,1c-0.4,0.3-0.8,0.6-1.3,1c0.4,0.2,0.8,0.3,1.1,0.4c0.6,0.3,1.2,0.6,1.7,1c1.5,1.2,1.1,3.2-0.6,3.9
		c-0.3,0.1-0.6,0.2-0.9,0.2c-1.4,0.2-2.7-0.1-4-0.5c-0.3-0.1-0.6-0.2-1.1-0.3c0.1,0.5,0.3,0.9,0.3,1.3c0.1,0.5,0.2,1,0.1,1.4
		c-0.1,1.4-1.2,2.3-2.6,2.2c-0.1,0-0.3,0-0.5,0c0.1,2,0.1,3.9,0.2,5.8c0.2,0,0.2,0,0.3-0.1c0.1-0.1,0.3-0.3,0.4-0.4
		c1.1-1.7,2.2-3.4,3.2-5.1c0.2-0.4,0.4-0.8,0.7-1.1c0.6-0.7,1.5-0.8,2.2-0.2c0.3,0.3,0.6,0.6,0.8,1c0.4,0.8,0.7,1.7,1,2.6
		c0.7,2.5,0.1,4.7-1.6,6.6c-0.8,0.9-1.8,1.5-2.7,2.3C207.4,167.5,207,167.7,206.7,167.9z M207.6,190.6c-0.1-0.4-0.3-0.7-0.4-1
		c-0.1-0.8-0.3-1.6-0.4-2.5c-0.2-2.5-0.2-5-0.4-7.5c-0.1-1.5-0.3-3-0.6-4.5c-0.1-0.8-0.5-1.6-1-2.2c-1.2-1.4-2.9-1.1-3.5,0.6
		c-0.2,0.7-0.3,1.4-0.4,2.2c-0.3,3.1-0.2,6.2,0.1,9.3c0.1,1.7,0.4,3.3,0.7,4.9c0.3,1.5,1.1,2.8,2.3,3.8c1.9,1.5,4.3,1.3,5.9-0.6
		c0.7-0.8,1.2-1.7,1.6-2.7c0.9-2.7,1.3-5.4,1.4-8.2c0.1-1.7,0.1-3.4,0.1-5.1c0-0.9,0-1.8-0.1-2.7c-0.1-0.5-0.4-0.8-0.9-0.9
		c-0.5,0-0.9,0.2-1.1,0.8c-0.1,0.3-0.1,0.6-0.1,0.9c-0.2,3.3-0.3,6.6-0.8,9.9c-0.2,1.4-0.5,2.8-1.1,4.2
		C208.5,189.7,208.3,190.2,207.6,190.6z M101.7,191.6c0.2,0.6,0.3,1.2,0.5,1.8c0.2,0.6,0.5,1.1,0.8,1.6c0.6,0.7,1.4,1,2.3,0.8
		c0.9-0.3,1.4-0.9,1.6-1.9c0.1-0.5,0.1-1-0.1-1.5c-1-4.4-2.1-8.7-3.9-12.8c-0.6-1.5-1.5-2.8-2.3-4.2c-0.5-0.8-1.2-1.5-2.1-1.9
		c-1.6-0.7-2.9-0.4-3.8,1.1c-0.3,0.6-0.6,1.2-0.8,1.8c-0.6,2-1.2,4-1.8,6c-1,3.6-1.9,7.3-2.9,11c-0.1,0.6-0.2,1.1-0.2,1.7
		c0,0.2,0.2,0.5,0.4,0.6c0.3,0.1,0.6-0.1,0.7-0.4c0.2-0.6,0.4-1.1,0.6-1.7c0.2-0.7,0.4-1.4,0.6-2.1
		C94.8,191.9,98.2,191.3,101.7,191.6z M164.4,190.4c-0.6-0.4-0.9-0.9-1.1-1.5c-0.4-1.5-0.8-3-1.1-4.5c-0.5-3.3-0.9-6.6-1.4-9.9
		c-0.1-0.6-0.3-1.3-0.6-1.9c-0.4-0.7-1.1-1-1.9-0.9c-0.8,0.1-1.4,0.7-1.6,1.5c-0.1,0.4-0.1,0.8-0.1,1.1c0,0.8,0,1.5,0.1,2.3
		c0.1,3,0.3,6,0.5,9c0.1,1.7,0.5,3.4,1.1,4.9c0.8,2,2.2,3.3,4.4,3.8c1.4,0.3,2.5-0.1,3.4-1.2c0.7-0.8,1.1-1.7,1.4-2.7
		c0.6-2.1,0.7-4.2,0.6-6.3c0-3.2-0.1-6.3-0.2-9.5c0-0.5-0.1-1.1-0.3-1.6c-0.2-0.5-0.6-0.8-1.1-0.8c-0.5,0-0.9,0.3-1.1,0.8
		c-0.1,0.3-0.2,0.6-0.2,0.9c0,0.8,0,1.5,0,2.3c0.1,2.9,0.2,5.8,0.3,8.7c0,0.9-0.1,1.7-0.2,2.6C165.3,188.6,165.2,189.6,164.4,190.4z
		 M175.2,229.3c0.1,0,0.2,0,0.2,0c0,0.2,0,0.3,0,0.5c-0.1,1.9,0,3.8,0.3,5.6c0.2,1.1,0.6,2,1.4,2.8c0.9,0.9,1.9,1.1,3,0.6
		c0.7-0.3,1.3-0.7,1.7-1.4c1-1.6,1-3.1,0-4.7c-0.3-0.4-0.7-0.8-1-1.3c0.4-0.3,0.7-0.5,1-0.8c0.2-0.2,0.5-0.4,0.6-0.7
		c0.2-0.3,0.2-0.6-0.1-0.8c-0.2-0.1-0.5,0-0.7,0.1c-0.6,0.3-1.1,0.7-1.6,1c-0.4,0.2-0.8,0.4-1.4,0.2c0-0.4,0-0.8,0-1.2
		c-0.1-1.2,0.1-2.2,1.2-2.8c0.3-0.2,0.5-0.4,0.6-0.7c0.4-0.7,0.9-1.4,1.2-2.2c0.6-1.7-0.6-3.1-2.4-3.1c-1,0-1.6,0.5-2.1,1.3
		c-0.7,1-1.1,2.2-1.3,3.5c-0.1,0.7-0.2,1.4-0.3,2.1c0,0.3-0.1,0.6-0.6,0.5c-0.1-0.2-0.2-0.5-0.3-0.7c-0.4-1-1-1.8-1.9-2.5
		c-1-0.7-2.5-0.6-3.1,0.3c-0.5,0.8-1.2,1.4-1.8,2.1c-0.3,0.3-0.5,0.7-0.6,1.1c-0.3,0.8-0.6,1.7-0.7,2.6c-0.2,1.8,0.1,3.5,1.1,5
		c1.2,1.7,3.2,2.1,4.9,0.8c0.6-0.4,1-1,1.4-1.7c0.8-1.4,1.2-3,1.2-4.6C175.2,229.9,175.2,229.6,175.2,229.3z M134.8,173.8
		c0.3-0.1,0.6-0.2,0.9-0.2c0.4-0.1,0.8-0.1,1.2-0.3c0.3-0.1,0.7-0.3,0.7-0.7c0-0.5-0.3-0.7-0.7-0.9c-0.3-0.1-0.6-0.2-0.9-0.2
		c-0.8-0.1-1.6-0.3-2.5-0.4c-1.2-0.2-2.1,0.2-2.9,1.1c-0.5,0.6-0.8,1.4-0.9,2.2c-0.2,1.4-0.4,2.9-0.3,4.3c0.2,3.7,0.4,7.5,0.7,11.2
		c0.1,0.9,0.3,1.8,0.8,2.6c0.7,1.2,1.7,1.9,3.1,2c1.6,0.1,3.2,0.1,4.8,0.1c0.2,0,0.5,0,0.7-0.1c0.4-0.1,0.8-0.4,0.8-0.8
		c0.1-0.5-0.1-0.8-0.5-1c-0.5-0.2-0.9-0.4-1.4-0.5c-0.9-0.2-1.7-0.3-2.5-0.7c-0.1-1.9-0.1-3.7-0.2-5.4c0.8-0.1,1.5-0.1,2.2-0.2
		c0.6-0.1,0.9-0.4,1-0.9c0.1-0.5-0.2-0.9-0.6-1.1c-0.3-0.2-0.6-0.3-1-0.4c-0.6-0.1-1.2-0.2-1.9-0.2C135.2,180,135,176.9,134.8,173.8
		z M220.1,215.4c-0.3,0.2-0.6,0.4-0.8,0.7c-0.5,0.5-0.4,1.1,0.2,1.5c0.2,0.1,0.5,0.2,0.8,0.2c1.5,0,3,0,4.5,0
		c1.2-0.1,1.4-0.8,0.8-1.8c-0.3-0.5-0.6-1-0.8-1.5c-0.3-1.6-0.5-3.2-0.8-4.8c-0.3-1.9-0.7-3.8-1.4-5.6c-0.6-1.5-1.6-2.8-3-3.6
		c-1.6-0.9-3-0.3-3.5,1.5c-0.3,0.9-0.5,1.7-0.7,2.6c-0.3,1.3-0.6,2.7-0.9,4c-0.4,1.4-0.8,2.8-1.2,4.1c-0.2,0.9-0.6,1.7-1.3,2.3
		c-0.8,0.7-0.5,1.7,0.5,1.8c0.9,0.2,1.9,0.2,2.9,0.1c1-0.1,1.3-0.7,0.8-1.6c-0.5-1-0.4-2-0.1-3c1.1,0,2.1,0,3.2,0
		C219.4,213.3,219.7,214.3,220.1,215.4z M164.4,209.8c0.1,0,0.1,0,0.2,0c0.1,0.2,0.2,0.3,0.2,0.5c0.5,1.2,0.9,2.4,1.4,3.6
		c0.6,1.4,1.4,2.7,2.5,3.8c1.2,1.3,2.5,1.1,3.3-0.5c0.3-0.6,0.6-1.2,0.7-1.9c0.4-1.9,0.7-3.8,1-5.8c0.2-1.6,0.4-3.1,0.6-4.7
		c0.2-1,0.4-1.9,1.1-2.7c0.7-0.8,0.3-1.9-0.7-2c-1.1-0.1-2.2,0-3.3,0.2c-0.6,0.1-1.1,0.5-1.2,1.1c-0.2,0.7,0.2,1.1,0.7,1.5
		c0.7,0.5,1,1.3,0.9,2.1c-0.3,2.6-0.7,5.1-1.1,7.7c-0.1,0.7-0.3,1.4-0.6,2.4c-0.3-0.6-0.6-1-0.7-1.4c-0.4-0.8-0.7-1.7-1-2.5
		c-0.9-2.5-1.8-5-2.7-7.5c-0.2-0.6-0.5-1.1-0.9-1.5c-0.9-0.9-2.2-0.4-2.5,0.8c-0.1,0.3-0.1,0.7-0.1,1.1c-0.1,3.9-0.2,7.8-0.2,11.6
		c0,0.7-0.2,1.3-0.7,1.9c-0.6,0.7-0.4,1.6,0.5,1.8c0.6,0.2,1.3,0.2,1.9,0.1c0.7-0.1,0.9-0.6,0.8-1.3c-0.1-0.3-0.2-0.7-0.2-1
		c0.1-2.2,0.1-4.4,0.2-6.5C164.4,210.3,164.4,210,164.4,209.8z M194.1,174.6c0.5,0,1,0,1.4,0c1-0.1,1.9-0.1,2.9-0.2
		c0.7-0.1,1-0.6,1-1.1c0-0.5-0.3-1-0.9-1.2c-0.5-0.2-1-0.4-1.5-0.4c-1.6-0.1-3.1-0.2-4.7-0.2c-1,0-1.9,0.4-2.6,1.1
		c-0.4,0.3-0.5,0.7-0.5,1.2c0,1.3,0,2.6,0.1,3.9c0.1,3.2,0.2,6.4,0.3,9.6c0.1,1.4,0.2,2.8,0.4,4.2c0.1,0.6,0.3,1.2,0.7,1.7
		c1,1.4,2.9,1.3,3.9-0.2c0.4-0.6,0.5-1.4,0.5-2.1c-0.1-1.9-0.1-3.8-0.2-5.7c0-0.8,0-1.6,0-2.5c0.4,0,0.7,0,1.1-0.1
		c0.4,0,0.8,0,1.2-0.1c0.6-0.1,0.9-0.5,0.9-1c0-0.5-0.3-0.9-1-1c-0.4-0.1-0.9-0.1-1.3-0.2c-0.4,0-0.7,0-1.2-0.1
		C194.4,178.3,194.3,176.5,194.1,174.6z M220.4,190.8c0-2,0-3.8,0-5.6c-0.1-3-0.2-5.9-0.3-8.9c0-0.6-0.2-1.3-0.4-1.9
		c-0.4-1.1-1.4-1.7-2.4-1.6c-1,0.1-1.9,0.8-2.2,1.8c-0.1,0.5-0.2,0.9-0.2,1.4c-0.1,4.4-0.1,8.9-0.1,13.3c0,0.5,0.1,1.1,0.1,1.6
		c0.3,1.8,1.5,3,3.3,3.2c0.4,0,0.8,0.1,1.1,0c0.8-0.1,1.6-0.3,2.3-0.5c0.8-0.1,1.5-0.2,2.3-0.4c0.6-0.1,0.9-0.5,0.9-1
		c0-0.5-0.3-1-0.9-1.1c-0.5-0.1-0.9-0.1-1.4-0.2C221.9,191,221.2,190.9,220.4,190.8z M176.3,175.5c0.3,0,0.7-0.1,1-0.1
		c0.3-0.1,0.7-0.1,1-0.2c0.4-0.1,0.7-0.4,0.8-0.9c0.1-0.5-0.2-0.9-0.6-1.1c-0.2-0.1-0.3-0.2-0.5-0.3c-0.8-0.2-1.6-0.5-2.4-0.5
		c-1.3,0-2.6,0.1-3.8,0.2c-0.5,0-1,0.2-1.5,0.4c-0.5,0.2-0.8,0.6-0.8,1.2c0,0.6,0.5,0.9,1,1c0.4,0.1,0.9,0.2,1.2,0.3
		c0,1.9-0.1,3.8-0.1,5.6c0,2.4,0.1,4.7,0.2,7.1c0,1.1,0.1,2.2,0.2,3.4c0.1,0.6,0.3,1.1,0.6,1.6c1.1,1.7,3.3,1.6,4.3-0.2
		c0.4-0.7,0.4-1.4,0.4-2.1c0-0.5-0.1-1.1-0.1-1.6c-0.2-3.4-0.4-6.8-0.6-10.3C176.6,177.8,176.4,176.7,176.3,175.5z M149.3,210.2
		c-0.1-2.5-0.7-5-2.2-7.2c-1.7-2.4-4.1-3.1-6.9-2.9c-0.3,0-0.7,0.2-1,0.3c-0.7,0.4-0.8,1.2-0.1,1.7c0.6,0.4,0.7,0.9,0.6,1.5
		c-0.1,2.9-0.2,5.9-0.3,8.8c0,1.6,0,3.1-0.1,4.7c0,0.3,0,0.7-0.1,1c-0.2,0.6,0,1,0.6,1.2c0.3,0.1,0.7,0,1,0c0.4,0,0.8-0.2,1.2-0.2
		c0.9-0.1,1.7-0.3,2.4-0.8C147.7,216.5,149.2,213.8,149.3,210.2z M122.2,214.3c0.1,0.1,0.1,0.2,0.1,0.3c0.1,0.6,0.2,1.1,0.3,1.7
		c0.1,0.7,0.1,1.2-0.5,1.7c-0.7,0.6-0.5,1.4,0.4,1.7c0.6,0.2,1.2,0.2,1.8,0.2c0.8,0,1.3-0.6,1.1-1.4c-0.1-0.4-0.2-0.8-0.3-1.2
		c-0.2-2.9-0.4-5.7-0.7-8.6c-0.2-1.7-0.4-3.3-0.7-4.9c-0.2-0.8-0.6-1.6-1.1-2.2c-0.9-1.2-2.5-1.2-3.5-0.2c-0.4,0.4-0.8,1-1.1,1.5
		c-0.5,1-1,2-1.3,3.1c-1.1,3.6-2,7.1-3,10.7c-0.1,0.4-0.2,0.8-0.6,1.2c-0.7,0.6-0.5,1.4,0.4,1.7c0.6,0.2,1.2,0.2,1.8,0.2
		c1,0,1.2-0.5,0.9-1.4c-0.1-0.3-0.3-0.8-0.2-1.1c0.2-1,0.5-2,0.8-2.9C118.6,214.3,120.4,214.3,122.2,214.3z M102.1,211.7
		c0,0.4,0,0.7,0,1.1c0.2,1.8,0.6,3.6,2,5c2.5,2.5,5.6,2.1,7.3-0.9c0.9-1.6,1.3-3.4,1.6-5.2c0.2-0.9-0.3-1.7-1.2-2.1
		c-0.6-0.2-1.2-0.3-1.8-0.3c-0.2,0-0.6,0.2-0.7,0.4c-0.1,0.2,0.1,0.6,0.2,0.9c0,0.1,0.3,0.2,0.4,0.3c0.3,0.3,1,0.3,1.1,0.9
		c0,0.5-0.1,1-0.2,1.4c-0.2,0.6-0.4,1.2-0.7,1.8c-0.3,0.5-0.6,0.9-1,1.3c-0.7,0.6-1.2,0.6-1.8,0c-0.4-0.4-0.7-1-0.9-1.5
		c-0.8-2.1-0.6-4.2-0.3-6.4c0.2-1.5,0.6-2.9,1.4-4.2c0.3-0.5,0.6-0.9,1-1.3c1.1-0.9,2.5-0.6,3.2,0.7c0.2,0.4,0.4,0.6,0.9,0.6
		c0.4,0,0.7-0.2,0.9-0.6c0.2-0.6,0.5-1.3,0.6-1.9c0.2-1.1-0.2-1.5-1.3-1.6c-0.6,0-1.2-0.1-1.8-0.3c-1.2-0.4-2.3-0.3-3.4,0.2
		c-1.1,0.5-2.1,1.3-2.7,2.4c-0.5,0.9-1,1.8-1.3,2.8C102.4,207.1,102.1,209.4,102.1,211.7z M134,212c0.1-0.1,0.4-0.3,0.6-0.4
		c3.2-2.3,3.6-6.2,0.9-9.1c-1.2-1.3-2.8-2-4.6-2.1c-1.2-0.1-2.1,0.7-2.3,1.9c-0.1,0.4-0.1,0.9-0.2,1.3c-0.3,3.9-0.5,7.7-0.8,11.6
		c-0.1,1-0.2,1.9-0.8,2.7c-0.5,0.7-0.1,1.5,0.7,1.6c0.6,0.1,1.3,0,1.9-0.1c0.5-0.1,0.7-0.6,0.5-1.1c-0.1-0.3-0.3-0.7-0.3-1
		c0.1-1.2,0.3-2.5,0.4-3.7c1.4-0.1,2.1,0.5,2.5,1.7c0.3,0.7,0.7,1.3,1.1,1.9c0.7,1.1,1.8,1.6,2.9,2.2c0.5,0.3,1,0.1,1.3-0.3
		c0.3-0.4,0.2-0.9-0.2-1.3c-0.2-0.2-0.5-0.4-0.7-0.6c-0.8-0.5-1.2-1.3-1.6-2.1C135,214,134.5,213,134,212z M181.1,182
		c0.1,3.3,0.2,5.8,0.4,8.3c0.1,0.8,0.2,1.7,0.5,2.4c0.4,1.1,1.4,1.6,2.4,1.6c1-0.1,1.9-0.9,2.2-2c0.1-0.4,0.1-0.8,0.1-1.2
		c-0.1-2.1-0.1-4.2-0.2-6.2c-0.2-2.9-0.4-5.9-0.6-8.8c0-0.6-0.2-1.2-0.4-1.8c-0.3-1-1.1-1.6-2.1-1.6c-0.9,0-1.7,0.6-2,1.7
		c-0.1,0.4-0.2,0.9-0.2,1.3C181.2,178,181.1,180.4,181.1,182z M154.3,209.3c0.1-1.3,0.2-2.5,0.4-3.7c0.1-1,0.3-1.9,0.5-2.8
		c0.2-0.8,0.7-0.9,1.4-0.4c0.5,0.4,0.9,0.4,1.2,0.1c0.8-0.7,0.7-2.1-0.3-2.5c-0.9-0.4-1.9-0.4-2.8,0c-1.4,0.5-2.3,1.5-2.7,2.9
		c-0.2,0.6-0.4,1.3-0.5,2c-0.6,3.4-0.6,6.8-0.5,10.2c0,0.3,0.1,0.7,0.1,1c0.3,1.3,1,2.3,2.3,2.7c1.8,0.7,3.7,0.6,5.6,0.2
		c0.7-0.2,1.2-0.8,1.1-1.6c-0.1-0.6-0.2-1.3-0.4-1.9c-0.4-1-1.5-1.1-2.1-0.2c-0.2,0.2-0.3,0.5-0.5,0.7c-0.6,0.7-2.7,0.4-3-0.4
		c-0.1-0.1-0.1-0.2-0.1-0.4c0-1.1,0-2.2,0.1-3.3c0.2-0.1,0.3-0.1,0.4-0.1c0.6-0.1,1.1,0.1,1.6,0.4c1.3,0.7,2,0.2,2.1-1.2
		c0-0.6,0-1.2,0-1.7c0-0.5-0.3-0.9-0.9-1c-0.5-0.1-0.9,0.1-1.1,0.6c-0.2,0.5-0.6,0.6-1,0.5C155,209.3,154.7,209.3,154.3,209.3z
		 M241.7,202.3c0-1.7-0.1-3,0-4.3c0.1-2,0.5-3.9,1.3-5.7c0.6-1.3,1.5-2.4,2.8-3.2c1.2-0.7,2.5-0.6,3.6,0.3c1.3,1.1,1.6,2.8,0.8,4.3
		c-0.1,0.2-0.3,0.4-0.4,0.7c-0.1,0.3-0.1,0.6,0.2,0.9c0.3,0.2,0.6,0.2,0.9,0c0.6-0.4,1-0.9,1.3-1.6c1-2.2,0.4-4.7-1.4-6.3
		c-1.8-1.6-4.4-1.8-6.4-0.5c-1,0.6-1.9,1.4-2.5,2.5c-0.6,1.1-1.2,2.2-1.6,3.5c-0.8,2.4-1,4.8-0.9,7.3c0.2,3.3,0.3,6.7-0.3,10
		c0,0.2-0.1,0.5,0,0.7c0.1,0.2,0.2,0.5,0.4,0.6c0.2,0.1,0.6,0,0.8-0.2c0.2-0.2,0.4-0.4,0.5-0.7c0.2-0.6,0.5-1.3,0.6-1.9
		C241.8,206.4,241.7,204.1,241.7,202.3z M203.2,204c0,0,0.1-0.1,0.1-0.1c0.2,0.2,0.4,0.3,0.6,0.5c0.3,0.3,0.6,0.6,0.9,0.9
		c0.7,0.6,1.5,0.4,1.9-0.5c0.2-0.4,0.3-0.9,0.3-1.4c0.1-1.1-0.4-1.9-1.4-2.3c-0.9-0.4-1.9-0.5-2.9-0.4c-2.1,0.2-3.5,2.1-3,4.2
		c0.2,0.9,0.6,1.7,1,2.5c0.6,1.1,1.4,2.1,2.1,3.1c0.4,0.6,0.8,1.3,1.1,2c0.3,0.6,0.2,1.3-0.4,1.8c-0.7-0.2-1-0.7-1.5-1.2
		c-0.3-0.3-0.6-0.5-1-0.3c-0.4,0.1-0.7,0.4-0.7,0.9c-0.1,0.6-0.1,1.2-0.1,1.8c0,0.6,0.4,1,1,0.9c0.6-0.2,1.2,0,1.8,0.2
		c1.4,0.5,2.6,0.1,3.6-1c0.9-1,1.2-2.2,1.1-3.5c-0.2-1.9-0.9-3.6-2.1-5.1c-0.6-0.8-1.2-1.6-1.8-2.3
		C203.5,204.5,203.4,204.3,203.2,204z M349.4,150.8c0.5-0.1,1-0.1,1.5-0.2c2.4-0.4,4.7-0.8,7.1-1.2c3-0.6,6-1.1,8.9-1.7
		c1.7-0.3,3.3-0.7,5-1.1c1.1-0.3,1.6-1.1,1.5-1.9c-0.2-0.9-1-1.3-2.1-1.1c-2.3,0.4-4.6,0.7-6.9,1.1c-3.1,0.5-6.1,1.1-9.1,1.7
		c-1.8,0.4-3.6,0.8-5.4,1.3c-0.6,0.2-1.1,0.5-1.6,0.8c-0.4,0.3-0.6,0.8-0.5,1.3c0.1,0.5,0.5,0.9,1.1,1
		C349,150.7,349.2,150.7,349.4,150.8z M81.7,180.5c0-4.5-3.4-7.4-7.8-6.6c-2.7,0.5-4.4,2.8-4.2,5.6c0.1,1.6,1.3,3,2.7,3.4
		c1.6,0.4,3.4-0.7,3.8-2.2c0.1-0.4,0-0.7-0.3-0.9c-0.4-0.2-0.7-0.1-0.9,0.2c-0.1,0.1-0.2,0.2-0.3,0.4c-0.4,0.5-0.9,0.9-1.6,0.7
		c-0.7-0.1-1-0.6-1.2-1.2c-0.4-1.3,0.2-2.9,1.5-3.5c2-1,5-0.6,5.9,2.5c0.3,1.1,0.3,2.3,0.1,3.4c-0.5,2.1-1.2,4.2-1.7,6.3
		c-0.3,1.3-0.6,2.6-0.8,3.9c-0.2,1.8,0.2,3.6,1.1,5.2c0.2,0.4,0.5,0.7,0.9,1c0.1,0.1,0.5,0.1,0.7,0c0.1-0.1,0.1-0.4,0.1-0.6
		c0-0.1-0.1-0.2-0.1-0.4c-1.3-2.8-1.2-5.6-0.2-8.5c0.5-1.4,1-2.9,1.5-4.4C81.3,183.5,81.7,182,81.7,180.5z M253.5,205
		c0-1.1-0.5-2-1.1-2.8c-1.2-1.5-3-2.1-4.8-1.5c-1.7,0.5-2.9,1.6-3.8,3.1c-1.1,1.7-1.7,3.6-1.9,5.7c-0.2,2.1-0.2,4.3-0.8,6.4
		c0,0.2-0.1,0.3,0,0.5c0,0.4,0.4,0.6,0.7,0.4c0.3-0.2,0.6-0.4,0.7-0.7c0.3-0.6,0.7-1.3,0.8-2c0.2-1,0.3-2,0.4-2.9
		c0.2-2,0.7-3.8,1.7-5.5c0.5-0.8,1.1-1.5,2-2c1.5-0.8,3-0.3,3.6,1.2c0.3,0.8,0,1.5-0.9,1.9c-0.7,0.3-1.4,0.1-1.6-0.6
		c0-0.1-0.1-0.2-0.2-0.3c-0.3-0.5-0.7-0.7-1.2-0.6c-0.4,0.2-0.7,0.6-0.6,1.2c0.2,1.1,0.8,1.9,1.9,2.3
		C250.9,209.4,253.5,207.5,253.5,205z M195.9,216.8C195.9,216.7,195.9,216.7,195.9,216.8c0.5,0,1,0.1,1.5,0.1c0.9,0,1.3-0.8,0.8-1.5
		c-0.4-0.5-0.5-1.1-0.6-1.7c-0.2-1.4-0.4-2.9-0.5-4.3c-0.1-1.7-0.2-3.3-0.3-5c0-0.5,0.1-0.8,0.6-1.1c0.6-0.4,0.7-0.9,0.6-1.4
		c-0.2-0.5-0.7-0.8-1.3-0.7c-1.1,0.1-2.2,0.2-3.2-0.1c-0.6-0.2-1.1,0.2-1.3,0.7c-0.2,0.5,0,1,0.5,1.3c0.4,0.2,0.5,0.5,0.5,0.9
		c0.1,0.9,0.1,1.7,0.2,2.6c0.2,2,0.3,4,0.4,6c0.1,0.7-0.1,1.4-0.5,2c-0.7,1.2-0.1,2.1,1.3,2.1C195,216.8,195.5,216.8,195.9,216.8z
		 M333.7,142.3c0-0.8-0.6-1.5-1.5-1.5c-0.8,0-1.7,0.1-2.5,0.3c-3.8,0.9-7.5,2.1-11.1,3.5c-1.1,0.4-2.1,0.8-3.2,1.3
		c-1,0.4-1.5,1.2-1.2,2c0.3,0.8,1.1,1.1,2.1,0.9c0.5-0.1,0.9-0.2,1.4-0.4c4.4-1.7,8.9-2.9,13.5-4.2c0.6-0.2,1.1-0.4,1.6-0.6
		C333.3,143.4,333.7,142.9,333.7,142.3z M238,203.4c0-2.6-0.3-4.5-1.4-6.2c-0.9-1.4-2.1-2.3-3.8-2.4c-2.1-0.2-4.2,1.1-4.7,3
		c-0.1,0.3-0.2,0.6-0.1,0.8c0.1,0.3,0.3,0.6,0.6,0.6c0.2,0.1,0.5-0.1,0.7-0.3c0.2-0.2,0.3-0.4,0.3-0.7c0.4-1.5,2.8-2.3,4.2-1
		c0.5,0.5,0.9,1,1.2,1.6c0.5,1,0.8,2.2,0.8,3.3c0.1,4.3-1.5,7.8-4.6,10.7c-0.3,0.3-0.7,0.6-1.1,0.9c-0.6,0.5-0.8,0.9-0.6,1.2
		c0.4,0.5,0.9,0.3,1.3,0.1c1.4-0.4,2.5-1.3,3.4-2.4C236.9,209.9,237.9,206.5,238,203.4z M242.9,159.9c-0.2,0.3-0.3,0.5-0.4,0.7
		c-1.1,2.2-2.4,4.4-4,6.3c-1.4,1.8-2.9,3.6-4.4,5.3c-0.4,0.5-0.7,1-1.1,1.5c0.8,0.4,1.4,0.8,2.1,1.1c0.1-0.1,0.2-0.1,0.3-0.2
		c1.5-2,3.5-3.5,5.7-4.8c1.1-0.7,2.2-1.5,3.3-2.2c0.7-0.4,0.9-1.1,0.9-1.8c0-0.4,0-0.8-0.1-1.2C244.7,162.9,243.8,161.4,242.9,159.9
		z M80.3,192.6c0.1,0.6,0.1,1.3,0.3,1.9c0.6,3.1,2.1,5.8,4.8,7.6c0.7,0.5,1.5,0.8,2.3,1c0.8,0.2,1.7,0.2,2.5-0.2
		c0.6-0.3,0.8-0.7,0.7-1.1c-0.2-0.5-0.6-0.5-1-0.5c-0.2,0-0.3,0-0.5,0c-1,0-1.8-0.2-2.6-0.8c-2.9-2-4-4.9-4-8.3
		c0-0.4,0.2-0.9,0.4-1.3c0.3-0.6,1-0.8,1.5-0.6c0.4,0.2,0.7,0.9,0.5,1.5c-0.1,0.2-0.2,0.5-0.2,0.7c-0.1,0.4,0.1,0.8,0.5,0.8
		c0.3,0.1,0.6-0.1,0.8-0.2c0.2-0.2,0.4-0.5,0.5-0.8c0.5-1.3-0.1-3.1-1.3-3.8c-1.3-0.8-2.9-0.5-3.9,0.7
		C80.6,190.2,80.3,191.3,80.3,192.6z M231,178.9c0.2,0,0.4,0,0.7,0c0.4,0,0.7-0.1,0.8-0.5c0.1-0.4,0-0.7-0.4-0.9
		c-0.4-0.2-0.8-0.5-1.3-0.6c-1.2-0.3-2.4,0.1-3.3,0.8c-2,1.5-2.9,3.6-2.7,6c0.3,3.8,3.5,7.4,7.2,8.3c0.7,0.2,1.5,0.2,2.3,0.2
		c0.7,0,1.1-0.4,1.1-0.8c0-0.6-0.5-0.7-0.9-0.9c-0.7-0.2-1.4-0.4-2-0.6c-2.5-0.9-4.1-2.6-5-5.1c-0.6-1.7-0.4-3.4,0.8-4.8
		C228.9,179.2,229.8,178.7,231,178.9z M100.5,205.3c0,0,0.1,0,0.1,0c-0.1-0.8-0.2-1.7-0.4-2.5c-0.1-0.5-0.4-1.1-0.8-1.5
		c-0.4-0.5-1-0.7-1.7-0.5c-0.7,0.2-1,0.7-1.1,1.3c-0.2,2,0.4,3.7,1.7,5.2c0.1,0.1,0.1,0.1,0.2,0.2c0.8,0.5,1.8,0,1.9-1
		C100.6,206,100.5,205.7,100.5,205.3z M89.3,178.5c0.4-0.1,0.8-0.1,1.2-0.2c0.4-0.1,0.6-0.4,0.6-0.8c0-0.4-0.2-0.7-0.6-0.8
		c-0.3-0.1-0.7-0.1-1-0.2c-0.4-0.1-0.9-0.1-1.3-0.3c-1.4-0.5-2.3-1.4-3-2.7c-0.2-0.3-0.3-0.7-0.5-0.9c-0.2-0.2-0.5-0.4-0.7-0.3
		c-0.2,0.1-0.4,0.4-0.5,0.6c-0.1,0.3-0.1,0.6,0,0.9c0.1,1.1,0.6,2,1.3,2.7C85.9,177.7,87.5,178.4,89.3,178.5z M181.9,216.3
		c0-0.1,0-0.2,0-0.3c-0.3-1.4-2.5-3.2-4-3.1c-1,0-1.5,0.7-1.2,1.7c0.4,1.1,1,2.1,2,2.8c0.4,0.3,1,0.6,1.6,0.6
		C181.1,218.1,181.9,217.3,181.9,216.3z M178.7,205.7c1.5-0.1,2.7-0.8,3.7-1.9c0.6-0.7,0.6-1.6,0.2-2.2c-0.5-0.6-1.3-0.9-2.2-0.6
		c-1.5,0.6-2.5,1.8-3.1,3.3c0,0.1-0.1,0.2-0.1,0.3c0,0.5,0.2,0.8,0.6,0.9C178.2,205.7,178.4,205.7,178.7,205.7z M95.5,211.3
		c0.8-0.2,1.4-0.3,2-0.4c0.6-0.1,0.9-0.5,0.9-1.2c0-0.6-0.3-1-0.8-1.2c-1-0.3-1.9-0.6-2.9-0.9c-0.4-0.1-0.8-0.1-1.1,0
		c-0.8,0.1-1.5,0.7-1.6,1.3c-0.1,0.7,0.2,1.3,1,1.7C93.9,210.9,94.8,211.1,95.5,211.3z M95.1,215.9c0,0.9,0.2,1.4,0.8,1.7
		c0.5,0.3,1.1,0.2,1.5-0.1c0.4-0.4,0.8-0.8,1.2-1.3c0.4-0.6,0.8-1.3,1.1-2c0.3-0.5,0.5-0.9,0.1-1.4c-0.3-0.4-1.1-0.6-1.7-0.4
		c-0.5,0.3-1.1,0.5-1.6,0.9C95.7,214,95.2,215,95.1,215.9z M181.4,211.5c0.3-0.1,0.8-0.1,1.2-0.3c1.1-0.5,1.2-1.8,0.3-2.5
		c-1.2-1-3.3-1.3-4.7-0.6c-0.8,0.4-1,1.1-0.4,1.7C178.7,210.6,179.9,211.3,181.4,211.5z M236.4,189c1,0,1.8-0.9,1.8-1.9
		c0-0.9-0.9-1.7-1.8-1.7c-1,0-1.8,0.9-1.8,1.8C234.5,188.2,235.4,189.1,236.4,189z M85.3,186c0.9,0,1.7-0.8,1.7-1.7
		c0-1-0.8-1.8-1.7-1.8c-0.9,0-1.7,0.8-1.7,1.7C83.6,185.2,84.4,186,85.3,186z M246.7,227.2c-1,0-1.8,0.8-1.8,1.8
		c0,0.9,0.8,1.6,1.6,1.6c1,0,1.8-0.8,1.8-1.7C248.4,227.9,247.7,227.2,246.7,227.2z"/>
	<path class="st0" d="M115.7,278.3c-0.1,2.9-0.3,6.3-1.3,9.7c-1.9,5.9-5.5,10.2-11.4,12.4c-3.2,1.2-6.5,2-10,1.7
		c-9-0.8-16.2-4.6-21.1-12.5c-2.5-4.1-4.2-8.4-4.8-13.2c-0.6-5.1,0.1-10,3.2-14.3c1.3-1.8,2.6-3.5,4.3-5.1c3.4-3.2,7.5-5.1,12.2-5.7
		c7.7-1.1,14.7,0.8,20.8,5.6c2.5,2,4.2,4.5,5.5,7.4C114.9,268.5,115.7,273,115.7,278.3z M91.7,264.2c-3.5,0-5.7,1-7.6,2.6
		c-1.8,1.5-3.2,3.3-4.3,5.4c-1,1.9-1.4,4-1,6.1c0.2,1.3,0.6,2.6,1.1,3.9c0.9,2.3,2.2,4.3,4.1,5.8c2.7,2.3,5.8,3.3,9.3,2.1
		c3.1-1,5.7-2.8,7.7-5.3c1.6-1.9,2.4-4.2,2.3-6.7c-0.2-4.4-1.9-8.1-5.2-11C96,265.2,93.5,264.2,91.7,264.2z M109.7,270.7
		c-0.1-0.5-0.1-0.8-0.1-1.1c-0.1-0.5-0.3-1.1-0.5-1.6c-1.4-3.4-3.7-5.9-6.7-7.9c-0.1-0.1-0.3-0.2-0.4-0.2c-0.7-0.3-1.4-0.1-1.8,0.4
		c-0.4,0.5-0.4,1.3,0,1.9c0.1,0.2,0.3,0.4,0.5,0.6c0.6,0.6,1.3,1.3,1.9,1.9c1.9,1.8,3.3,3.8,4.1,6.3c0.1,0.3,0.2,0.7,0.4,1
		c0.6,0.9,1.7,0.9,2.2,0C109.5,271.5,109.6,271,109.7,270.7z M112.7,279.4c-0.1-0.8-0.2-1.5-0.4-2.2c-0.1-0.6-0.6-0.9-1.2-1
		c-0.6-0.1-1.1,0.2-1.4,0.8c-0.1,0.2-0.2,0.5-0.3,0.7c-0.2,0.8-0.3,1.6-0.4,2.4c-0.2,2.7-0.9,5.3-2.6,7.5c-0.1,0.1-0.1,0.2-0.2,0.3
		c-0.3,0.5-0.3,1,0.1,1.4c0.3,0.4,0.8,0.7,1.4,0.5c0.5-0.2,1.1-0.4,1.5-0.8c0.5-0.5,1-1.1,1.4-1.7
		C112,284.9,112.4,282.2,112.7,279.4z M89.7,255.6c-2.6,0.1-5,1-7.1,2.7c-0.4,0.3-0.8,0.8-1.1,1.3c-0.5,0.9,0.2,2,1.3,2
		c0.3,0,0.6-0.1,0.8-0.2c0.6-0.3,1.2-0.5,1.7-0.9c2.1-1.3,4.3-1.7,6.7-1.4c0.3,0,0.6,0.1,1,0.1c1.1,0,1.8-0.4,2-1.2
		c0.1-0.7-0.3-1.3-1.3-1.8C92.4,255.9,91.1,255.7,89.7,255.6z M72.4,281c0.2,2.9,0.9,5.5,2,7.9c0.1,0.1,0.2,0.3,0.3,0.4
		c0.4,0.5,1,0.7,1.5,0.5c0.6-0.2,0.9-0.6,0.9-1.2c0-0.2,0-0.4,0-0.6c-0.2-1-0.4-1.9-0.6-2.9c-0.3-1.6-0.7-3.2-1-4.8
		c-0.1-0.6-0.1-1.3-0.2-1.9c-0.1-0.6-0.3-1.1-1-1.2c-0.7-0.1-1.1,0.4-1.3,0.9c-0.2,0.3-0.3,0.7-0.4,1.1
		C72.5,279.9,72.5,280.5,72.4,281z M96,297.5C96,297.5,96.1,297.5,96,297.5c0.4-0.1,0.7-0.1,1.1-0.2c2.4-0.6,4.6-1.8,6.4-3.4
		c0.2-0.2,0.4-0.4,0.6-0.6c0.5-0.7,0.6-1.4,0.1-1.9c-0.4-0.5-1.1-0.7-1.8-0.3c-0.6,0.3-1.2,0.6-1.7,1c-1.7,1.2-3.5,2.1-5.5,2.5
		c-0.2,0-0.4,0.1-0.6,0.2c-0.5,0.2-0.9,0.5-0.9,1.1c0,0.6,0.3,1.1,0.8,1.3C94.9,297.3,95.5,297.4,96,297.5z M88,297.6
		c0.3-0.1,0.7-0.1,1.1-0.3c0.6-0.3,0.8-0.8,0.7-1.5c-0.1-0.5-0.3-1-0.8-1.2c-0.8-0.2-1.7-0.4-2.5-0.6c-1.8-0.3-3.4-1.1-5-2.2
		c-0.3-0.2-0.6-0.4-1-0.6c-0.5-0.3-1-0.3-1.4,0.1c-0.4,0.3-0.6,0.9-0.3,1.5c0.3,0.5,0.6,1,1,1.4C82.1,296.4,84.9,297.2,88,297.6z
		 M72.8,272c0,0.4,0,0.6,0,0.8c0.1,0.6,0.3,1.1,0.9,1.3c0.6,0.2,1.2-0.1,1.5-0.6c0.3-0.4,0.6-0.9,0.8-1.4c0.5-1.9,1.2-3.7,2-5.4
		c0.2-0.4,0.3-0.9,0.3-1.3c0-1.2-1.1-1.7-2.1-1.1c-0.3,0.2-0.5,0.4-0.7,0.6C73.8,267,73.1,269.5,72.8,272z"/>
	<path class="st0" d="M215.2,232c-0.4-0.8-0.4-1.5-0.2-2.2c0.2-1,0.4-2.1,0.8-3c0.4-1.3,0.9-1.4,2.1-0.7c0.1,0.1,0.2,0.1,0.4,0.3
		c-0.1,0.6-0.2,1.2-0.3,1.8c-0.1,0.3-0.1,0.7-0.1,1c0,0.5,0,1-0.4,1.4C216.8,231,216.3,231.8,215.2,232z"/>
	<path class="st0" d="M194.9,226.5c0.1-1.7,0.2-3.2,1-4.6C197,223,196.6,224.9,194.9,226.5z"/>
	<path class="st0" d="M207.7,227.5c0.2-0.7,0.5-1.5,0.8-2.2c0.5,0.3,0.6,0.6,0.5,1c-0.1,0.6-0.5,1.1-1.1,1.4
		C207.8,227.6,207.7,227.6,207.7,227.5z"/>
	<path class="st0" d="M223.8,223.4c0.6,0.3,0.7,0.9,0.9,1.5C223.9,224.6,223.8,224.1,223.8,223.4z"/>
	<path class="st0" d="M137.1,225.9c1.2,0.4,1.6,1.4,1.8,2.5c-0.8,0.3-1.4,0.1-1.9-0.5C136.5,227.2,136.5,226.7,137.1,225.9z"/>
	<path class="st0" d="M120.8,183.6c-0.4-3.2-0.6-6.2-1.4-9.2c2.2-0.7,3.9,0.1,4.6,2.2c0.4,1.3,0.6,2.6,0.2,3.9
		C123.7,182.2,122.6,183.2,120.8,183.6z"/>
	<path class="st0" d="M121.3,192.6c-0.1-2.1-0.2-4.2-0.3-6.3c2.7-0.8,4.8,0.8,4.9,3.4c0,0.7-0.3,1.2-0.8,1.7
		C124.2,192.1,122.9,192.6,121.3,192.6z"/>
	<path class="st0" d="M144.9,186.4c0.3-3.5,0.7-6.8,1.7-10.1c1.1,3.2,1.6,6.5,2.6,9.8C147.8,186.2,146.4,186.3,144.9,186.4z"/>
	<path class="st0" d="M92,189.2c0.3-1.1,0.6-2.1,0.9-3.1c0.8-2.5,1.5-5.1,2.3-7.6c0.2-0.6,0.5-1.2,0.8-1.8c0.1-0.3,0.4-0.5,0.7-0.9
		c2.2,4.3,3.2,8.7,4.4,13.1C97.9,189,95,189.1,92,189.2z"/>
	<path class="st0" d="M173.2,229.7c-0.1,1.7-0.5,3-1.4,4.3c-0.1,0.1-0.2,0.2-0.3,0.3c-0.7,0.6-1.2,0.5-1.7-0.3
		c-0.4-0.8-0.6-1.7-0.6-2.6c0-1.1,0.2-2.2,0.6-3.3C170.7,229.1,171.8,229.7,173.2,229.7z"/>
	<path class="st0" d="M179.5,236c-0.7-1.1-0.8-2.3-0.8-3.4c0.9,0.2,1.6,1,1.7,1.8C180.6,235,180.3,235.4,179.5,236z"/>
	<path class="st0" d="M170.7,226.1c0.3-0.4,0.7-0.4,1.1,0c0.6,0.5,1,1.2,1.2,2C171.8,227.9,171.1,227.2,170.7,226.1z"/>
	<path class="st0" d="M179.1,225.2c0-0.9,0.2-1.6,0.5-2.3c0.1-0.1,0.3-0.2,0.5-0.3c0.1,0.2,0.2,0.4,0.2,0.6
		C180.1,223.9,179.7,224.5,179.1,225.2z"/>
	<path class="st0" d="M217.6,205.4c0.4,1.6,0.7,3.3,1.1,5c-0.8,0-1.6,0-2.4,0c0.4-1.7,0.7-3.3,1.1-5
		C217.5,205.4,217.6,205.4,217.6,205.4z"/>
	<path class="st0" d="M142.4,203.2c0.8,0.2,1.2,0.6,1.6,1c1.5,1.6,2,3.6,2.2,5.7c0.1,0.7,0.1,1.5-0.1,2.2c-0.4,2-1.7,3.2-3.6,4.2
		c0-0.5-0.1-0.8-0.1-1.2c0-2.8,0-5.7,0-8.5c0-0.6,0-1.3-0.1-1.9C142.4,204.2,142.4,203.8,142.4,203.2z"/>
	<path class="st0" d="M122,212c-1.6,0-3,0-4.6,0c0.8-2.9,1.5-5.7,3.1-8.3C121.2,206.4,121.6,209.1,122,212z"/>
	<path class="st0" d="M130.4,210.6c0.2-2.6,0.4-5.1,0.7-7.7c1.5,0.2,2.5,0.8,3.3,2c0.6,0.9,0.7,1.9,0.2,2.8
		C133.6,209.3,132.2,210.1,130.4,210.6z"/>
</g>
</svg>
