<?xml version="1.0" encoding="utf-8"?>
<!-- Generator: Adobe Illustrator 23.0.1, SVG Export Plug-In . SVG Version: 6.00 Build 0)  -->
<svg version="1.1" id="Calque_1" xmlns="http://www.w3.org/2000/svg" xmlns:xlink="http://www.w3.org/1999/xlink" x="0px" y="0px"
	 viewBox="0 0 432 432" style="enable-background:new 0 0 432 432;" xml:space="preserve">
<style type="text/css">
	.st0{fill:#282828;}
	.st1{fill:#BF9C63;}
	.st2{fill:#C74E26;}
	.st3{fill:#036838;}
	.st4{fill:#9E1D28;}
	.st5{fill:#B3C66B;}
	.st6{fill:#C9678F;}
	.st7{fill:#6B4319;}
	.st8{fill:#DEAC57;}
	.st9{fill:#BF762C;}
	.st10{fill:#FBD66C;}
	.st11{fill:#B0BA87;}
	.st12{fill:#F29188;}
	.st13{fill:#746357;}
	.st14{fill:#7E8C66;}
	.st15{fill:#6493A8;}
	.st16{fill:#362317;}
	.st17{fill:#544841;}
	.st18{fill:#162640;}
	.st19{fill:#8FB368;}
	.st20{fill:#F2ACA5;}
	.st21{fill:#B68C57;}
	.st22{fill:#D5A8B2;}
	.st23{fill:#B6C8A3;}
	.st24{fill:#E0D8D1;}
	.st25{fill:#3C628E;}
	.st26{fill:#C7D2D8;}
	.st27{fill:#7D95B2;}
	.st28{fill:#B4B4B4;}
	.st29{fill:#9EAE87;}
	.st30{fill:#634E42;}
	.st31{fill:#EBCCD2;}
	.st32{fill:none;}
	.st33{fill:#C78140;}
	.st34{fill:#C69C6D;}
	.st35{fill:#A67C52;}
	.st36{fill:#A67D52;}
	.st37{fill:#827270;}
	.st38{fill:#499E49;}
	.st39{fill:#FBB959;}
	.st40{fill:#4D4D4D;}
	.st41{fill:#BA2314;}
	.st42{fill:#EB9BAB;}
	.st43{fill:#ABB9CE;}
	.st44{fill:#6595AA;}
	.st45{fill:#3E6689;}
	.st46{fill:#C0864D;}
	.st47{fill:#333333;}
	.st48{fill:#B5CCD8;}
	.st49{fill:#A6C882;}
	.st50{fill:#5E9581;}
	.st51{fill:#E3691E;}
	.st52{fill:#C75C1A;}
	.st53{fill:#DD852D;}
	.st54{fill:#A29E35;}
	.st55{fill:#AA4A3A;}
	.st56{fill:#C1272D;}
	.st57{fill:#E6E6E6;}
	.st58{fill:#FBB03B;}
	.st59{fill:#DFEBF2;}
	.st60{fill:#C0BA63;}
</style>
<g>
	<g>
		<g>
			<path class="st0" d="M336.602,200.477c-0.18,0.28-0.108,0.515-0.09,0.737c0.4,5.008,0.307,10.013-0.184,15.007
				c-0.709,7.209-1.942,14.315-4.483,21.135c-1.262,3.386-2.839,6.613-5.106,9.461c-0.792,0.995-1.664,1.911-2.669,2.695
				c-3.75,2.922-8.624,3.232-12.707,0.796c-1.699-1.014-3.131-2.339-4.413-3.838c-2.408-2.813-4.144-6.012-5.45-9.456
				c-1.374-3.626-2.18-7.39-2.661-11.229c-0.074-0.593-0.154-1.186-0.228-1.758c-0.297-0.084-0.513,0.025-0.727,0.087
				c-1.99,0.577-3.963,1.209-5.903,1.939c-0.823,0.309-0.703,0.262-0.713,1.048c-0.052,4.007-0.335,7.994-1.054,11.943
				c-0.403,2.216-0.97,4.384-1.897,6.443c-1.046,2.324-2.477,4.358-4.591,5.834c-2.342,1.635-4.921,2.367-7.767,1.791
				c-2.32-0.469-3.939-1.831-4.757-4.07c-0.884-2.42-0.759-4.867-0.074-7.304c0.999-3.552,2.976-6.529,5.512-9.154
				c2.074-2.147,4.47-3.895,7.022-5.424c0.538-0.323,0.736-0.67,0.724-1.295c-0.055-2.793-0.026-5.587-0.089-8.38
				c-0.09-4.03-0.231-8.059-0.358-12.088c-0.008-0.245,0.059-0.518-0.176-0.767c-0.192,0.245-0.231,0.524-0.311,0.786
				c-1.665,5.449-3.182,10.943-4.991,16.349c-0.557,1.666-1.149,3.318-1.894,4.911c-0.514,1.1-1.121,2.142-1.903,3.076
				c-1.745,2.085-4.151,2.804-6.76,2.007c-1.728-0.528-3.136-1.552-4.351-2.861c-1.164-1.255-2.086-2.677-2.871-4.192
				c-1.751-3.38-2.81-6.984-3.48-10.715c-0.045-0.25-0.025-0.52-0.294-0.808c-0.192,1.265-0.383,2.459-0.552,3.656
				c-0.761,5.387-1.397,10.791-2.27,16.161c-0.702,4.319-1.491,8.622-2.93,12.773c-0.312,0.899-0.676,1.775-1.174,2.59
				c-1.314,2.153-3.597,2.858-5.902,1.817c-1.015-0.458-1.85-1.161-2.602-1.967c-1.389-1.489-2.415-3.221-3.31-5.034
				c-1.655-3.354-2.696-6.909-3.425-10.563c-0.615-3.083-0.889-6.206-1.082-9.34c-0.14-2.272-0.156-4.545-0.187-6.828
				c-0.318,0.032-0.268,0.285-0.314,0.457c-1.149,4.28-2.281,8.565-3.444,12.841c-0.552,2.028-1.189,4.031-2.05,5.954
				c-0.531,1.187-1.146,2.325-1.984,3.328c-0.969,1.157-2.143,2.004-3.645,2.319c-1.776,0.372-3.367-0.068-4.795-1.147
				c-1.121-0.847-1.96-1.943-2.665-3.143c-1.366-2.325-2.268-4.838-2.997-7.425c-1.256-4.456-1.66-8.999-1.336-13.599
				c0.266-3.786,1.074-7.458,2.764-10.891c1.159-2.353,2.637-4.466,4.782-6.034c3.272-2.392,6.833-2.858,10.64-1.52
				c1.876,0.659,3.497,1.739,4.959,3.074c0.23,0.21,0.414,0.479,0.724,0.618c0.215-0.144,0.225-0.381,0.273-0.593
				c0.134-0.589,0.266-1.178,0.384-1.77c0.29-1.447,1.055-2.051,2.542-1.97c1.484,0.08,3.311,1.063,3.53,3.275
				c0.183,1.851-0.03,3.682-0.147,5.518c-0.309,4.858-0.539,9.714-0.324,14.587c0.197,4.463,0.64,8.898,1.288,13.314
				c0.46,3.137,1.11,6.232,2.24,9.209c0.441,1.161,0.978,2.274,1.642,3.323c0.2,0.316,0.415,0.625,0.654,0.911
				c0.423,0.506,0.51,0.501,0.882-0.043c0.573-0.838,0.963-1.768,1.304-2.718c1.024-2.853,1.667-5.806,2.239-8.774
				c1.259-6.53,2.229-13.108,3.308-19.669c0.659-4.005,1.293-8.013,1.956-12.017c0.1-0.601,0.149-1.198,0.131-1.804
				c-0.072-2.419-0.111-4.839,0.007-7.256c0.128-2.616,0.303-5.23,0.827-7.806c0.161-0.792,0.377-1.569,0.744-2.292
				c0.611-1.203,1.797-1.713,3.213-1.399c1.302,0.289,2.136,1.227,2.152,2.552c0.015,1.179-0.063,2.36-0.11,3.539
				c-0.079,1.985-0.223,3.97-0.239,5.955c-0.054,6.608,0.514,13.168,1.63,19.682c0.448,2.612,0.95,5.208,1.767,7.733
				c0.409,1.262,0.915,2.485,1.555,3.648c0.503,0.915,1.103,1.76,1.918,2.425c0.83,0.677,1.408,0.664,2.224-0.03
				c0.668-0.567,1.145-1.289,1.584-2.036c1.011-1.721,1.75-3.564,2.414-5.438c2.188-6.166,3.859-12.48,5.348-18.844
				c0.754-3.222,1.404-6.464,1.94-9.73c0.26-1.588,1.092-2.235,2.707-2.061c1.69,0.181,2.885,1.07,3.489,2.688
				c0.498,1.334,0.671,2.738,0.823,4.139c0.509,4.667,0.775,9.351,0.936,14.043c0.13,3.769,0.252,7.539,0.322,11.31
				c0.003,0.143,0.022,0.285,0.033,0.413c0.227,0.142,0.405,0.015,0.588-0.053c1.942-0.722,3.895-1.416,5.896-1.957
				c0.477-0.129,0.621-0.349,0.603-0.847c-0.133-3.577,0.05-7.138,0.638-10.672c0.626-3.765,1.649-7.412,3.299-10.865
				c0.748-1.565,1.631-3.046,2.852-4.3c1.746-1.793,3.838-2.71,6.366-2.486c1.835,0.162,3.438,0.897,4.849,2.066
				c1.624,1.345,2.831,3.028,3.823,4.86c1.962,3.621,3.059,7.502,3.304,11.615c0.072,1.213-0.053,2.417-0.321,3.602
				c-0.482,2.133-1.714,3.674-3.699,4.604c-1.601,0.75-3.297,1.204-5.015,1.569c-2.758,0.587-5.52,1.15-8.289,1.682
				c-0.943,0.181-0.845,0.25-0.777,1.072c0.311,3.772,1.058,7.46,2.153,11.08c0.861,2.844,1.902,5.614,3.372,8.208
				c0.755,1.332,1.622,2.584,2.641,3.729c0.655,0.736,1.393,1.375,2.245,1.875c1.715,1.005,3.443,1.011,5.17,0.043
				c1.227-0.687,2.201-1.665,3.054-2.766c1.33-1.716,2.376-3.602,3.285-5.567c2.005-4.334,3.32-8.889,4.313-13.544
				c0.908-4.256,1.492-8.558,1.755-12.903c0.263-4.35,0.144-8.69-0.31-13.024c-0.051-0.489-0.24-0.684-0.698-0.804
				c-2.717-0.713-5.295-1.771-7.678-3.267c-4.021-2.525-6.92-5.955-8.313-10.547c-0.774-2.551-0.96-5.143-0.263-7.75
				c0.285-1.065,0.732-2.059,1.387-2.954c1.617-2.21,4.187-2.975,6.747-2.005c1.125,0.426,2.074,1.118,2.921,1.958
				c1.819,1.805,3.202,3.918,4.341,6.199c1.736,3.477,2.78,7.183,3.596,10.962c0.371,1.716,0.683,3.443,0.912,5.185
				c0.108,0.818,0.118,0.832,0.918,0.965c2.396,0.398,4.806,0.556,7.229,0.325c2.532-0.242,4.688,1.059,5.601,3.422
				c0.376,0.975,0.57,1.989,0.584,3.037c0.036,2.68-0.128,5.351-0.322,8.021c-0.162,2.238-0.293,4.477-0.429,6.717
				c-0.208,3.446-0.426,6.891-0.606,10.338c-0.105,2.012-0.169,4.027-0.208,6.042c-0.151,7.688-0.351,15.375-0.391,23.064
				c-0.004,0.779-0.048,1.553-0.135,2.327c-0.114,1.007-0.647,1.697-1.553,2.122c-0.787,0.37-1.612,0.437-2.448,0.261
				c-1.199-0.251-1.86-1.005-2.076-2.243c-0.243-1.397-0.223-2.813-0.278-4.218c-0.275-6.938-0.242-13.878-0.037-20.817
				c0.096-3.251,0.221-6.502,0.377-9.751c0.139-2.902,0.297-5.803,0.519-8.7c0.299-3.901,0.524-7.806,0.773-11.71
				c0.099-1.557-0.029-3.106-0.177-4.655c-0.036-0.383-0.2-0.551-0.586-0.592c-1.431-0.154-2.86-0.327-4.288-0.503
				C337.865,200.667,337.22,200.565,336.602,200.477z M216.903,221.62c0.019,3.199,0.167,6.388,0.72,9.545
				c0.334,1.904,0.77,3.779,1.642,5.523c0.337,0.674,0.739,1.3,1.311,1.805c0.417,0.368,0.861,0.425,1.352,0.166
				c0.36-0.189,0.68-0.432,0.973-0.711c0.654-0.621,1.159-1.355,1.591-2.14c0.739-1.341,1.287-2.764,1.768-4.213
				c1.189-3.581,2.066-7.248,2.997-10.9c1.159-4.544,2.308-9.091,3.473-13.633c0.106-0.412,0.138-0.757-0.149-1.127
				c-1.255-1.624-2.774-2.91-4.645-3.774c-1.451-0.67-2.841-0.559-4.202,0.256c-1.132,0.678-2.037,1.592-2.82,2.637
				c-1.418,1.894-2.336,4.024-2.938,6.297C217.087,214.717,216.886,218.158,216.903,221.62z M305.295,219.4
				c0.164-0.008,0.309,0.002,0.447-0.026c2.677-0.543,5.353-1.087,8.028-1.639c1.268-0.262,2.523-0.567,3.727-1.06
				c1.199-0.491,1.974-1.355,2.359-2.583c0.277-0.885,0.422-1.794,0.419-2.718c-0.015-4.893-1.621-9.186-4.892-12.839
				c-0.5-0.559-1.077-1.035-1.719-1.432c-0.608-0.376-1.187-0.351-1.78,0.028c-0.566,0.362-1.031,0.829-1.447,1.347
				c-0.744,0.925-1.32,1.955-1.814,3.029c-2.561,5.572-3.507,11.46-3.402,17.55C305.223,219.165,305.267,219.274,305.295,219.4z
				 M332.574,197.091c0.112-0.125,0.05-0.266,0.03-0.404c-0.629-4.248-1.596-8.411-3.166-12.418
				c-0.811-2.069-1.81-4.039-3.115-5.844c-0.625-0.864-1.29-1.693-2.1-2.394c-1.354-1.172-2.211-1.076-3.305,0.368
				c-0.314,0.414-0.577,0.859-0.796,1.33c-0.54,1.162-0.84,2.39-0.851,3.668c-0.034,3.916,1.3,7.322,3.942,10.2
				c2.455,2.674,5.544,4.343,8.944,5.49C332.291,197.13,332.432,197.171,332.574,197.091z M284.289,229.835
				c-0.294-0.033-0.425,0.095-0.567,0.181c-1.597,0.978-3.117,2.063-4.499,3.331c-2.241,2.056-3.956,4.473-4.989,7.347
				c-0.569,1.584-0.895,3.213-0.747,4.906c0.109,1.247,0.411,2.438,1.146,3.48c1.102,1.562,2.863,1.987,4.564,1.108
				c0.702-0.363,1.28-0.871,1.76-1.495c0.655-0.852,1.125-1.799,1.487-2.807c0.823-2.293,1.123-4.687,1.372-7.09
				c0.249-2.403,0.308-4.819,0.468-7.227C284.322,231.001,284.289,230.429,284.289,229.835z"/>
			<path class="st0" d="M200.139,197.586c-0.33,0.25-0.583,0.429-0.822,0.625c-3.485,2.835-6.846,5.82-10.417,8.55
				c-0.389,0.297-0.75,0.642-1.172,0.883c-0.652,0.373-0.769,0.88-0.673,1.586c0.295,2.172,0.368,4.361,0.298,6.551
				c-0.086,2.665-0.5,5.27-1.544,7.744c-1.604,3.8-4.169,6.731-7.876,8.603c-1.588,0.802-3.271,1.263-5.064,1.265
				c-0.961,0.001-1.89-0.168-2.791-0.493c-3.178-1.145-4.591-3.948-4.214-7.106c0.257-2.152,1.245-3.993,2.555-5.677
				c1.137-1.461,2.474-2.73,3.874-3.933c2.317-1.991,4.757-3.828,7.238-5.605c0.683-0.489,0.934-0.95,0.835-1.835
				c-0.326-2.9-0.806-5.755-1.798-8.508c-0.548-1.522-1.19-3.005-2.191-4.29c-1.382-1.776-1.97-2.057-4.163-0.836
				c-1.538,0.856-2.679,2.165-3.673,3.598c-1.205,1.736-2.102,3.638-2.911,5.579c-2.341,5.611-3.804,11.461-4.692,17.464
				c-0.98,6.624-0.918,13.255-0.203,19.898c0.361,3.35,0.882,6.677,1.329,10.014c0.206,1.539,0.44,3.076,0.421,4.637
				c-0.025,2.077-1.378,3.211-3.453,2.91c-0.822-0.119-1.535-0.475-2.203-0.937c-1.265-0.875-2.347-1.947-3.343-3.111
				c-3.545-4.143-6.063-8.866-7.941-13.962c-1.721-4.669-2.806-9.482-3.464-14.404c-0.555-4.144-0.856-8.302-0.827-12.485
				c0.035-4.995,0.584-9.938,1.458-14.849c0.519-2.918,1.088-5.827,1.997-8.655c0.247-0.767,0.509-1.531,0.889-2.244
				c0.653-1.228,1.59-1.695,2.921-1.472c1.292,0.216,2.159,1.103,2.337,2.422c0.114,0.84-0.071,1.665-0.2,2.487
				c-0.549,3.496-1.202,6.975-1.691,10.482c-0.798,5.72-1.162,11.456-0.775,17.225c0.482,7.183,1.741,14.223,4.114,21.033
				c1.509,4.332,3.379,8.505,5.868,12.379c0.26,0.405,0.54,0.797,0.895,1.318c0.143-0.386,0.114-0.636,0.09-0.873
				c-0.355-3.58-0.716-7.159-1.076-10.738c-1.397-13.892,0.167-27.412,5.105-40.504c0.876-2.322,1.956-4.547,3.293-6.642
				c0.811-1.271,1.768-2.414,2.953-3.358c2.373-1.891,4.987-2.245,7.796-1.179c1.936,0.735,3.476,2.017,4.729,3.646
				c1.98,2.574,3.214,5.503,4.052,8.616c0.163,0.604,0.309,1.213,0.452,1.778c0.231,0.097,0.337-0.019,0.444-0.102
				c4.275-3.33,8.437-6.789,12.129-10.775c0.567-0.612,1.108-1.252,1.611-1.917c0.913-1.206,2.134-1.418,3.478-1.053
				c1.591,0.432,2.53,1.505,2.817,3.151c0.227,1.301,0.07,2.593-0.098,3.872c-0.565,4.308-1.224,8.603-1.773,12.913
				c-0.469,3.682-0.829,7.377-1.135,11.077c-0.617,7.469-0.81,14.949-0.609,22.437c0.107,3.998,0.301,7.995,0.592,11.986
				c0.144,1.981,0.248,3.963,0.562,5.927c0.069,0.428,0.185,0.841,0.318,1.253c0.166,0.516,0.5,0.729,1.036,0.712
				c1.04-0.032,2.06-0.221,3.084-0.372c2.821-0.416,5.564-1.223,8.378-1.676c0.111-0.018,0.233-0.047,0.322-0.111
				c1.221-0.886,2.26-0.126,3.271,0.423c0.563,0.305,0.546,1.006,0.094,1.493c-0.239,0.258-0.552,0.41-0.854,0.578
				c-1.304,0.728-2.748,1.008-4.186,1.304c-3.242,0.667-6.483,1.333-9.791,1.607c-0.928,0.077-1.844,0.048-2.749-0.15
				c-1.935-0.422-3.313-1.532-4.099-3.364c-0.63-1.468-0.929-3.023-1.196-4.583c-0.829-4.827-1.368-9.685-1.611-14.578
				c-0.219-4.405-0.16-8.807-0.009-13.211c0.065-1.899,0.137-3.798,0.254-5.694c0.227-3.676,0.547-7.344,0.954-11.005
				c0.363-3.261,0.773-6.515,1.262-9.758c0.347-2.304,0.741-4.601,1.119-6.9C200.128,198.353,200.222,198.048,200.139,197.586z
				 M180.589,213.216c-0.375,0.037-0.513,0.196-0.669,0.315c-1.579,1.205-3.141,2.433-4.651,3.725
				c-1.117,0.955-2.212,1.934-3.187,3.036c-1.155,1.306-2.102,2.733-2.565,4.445c-0.343,1.269-0.324,2.508,0.251,3.701
				c0.678,1.408,1.889,1.923,3.36,1.441c1.115-0.366,2.058-1.022,2.896-1.831c1.415-1.366,2.38-3.016,3.063-4.849
				c0.812-2.176,1.18-4.441,1.359-6.742C180.528,215.403,180.542,214.343,180.589,213.216z"/>
			<path class="st0" d="M360.504,197.652c0.102,4.892,1.192,9.571,3.062,14.081c1.182,2.85,2.619,5.569,4.179,8.228
				c2.126,3.623,4.297,7.223,6.166,10.99c1.5,3.024,2.773,6.137,3.474,9.454c0.502,2.374,0.827,4.773,0.45,7.197
				c-0.685,4.401-2.975,7.783-6.833,9.961c-4.092,2.31-8.34,0.763-10.94-2.19c-2.352-2.672-3.573-5.863-3.71-9.454
				c-0.087-2.263,0.147-4.478,0.707-6.67c0.235-0.919,0.604-1.792,0.816-2.723c0.219-0.96,1.3-1.389,2.217-1.004
				c0.52,0.218,0.788,0.593,0.686,1.154c-0.226,1.244-0.336,2.506-0.667,3.735c-1.057,3.921-0.525,7.638,1.516,11.145
				c0.757,1.301,1.806,2.308,3.103,3.055c0.346,0.199,0.725,0.357,1.107,0.475c0.965,0.299,1.795,0.123,2.482-0.69
				c1.476-1.748,2.28-3.771,2.6-6.017c0.46-3.234-0.087-6.362-0.958-9.458c-0.578-2.055-1.353-4.034-2.255-5.968
				c-1.326-2.844-2.776-5.622-4.351-8.338c-2.165-3.734-4.333-7.474-5.998-11.467c-2.031-4.87-3.364-9.909-3.443-15.229
				c-0.038-2.61,0.209-5.172,1.075-7.652c0.421-1.205,1.01-2.32,1.77-3.344c2.212-2.983,5.322-3.976,8.858-2.823
				c2.222,0.725,4.054,2.048,5.581,3.784c3.014,3.425,4.394,7.44,4.171,11.994c-0.045,0.918-0.173,1.834-0.448,2.719
				c-0.262,0.844-0.717,1.176-1.501,1.117c-0.762-0.058-1.209-0.494-1.291-1.355c-0.134-1.403-0.203-2.813-0.35-4.215
				c-0.218-2.077-0.751-4.072-1.729-5.931c-0.705-1.34-1.619-2.516-2.794-3.478c-2.416-1.979-4.189-1.558-5.475,1.304
				c-0.571,1.271-0.856,2.623-1.046,3.994C360.57,195.231,360.488,196.437,360.504,197.652z"/>
		</g>
		<g>
			<path class="st0" d="M307.521,132.638c-0.175,1.163-0.324,2.125-0.463,3.088c-0.998,6.892-2.08,13.77-3.24,20.637
				c-0.782,4.625-1.451,9.268-2.154,13.906c-0.227,1.501-1.497,2.45-3.203,2.325c-1.407-0.103-2.353-0.822-2.86-2.14
				c-0.775-2.016-1.428-4.072-2.032-6.144c-2.609-8.952-4.821-18.006-6.939-27.084c-0.033-0.14-0.088-0.277-0.102-0.419
				c-0.043-0.433-0.296-0.481-0.666-0.427c-2.107,0.308-4.218,0.589-6.323,0.907c-1.11,0.168-2.219,0.351-3.34,0.404
				c-0.442,0.021-0.575,0.192-0.644,0.604c-0.67,4.002-1.346,8.003-2.049,11.998c-1.048,5.951-1.957,11.927-3.102,17.861
				c-0.289,1.498-0.713,2.964-1.181,4.417c-0.218,0.677-0.65,1.064-1.335,1.192c-0.918,0.173-1.611-0.282-1.746-1.204
				c-0.117-0.8-0.084-1.612-0.02-2.415c0.257-3.214,0.636-6.415,1.094-9.607c1.429-9.945,3.424-19.79,5.195-29.675
				c1.157-6.457,2.331-12.912,3.466-19.373c0.423-2.408,0.674-4.845,1.242-7.228c0.093-0.392,0.214-0.777,0.307-1.168
				c0.42-1.767,1.746-2.343,3.205-2.295c1.846,0.061,3.246,0.908,4.036,2.628c0.699,1.522,1.164,3.127,1.618,4.733
				c1.455,5.15,2.669,10.363,3.971,15.553c1.896,7.562,3.699,15.147,5.551,22.719c1.018,4.164,2.056,8.322,3.087,12.483
				c0.069,0.277,0.151,0.55,0.25,0.907c0.348-0.547,0.331-1.104,0.435-1.619c1.482-7.394,2.631-14.845,3.777-22.296
				c0.328-2.133,0.593-4.276,0.912-6.41c0.086-0.578-0.009-1.043-0.387-1.511c-0.634-0.783-1.18-1.635-1.609-2.552
				c-0.912-1.953-0.561-3.48,1.107-4.833c0.56-0.454,1.159-0.857,1.789-1.205c0.388-0.214,0.579-0.496,0.639-0.942
				c0.402-3.024,0.82-6.045,1.246-9.066c0.478-3.391,0.997-6.776,1.446-10.17c0.577-4.364,1.264-8.714,1.679-13.099
				c0.143-1.514,0.938-2.333,2.467-2.505c1.425-0.16,2.814,0.124,4.193,0.417c6.389,1.359,12.825,2.482,19.229,3.767
				c4.006,0.804,8.015,1.605,11.889,2.944c0.789,0.273,1.575,0.556,2.281,1.018c1.735,1.137,2.068,2.709,0.935,4.444
				c-0.635,0.972-1.445,1.794-2.303,2.565c-2.535,2.277-5.302,4.247-8.156,6.097c-5.611,3.636-11.47,6.84-17.392,9.935
				c-3.878,2.027-7.759,4.048-11.584,6.172c-0.805,0.447-1.587,0.936-2.376,1.41c-0.252,0.151-0.472,0.331-0.516,0.652
				c-0.078,0.57-0.162,1.139-0.242,1.709c-0.051,0.363,0.204,0.591,0.398,0.829c1.071,1.318,2.14,2.639,3.237,3.935
				c7.772,9.188,15.528,18.389,22.999,27.826c1.144,1.444,2.309,2.871,3.41,4.349c0.683,0.918,1.016,1.913,0.988,3.049
				c-0.016,0.662-0.352,1.177-1.029,1.454c-0.856,0.35-1.675,0.196-2.511-0.136c-1.664-0.66-2.901-1.818-3.995-3.192
				c-3.048-3.83-6.099-7.658-9.186-11.456c-4.939-6.076-9.909-12.128-14.867-18.189C307.921,133.06,307.78,132.92,307.521,132.638z
				 M309.766,116.72c0.339,0.028,0.498-0.111,0.674-0.2c5.649-2.86,11.255-5.8,16.743-8.961c5.115-2.947,10.166-5.994,14.878-9.567
				c1.377-1.044,2.728-2.121,3.934-3.365c0.6-0.618,0.59-0.658-0.19-0.948c-1.161-0.432-2.357-0.748-3.559-1.044
				c-9.083-2.24-18.338-3.64-27.476-5.61c-0.447-0.096-0.613-0.001-0.682,0.461c-0.43,2.873-0.901,5.74-1.328,8.613
				c-0.799,5.377-1.579,10.757-2.363,16.137C310.182,113.712,309.981,115.191,309.766,116.72z M285.661,133.408
				c-0.147-1.538-4.832-20.549-5.24-21.31c-0.51,1.263-4.213,21.818-4.093,22.806C279.428,134.311,282.555,133.913,285.661,133.408z
				"/>
			<path class="st0" d="M163.191,150.664c-0.207,5.854-0.002,12.422-0.085,18.988c-0.01,0.777-0.042,1.551-0.165,2.323
				c-0.374,2.353-1.647,3.601-4.002,3.975c-1.357,0.215-2.701,0.083-4.049-0.026c-3.159-0.255-6.303-0.616-9.387-1.378
				c-1.148-0.284-2.258-0.672-3.335-1.169c-2.342-1.08-4.062-2.787-5.221-5.078c-0.983-1.942-1.56-4.02-2.032-6.13
				c-0.836-3.74-1.345-7.53-1.776-11.335c-0.561-4.946-0.97-9.906-1.343-14.868c-0.494-6.576-0.828-13.161-0.964-19.755
				c-0.116-5.617-0.043-11.231,0.209-16.843c0.138-3.079,0.303-6.154,0.591-9.222c0.255-2.724,0.679-5.417,1.336-8.082
				c0.765-3.105,2.649-5.003,5.703-5.849c2.749-0.761,5.545-1.303,8.329-1.905c4.421-0.955,8.892-1.605,13.374-2.187
				c1.025-0.133,2.057-0.226,3.101-0.108c2.665,0.3,4.378,1.909,4.765,4.558c0.1,0.682,0.162,1.374,0.182,2.063
				c0.094,3.226,0.035,6.451-0.074,9.675c-0.112,3.312-0.087,6.623-0.037,9.935c0.005,0.317,0.02,0.634,0.004,0.95
				c-0.04,0.75-0.32,1.091-1.033,1.291c-1.157,0.325-2.21-0.275-2.517-1.452c-0.197-0.755-0.267-1.531-0.295-2.308
				c-0.091-2.505-0.035-5.011-0.017-7.516c0.018-2.506,0.027-5.011,0.017-7.517c-0.007-1.614-0.12-3.229-0.402-4.816
				c-0.279-1.572-0.099-1.432-1.671-1.294c-1.52,0.133-3.032,0.341-4.551,0.486c-4.247,0.405-8.452,1.062-12.602,2.051
				c-1.119,0.267-2.233,0.56-3.342,0.867c-0.666,0.185-1.308,0.443-1.908,0.795c-0.601,0.352-0.984,0.849-1.153,1.54
				c-0.282,1.155-0.358,2.336-0.425,3.51c-0.217,3.795-0.397,7.592-0.565,11.389c-0.326,7.398-0.354,14.799-0.139,22.2
				c0.139,4.778,0.391,9.551,0.771,14.317c0.21,2.639,0.376,5.282,0.592,7.921c0.31,3.784,0.658,7.564,0.969,11.348
				c0.238,2.897,0.529,5.787,0.917,8.667c0.246,1.825,0.514,3.648,1.032,5.422c0.186,0.637,0.413,1.257,0.719,1.848
				c0.696,1.342,1.782,2.239,3.178,2.777c1.376,0.53,2.807,0.849,4.252,1.118c2.35,0.437,4.714,0.798,7.098,0.958
				c1.346,0.09,1.378,0.326,1.648-1.391c0.076-0.48,0.071-0.977,0.071-1.466c-0.016-10.801-0.009-21.602-0.077-32.402
				c-0.017-2.731-0.162-5.467-0.473-8.187c-0.003-0.029-0.006-0.057-0.009-0.086c-0.169-1.37-0.192-1.393-1.599-1.403
				c-0.95-0.007-1.9-0.011-2.846-0.132c-0.763-0.097-1.455-0.36-2.054-0.833c-0.747-0.59-0.757-1.361-0.022-1.967
				c0.566-0.466,1.227-0.747,1.955-0.855c1.813-0.269,3.635-0.158,5.423,0.103c2.717,0.396,3.951,1.858,4.138,4.695
				c0.127,1.926,0.129,3.857,0.094,5.787C163.396,139.76,163.299,144.856,163.191,150.664z"/>
			<path class="st0" d="M206.324,116.755c-0.062,9.241-0.406,16.721-0.714,24.202c-0.198,4.805-0.436,9.608-0.73,14.408
				c-0.065,1.063-0.21,2.119-0.497,3.151c-0.421,1.514-1.386,2.486-2.898,2.916c-0.696,0.198-1.407,0.317-2.13,0.306
				c-3.513-0.053-7.028-0.065-10.538-0.196c-2.27-0.085-4.539-0.314-6.736-0.969c-0.468-0.14-0.932-0.299-1.386-0.478
				c-2.051-0.811-3.431-2.261-4.147-4.352c-0.647-1.891-0.963-3.85-1.198-5.823c-1.082-9.057-1.176-18.153-1.045-27.257
				c0.068-4.723,0.296-9.441,0.571-14.155c0.329-5.633,0.807-11.255,1.534-16.851c0.233-1.796,0.469-3.596,0.982-5.343
				c0.147-0.499,0.322-0.985,0.57-1.442c0.786-1.444,2.477-1.631,3.582-0.391c0.449,0.504,0.712,1.114,0.888,1.758
				c0.268,0.979,0.349,1.981,0.365,2.992c0.034,2.105-0.125,4.202-0.255,6.3c-0.197,3.161-0.445,6.318-0.635,9.479
				c-0.373,6.209-0.625,12.423-0.767,18.642c-0.106,4.639-0.004,9.273,0.082,13.909c0.096,5.183,0.22,10.365,0.328,15.548
				c0.016,0.75,0.069,1.495,0.207,2.233c0.196,1.052,0.778,1.762,1.798,2.127c0.985,0.353,2.005,0.534,3.036,0.628
				c4.049,0.368,8.107,0.418,12.169,0.302c0.144-0.004,0.288-0.032,0.431-0.026c0.44,0.017,0.621-0.24,0.663-0.628
				c0.078-0.715,0.169-1.43,0.207-2.148c0.194-3.623,0.355-7.247,0.56-10.87c0.271-4.773,0.473-9.549,0.623-14.327
				c0.307-9.729,0.594-19.459,0.872-29.189c0.147-5.153,0.257-10.307,0.388-15.46c0.048-1.876,0.39-3.719,0.659-5.569
				c0.211-1.45,2.1-1.707,2.884-1.195c0.371,0.242,0.52,0.599,0.56,1.019c0.175,1.861,0.423,3.712,0.4,5.591
				c-0.076,6.077-0.187,12.152-0.36,18.227C206.508,108.717,206.402,113.612,206.324,116.755z"/>
			<path class="st0" d="M250.212,129.42c0-2.765-0.044-5.53,0.011-8.293c0.073-3.655,0.193-7.309,0.348-10.961
				c0.123-2.902,0.285-5.804,0.511-8.699c0.296-3.783,0.541-7.574,1.162-11.324c0.042-0.255,0.105-0.507,0.148-0.762
				c0.09-0.539,0.065-0.593-0.489-0.662c-1.114-0.139-2.23-0.256-3.346-0.376c-4.979-0.533-9.961-1.047-14.937-1.605
				c-1.743-0.196-3.474-0.506-5.212-0.748c-0.684-0.095-1.372-0.163-2.061-0.211c-0.738-0.051-0.774-0.008-0.719,0.763
				c0.047,0.66,0.13,1.317,0.182,1.977c0.084,1.074-0.393,1.849-1.35,2.291c-0.997,0.461-2.01,0.503-2.954-0.156
				c-0.45-0.314-0.691-0.787-0.696-1.332c-0.013-1.382-0.055-2.767,0.031-4.144c0.073-1.167,0.794-1.944,1.865-2.383
				c0.757-0.31,1.557-0.389,2.368-0.412c2.34-0.068,4.661,0.163,6.976,0.444c2.802,0.34,5.615,0.553,8.426,0.778
				c3.701,0.296,7.397,0.653,11.091,1.02c2.52,0.251,5.044,0.474,7.563,0.733c3.493,0.36,6.983,0.739,10.474,1.115
				c2.947,0.317,5.894,0.638,8.84,0.966c0.943,0.105,1.887,0.218,2.825,0.36c0.759,0.115,1.419,0.469,1.978,0.993
				c0.802,0.752,0.721,1.628-0.216,2.218c-0.618,0.389-1.295,0.611-2.037,0.63c-1.387,0.036-2.76-0.152-4.133-0.28
				c-3.094-0.289-6.184-0.632-9.275-0.956c-3.034-0.318-6.067-0.641-9.101-0.962c-0.086-0.009-0.171-0.025-0.256-0.039
				c-0.396-0.07-0.528,0.104-0.453,0.481c0.174,0.879,0.209,1.772,0.245,2.664c0.105,2.621-0.046,5.237-0.176,7.853
				c-0.101,2.04-0.189,4.082-0.266,6.123c-0.155,4.17-0.31,8.341-0.442,12.512c-0.055,1.755-0.057,3.513-0.071,5.269
				c-0.097,11.346-0.281,22.692-0.1,34.038c0.079,4.98,0.253,9.959,0.321,14.94c0.015,1.119-0.31,2.099-0.756,3.059
				c-0.397,0.855-1.214,1.117-2.09,1.117c-0.881,0-1.572-0.326-2.065-1.153c-0.89-1.491-0.862-3.141-0.953-4.765
				c-0.227-4.081-0.388-8.165-0.602-12.247c-0.145-2.76-0.226-5.522-0.349-8.282C250.154,143.815,250.111,136.618,250.212,129.42z"
				/>
			<path class="st0" d="M227.254,133.46c0.123,7.212,0.198,12.653,0.316,18.093c0.069,3.194,0.211,6.387,0.313,9.58
				c0.072,2.273,0.137,4.546,0.192,6.82c0.013,0.514,0.064,1.033-0.146,1.533c-0.506,1.201-1.493,1.814-2.724,1.671
				c-1.17-0.136-2.162-1.121-2.302-2.343c-0.089-0.771-0.127-1.548-0.161-2.324c-0.177-4.025-0.457-8.045-0.609-12.072
				c-0.309-8.141-0.57-16.283-0.703-24.43c-0.118-7.197-0.278-14.394-0.256-21.592c0.008-2.678,0.119-5.351,0.494-8.006
				c0.117-0.826,0.242-1.653,0.508-2.447c0.375-1.123,1.154-1.671,2.337-1.675c1.162-0.003,2.014,0.556,2.391,1.626
				c0.504,1.432,0.558,2.937,0.603,4.431c0.11,3.628-0.075,7.253-0.132,10.88C227.259,120.546,227.192,127.888,227.254,133.46z"/>
		</g>
		<g>
			<g>
				<path class="st0" d="M193.401,323.538c0.073,1.199,0.131,2.402,0.222,3.602c0.152,2.007,0.325,4.013,0.489,6.019
					c0.261,3.181,0.569,6.356,0.933,9.528c0.295,2.571,0.577,5.145,0.756,7.73c0.07,1.016-0.333,1.79-0.965,2.493
					c-0.609,0.677-1.824,0.95-2.721,0.525c-0.98-0.464-1.778-1.13-2.035-2.296c-0.688-3.12-1.205-6.27-1.677-9.427
					c-0.412-2.759-0.848-5.516-1.131-8.292c-0.175-1.716-0.331-3.435-0.461-5.155c-0.175-2.322-0.326-4.647-0.461-6.971
					c-0.024-0.413-0.268-0.514-0.572-0.641c-1.433-0.6-2.864-1.206-4.289-1.825c-0.421-0.183-0.826-0.407-1.229-0.628
					c-0.33-0.181-0.621-0.419-0.862-0.711c-0.602-0.731-0.581-1.567,0.061-2.264c0.395-0.428,0.887-0.735,1.38-1.03
					c1.507-0.9,3.015-1.802,4.539-2.673c0.423-0.242,0.594-0.512,0.587-1.016c-0.052-3.484-0.071-6.969,0.044-10.452
					c0.089-2.701,0.224-5.402,0.418-8.1c0.165-2.296,0.343-4.589,0.576-6.878c0.27-2.662,0.619-5.313,1.096-7.946
					c0.149-0.823,0.162-0.827-0.587-1.126c-3.292-1.311-6.517-2.766-9.588-4.543c-1.148-0.664-2.267-1.369-3.296-2.211
					c-0.514-0.421-1.006-0.867-1.396-1.407c-0.548-0.761-0.289-1.468,0.621-1.707c0.544-0.143,1.09-0.101,1.612,0.107
					c0.668,0.266,1.337,0.532,1.988,0.835c3.628,1.686,7.263,3.355,10.977,4.844c0.187,0.075,0.377,0.143,0.559,0.229
					c0.29,0.137,0.481,0.07,0.621-0.226c0.097-0.207,0.238-0.393,0.362-0.587c1.147-1.795,3.61-1.26,4.412,0.321
					c0.318,0.629,0.504,1.308,0.481,1.997c-0.022,0.663,0.309,0.878,0.851,1.075c4.733,1.719,9.46,3.454,14.183,5.197
					c5.264,1.942,10.561,3.795,15.769,5.887c1.015,0.408,2.028,0.82,2.992,1.341c0.586,0.317,1.135,0.684,1.593,1.173
					c0.98,1.046,1.046,2.217,0.188,3.36c-0.401,0.535-0.906,0.963-1.437,1.362c-1.547,1.162-3.222,2.119-4.922,3.031
					c-4.819,2.585-9.692,5.067-14.568,7.543c-5.261,2.672-10.526,5.334-15.805,7.968c-0.638,0.318-0.859,0.694-0.818,1.391
					c0.101,1.723,0.152,3.45,0.175,5.177c0.007,0.52,0.313,0.599,0.681,0.718c3.093,1.001,6.184,2.013,9.235,3.138
					c8.099,2.989,16.122,6.172,24.162,9.313c1.662,0.649,3.319,1.31,4.951,2.032c0.856,0.378,1.605,0.878,2.186,1.635
					c0.796,1.038,0.462,2.06-0.842,2.284c-0.934,0.16-1.891,0.178-2.83-0.064c-1.034-0.267-2.033-0.64-3.015-1.046
					c-6.491-2.684-13.123-4.99-19.706-7.429c-4.478-1.659-8.955-3.323-13.436-4.977
					C194.138,323.647,193.835,323.444,193.401,323.538z M225.162,289.89c-1.108-0.617-2.195-1.07-3.291-1.503
					c-5.191-2.049-10.493-3.789-15.746-5.665c-3.52-1.257-7.053-2.479-10.58-3.718c-1.024-0.359-1.037-0.362-1.154,0.68
					c-0.216,1.914-0.442,3.828-0.612,5.746c-0.325,3.666-0.562,7.338-0.742,11.015c-0.167,3.392-0.21,6.786-0.188,10.181
					c0.001,0.186-0.066,0.398,0.117,0.552c0.253,0.007,0.433-0.152,0.63-0.257c8.309-4.408,16.652-8.753,25.002-13.082
					c1.864-0.967,3.722-1.947,5.485-3.094C224.438,290.513,224.824,290.312,225.162,289.89z M186.059,316.323
					c0.038-0.188,0.104-0.373-0.06-0.597c-0.214,0.089-0.463,0.127-0.578,0.405C185.603,316.279,185.803,316.354,186.059,316.323z"
					/>
				<path class="st0" d="M310.95,316.871c0,3.111-0.058,6.223,0.016,9.331c0.081,3.394,0.22,6.787,0.568,10.17
					c0.165,1.599,0.257,3.214,0.237,4.829c-0.018,1.417-0.747,2.34-2.127,2.64c-0.655,0.143-1.314,0.136-1.959-0.091
					c-0.934-0.329-1.468-0.996-1.601-1.962c-0.188-1.368-0.395-2.736-0.504-4.111c-0.279-3.499-0.51-7.002-0.756-10.504
					c-0.234-3.33-0.355-6.666-0.529-9.999c-0.274-5.268-0.272-10.536-0.074-15.802c0.192-5.09,0.56-10.17,1.109-15.238
					c0.428-3.947,0.957-7.878,1.613-11.793c0.19-1.135,0.421-2.263,0.767-3.363c0.226-0.717,0.524-1.406,0.978-2.01
					c0.524-0.697,1.182-1.172,2.103-1.173c1.016-0.001,1.779,0.498,2.133,1.45c0.273,0.735,0.367,1.509,0.406,2.288
					c0.104,2.048-0.052,4.087-0.257,6.122c-0.316,3.147-0.651,6.293-0.982,9.439c-0.346,3.292-0.542,6.596-0.787,9.896
					c-0.006,0.086-0.014,0.172-0.015,0.259c-0.009,0.575,0.017,0.606,0.563,0.584c1.151-0.046,2.302-0.083,3.452-0.149
					c2.386-0.137,4.775-0.196,7.156-0.422c2.783-0.264,5.533-0.738,8.291-1.172c1.45-0.228,2.898-0.48,4.374-0.477
					c0.491,0.001,0.978,0.022,1.432,0.25c0.901,0.454,1.1,1.28,0.471,2.066c-0.479,0.599-1.124,0.986-1.814,1.29
					c-1.431,0.631-2.945,0.986-4.472,1.284c-2.262,0.442-4.543,0.751-6.843,0.912c-0.172,0.012-0.344,0.03-0.515,0.056
					c-0.564,0.086-0.572,0.089-0.484,0.649c0.653,4.153,1.014,8.341,1.51,12.513c0.588,4.943,1.299,9.868,2.128,14.776
					c0.604,3.574,1.181,7.152,1.824,10.718c0.501,2.774,1.091,5.531,1.63,8.298c0.154,0.79,0.285,1.585,0.401,2.382
					c0.162,1.116-0.18,1.828-1.079,2.32c-0.948,0.519-2.209,0.447-2.937-0.16c-0.348-0.291-0.516-0.674-0.635-1.101
					c-0.509-1.83-0.906-3.687-1.294-5.545c-1.053-5.04-2.277-10.044-3.256-15.1c-0.842-4.35-1.583-8.717-2.18-13.108
					c-0.461-3.393-0.934-6.785-1.256-10.195c-0.174-1.836-0.276-3.674-0.284-5.519c-0.003-0.714-0.016-0.718-0.709-0.732
					c-1.641-0.034-3.283-0.069-4.924-0.094c-0.71-0.011-0.727-0.002-0.746,0.696c-0.059,2.159-0.128,4.318-0.148,6.478
					c-0.025,2.707-0.006,5.415-0.006,8.122C310.943,316.871,310.946,316.871,310.95,316.871z"/>
				<path class="st0" d="M267.74,311.647c0-2.304-0.061-4.609,0.014-6.91c0.127-3.91,0.307-7.818,0.589-11.721
					c0.18-2.496,0.337-4.994,0.558-7.487c0.463-5.216,0.95-10.43,1.908-15.586c0.195-1.047,0.448-2.08,0.818-3.082
					c0.886-2.399,2.528-3.582,5.091-3.669c1.417-0.048,2.816,0.14,4.213,0.332c2.793,0.384,5.598,0.691,8.371,1.216
					c1.474,0.279,2.908,0.688,4.296,1.271c2.968,1.246,4.551,3.477,4.878,6.66c0.197,1.921,0.318,3.843,0.338,5.774
					c0.036,3.514-0.083,7.026-0.229,10.535c-0.067,1.604-0.078,3.224-0.44,4.805c-0.051,0.224-0.095,0.452-0.176,0.666
					c-0.275,0.733-0.843,1.088-1.611,1.025c-0.746-0.062-1.327-0.531-1.471-1.246c-0.068-0.335-0.077-0.689-0.063-1.032
					c0.077-1.869,0.178-3.736,0.256-5.605c0.158-3.797,0.406-7.593,0.235-11.395c-0.073-1.614-0.306-3.202-0.851-4.741
					c-0.476-1.343-1.327-2.231-2.696-2.69c-2.113-0.709-4.286-1.117-6.481-1.429c-1.652-0.235-3.309-0.452-4.97-0.606
					c-2.391-0.222-1.996-0.064-2.412,1.692c-0.617,2.608-0.9,5.273-1.207,7.931c-0.476,4.117-0.84,8.244-1.168,12.374
					c-0.178,2.237-0.298,4.478-0.424,6.719c-0.159,2.843-0.32,5.687-0.436,8.532c-0.07,1.726-0.078,3.455-0.077,5.182
					c0.003,3.225-0.016,6.451,0.065,9.675c0.091,3.624,0.281,7.245,0.429,10.868c0.082,2.013,0.139,4.027,0.255,6.038
					c0.164,2.842,0.223,5.696,0.653,8.516c0.307,2.01,0.426,2.13,2.515,1.936c1.692-0.157,3.36-0.481,5.03-0.783
					c0.722-0.13,0.729-0.145,0.749-0.894c0.054-1.959-0.09-3.913-0.168-5.869c-0.11-2.731-0.285-5.459-0.376-8.19
					c-0.039-1.148,0.052-2.301,0.108-3.451c0.023-0.487,0.121-0.97,0.06-1.462c-0.062-0.504,0.211-0.81,0.634-1.018
					c0.938-0.462,2.111-0.011,2.514,0.977c0.209,0.512,0.237,1.064,0.315,1.604c0.295,2.055,0.385,4.12,0.358,6.196
					c-0.038,2.908,0.025,5.816,0.23,8.717c0.071,1.004,0.175,2.006,0.188,3.013c0.019,1.454-0.523,2.369-1.923,2.702
					c-3.214,0.765-6.43,1.579-9.764,1.669c-0.581,0.016-1.152-0.06-1.713-0.186c-1.684-0.379-2.896-1.347-3.607-2.933
					c-0.653-1.456-1.002-3.001-1.324-4.55c-0.632-3.045-1.026-6.124-1.288-9.224c-0.341-4.042-0.586-8.087-0.71-12.143
					C267.736,317.461,267.73,314.554,267.74,311.647z"/>
				<path class="st0" d="M263.535,267.342c-0.348,0.019-0.541,0.256-0.77,0.418c-2.524,1.784-4.804,3.856-7.035,5.984
					c-3.711,3.539-7.234,7.265-10.776,10.97c-1.793,1.875-3.715,3.614-5.643,5.346c-0.646,0.58-1.383,0.631-2.061,0.217
					c-0.709-0.433-0.921-1.1-0.56-1.848c0.302-0.626,0.75-1.158,1.162-1.713c2.116-2.851,4.531-5.443,6.96-8.022
					c3.832-4.068,7.709-8.091,11.953-11.739c1.334-1.147,2.722-2.222,4.276-3.062c0.609-0.329,1.233-0.616,1.916-0.77
					c2.142-0.482,3.935,0.717,4.275,2.888c0.243,1.547,0.158,3.106,0.058,4.655c-0.402,6.236-1.214,12.429-1.956,18.629
					c-0.506,4.228-0.964,8.461-1.46,12.69c-0.589,5.028-1.084,10.065-1.468,15.112c-0.185,2.438-0.333,4.88-0.452,7.324
					c-0.123,2.504-0.118,5.007-0.174,7.51c-0.019,0.858-0.07,1.722-0.246,2.574c-0.268,1.296-1.033,2.147-2.226,2.663
					c-0.858,0.371-1.768,0.533-2.681,0.624c-3.093,0.31-6.188,0.616-9.288,0.852c-1.882,0.143-3.732-0.128-5.524-0.754
					c-2.305-0.806-4.02-2.304-5.239-4.402c-1.166-2.007-1.94-4.169-2.569-6.391c-0.772-2.728-1.103-5.529-1.348-8.339
					c-0.406-4.649-0.669-9.307-0.511-13.976c0.072-2.125,0.063-4.261,0.475-6.363c0.122-0.625,0.302-1.23,0.654-1.77
					c0.968-1.49,3.269-1.855,4.648-0.739c0.545,0.441,0.822,1.029,0.919,1.706c0.103,0.713,0.146,1.43,0.149,2.152
					c0.02,3.859-0.104,7.72,0.055,11.577c0.173,4.2,0.507,8.388,1.112,12.552c0.335,2.306,0.51,4.634,0.929,6.929
					c0.098,0.537,0.214,1.073,0.363,1.598c0.653,2.289,1.844,3.222,4.229,3.346c1.416,0.073,2.819-0.083,4.222-0.229
					c2.033-0.211,4.064-0.436,6.097-0.643c1.717-0.175,1.855-0.321,2.072-2.008c0.114-0.889,0.131-1.779,0.153-2.67
					c0.109-4.374,0.378-8.737,0.79-13.093c0.317-3.351,0.6-6.705,0.944-10.053c0.406-3.947,0.856-7.89,1.297-11.834
					c0.422-3.775,0.861-7.548,1.285-11.322c0.408-3.633,0.78-7.269,1.007-10.918c0.095-1.523,0.203-3.047,0.139-4.575
					C263.673,268.061,263.704,267.685,263.535,267.342z"/>
			</g>
			<g>
				<path class="st0" d="M353.738,296.805c-0.073,5.654,0.01,11.759,0.261,17.858c0.19,4.631,0.446,9.259,0.542,13.894
					c0.007,0.316,0.023,0.635-0.007,0.948c-0.148,1.552-0.96,2.32-2.51,2.392c-1.854,0.086-3.238-1.019-3.488-2.855
					c-0.139-1.025-0.193-2.063-0.256-3.097c-0.348-5.747-0.744-11.491-1.016-17.241c-0.32-6.759-0.485-13.524-0.194-20.291
					c0.179-4.171,0.327-8.343,0.508-12.513c0.042-0.976,0.096-1.956,0.311-2.915c0.328-1.461,1.308-2.202,2.804-2.128
					c1.992,0.099,3.263,1.31,3.409,3.307c0.115,1.58,0.118,3.163,0.098,4.748C354.125,284.728,353.756,290.536,353.738,296.805z"/>
				<path class="st0" d="M354.947,340.314c0,0.029-0.002,0.058,0,0.086c0.16,1.786-0.664,2.342-2.277,2.588
					c-0.711,0.109-1.431,0.114-2.139-0.082c-0.891-0.248-1.531-0.782-1.861-1.648c-0.519-1.363-0.725-2.782-0.607-4.232
					c0.108-1.329,1.104-2.353,2.443-2.499c0.707-0.077,1.429-0.051,2.143-0.031c0.958,0.027,1.941,0.671,2.015,1.955
					c0.075,1.289,0.212,2.574,0.322,3.86C354.975,340.312,354.961,340.313,354.947,340.314z"/>
			</g>
		</g>
	</g>
	<path class="st0" d="M154.922,294.666c-2.334-2.755-4.941-5.452-7.372-8.13c-1.892-1.994-3.861-4.085-5.461-6.311
		c-2.792-4.137-4.201-8.732-3.431-13.78c0.144-1.223,0.364-2.349,0.683-3.552c0.339-1.378,0.775-2.833,1.115-4.21
		c2.074-8.615,1.543-16.916-2.761-24.775c-2.787-4.934-6.69-8.67-12.216-10.647c-2.462-0.909-4.966-1.469-7.51-1.679
		c-2.971-0.349-5.844-0.775-8.954-0.697c-0.463-3.598-1.045-6.944-1.729-9.416c-0.722-8.944-1.444-17.887-1.991-26.811
		c-0.877-15.163-1.677-30.228-2.555-45.391c-0.247-3.927-0.495-7.854-0.645-11.858c-0.067-1.691,0.118-3.264,0.302-4.837
		c0.205-1.748,0.991-3.161,2.533-4.221c0.293-0.231,0.488-0.386,0.781-0.617c0.586-0.463,0.823-0.966,0.73-1.686
		c-0.134-0.37-0.17-0.817-0.381-1.285c-0.17-0.818-0.515-1.655-0.782-2.395c-0.057-0.272-0.036-0.447-0.093-0.72
		c0.545-0.113,0.915-0.247,1.362-0.283c1.779,1.449,3.1,1.516,4.061,0.122c0.94-1.218,0.447-3.048-0.87-3.911
		c-1.316-0.863-2.699-0.406-3.624,1.435c-0.545,0.113-0.991,0.149-1.614,0.165c-0.664-2.647-1.055-5.35-1.272-8.034
		c0.622-0.015,0.895-0.072,1.342-0.108c0.231,0.293,0.386,0.488,0.617,0.781c0.715,0.704,1.548,1.156,2.56,0.832
		c1.013-0.324,1.64-1.136,1.763-2.185c0.062-0.524-0.031-1.244-0.242-1.712c-0.324-1.012-0.961-1.619-2.108-1.665
		c-1.146-0.046-2.061,0.201-2.477,1.481c-0.021,0.175-0.216,0.329-0.236,0.504c-0.35-0.041-0.797-0.005-1.244,0.031
		c0.015-2.39-0.068-4.703-0.074-6.919c0.37-0.134,0.468-0.211,0.741-0.267c0.272-0.057,0.447-0.036,0.719-0.093
		c0.252,0.118,0.406,0.313,0.56,0.509c1.043,0.92,2.539,1.007,3.634-0.016c1.192-1.1,1.3-2.771,0.298-4.04
		c-1.157-1.465-3.198-1.439-4.18,0.129c-0.098,0.077-0.118,0.252-0.216,0.329c-0.195,0.154-0.39,0.308-0.565,0.288
		c-0.272,0.057-0.622,0.015-0.972-0.026c-0.041-2.662-0.027-5.053,0.358-7.576c0.18-0.776,0.262-1.475,0.266-2.272
		c-0.051-1.069-0.514-1.655-1.465-1.855c-0.427-0.139-0.776-0.18-1.223-0.144c-0.818,0.17-1.81,0.319-2.724,0.566
		c-1.83,0.494-3.526,1.358-5.145,2.319c-0.956,0.596-2.025,0.648-3.053,0.35c-1.203-0.318-2.308-0.714-3.413-1.109
		c-2.288-0.889-4.539-1.33-6.95-1.17c-1.963,0.124-2.143,0.9-1.608,2.38c1.167,2.883,1.79,5.88,2.14,8.933
		c-0.021,0.175,0.036,0.447,0.015,0.622c-0.874-0.103-0.874-0.103-1.259-0.591c-1.003-1.269-2.206-1.588-3.552-0.683
		c-1.347,0.905-1.727,2.632-0.899,3.881c0.828,1.249,2.478,1.531,3.825,0.626c0.39-0.308,0.704-0.715,1.094-1.023
		c0.35,0.041,0.699,0.082,1.224,0.144c0.083,2.313,0.263,4.549,0.444,6.785c-1.147-0.046-1.147-0.046-1.609-0.632
		c-0.674-1.053-1.604-1.428-2.771-1.3c-1.167,0.129-1.892,1.018-2.189,2.046c-0.771,2.036,1.122,4.03,3.203,3.654
		c1.09-0.226,1.948-0.746,2.323-1.676c0.273-0.056,0.447-0.036,0.622-0.015c0.175,0.021,0.426,0.139,0.601,0.159
		c0.139,2.585,0.104,5.15-0.106,7.695c-1.146-0.046-1.146-0.046-1.666-0.904c-0.596-0.956-1.953-1.469-3.141-1.166
		c-1.09,0.226-2.009,1.27-2.055,2.416c-0.144,1.223,0.587,2.549,1.594,3.022c1.28,0.416,2.719,0.231,3.639-0.813
		c0.195-0.154,0.216-0.329,0.411-0.483c0.35,0.041,0.699,0.082,1.126,0.221c-0.359,1.552-0.446,3.048-0.708,4.524
		c-0.185,1.573,0.18,2.236,1.692,2.945c0.853,0.278,1.609,0.632,2.344,1.161c1.239,0.766,2.01,1.742,2.37,3.202
		c0.793,3.814,1.41,7.607,2.028,11.4c0.056,0.272,0.092,0.72,0.051,1.069c0.129,4.179,0.161,8.435,0.271,12.789
		c0.083,5.325,0.244,10.748,0.6,16.016c0.706,11.333,1.609,22.513,1.889,33.708c0.264,7.561,0.626,15.045,0.54,22.565
		c-0.041,0.35-0.005,0.797-0.067,1.321c-0.37,0.133-0.642,0.19-1.09,0.226c-1.439,0.186-2.899,0.546-4.205,1.101
		c-2.981,1.245-5.885,2.587-8.5,4.494c-3.886,2.91-7.21,6.329-9.645,10.473c-3.515,5.789-4.505,11.962-2.797,18.541
		c0.417,1.732,0.931,3.387,1.522,5.14c0.936,2.59,1.97,5.104,2.906,7.694c1.301,3.254,1.261,6.615,0.075,9.931
		c-0.714,2.308-1.68,4.498-2.8,6.493c-2.338,4.066-4.675,8.133-7.013,12.199c-2.317,3.892-4.208,7.922-5.343,12.307
		c-2.429,9.371-1.455,18.433,2.376,27.298c2.011,4.754,4.9,8.814,8.843,12.2c4.252,3.777,9.29,6.14,14.78,7.671
		c3.608,0.955,7.433,1.582,11.298,1.858c6.487,0.584,13.076,0.295,19.63-0.442c6.728-0.716,13.518-1.956,19.963-4.035
		c9.406-3.148,17.695-8.11,24.561-15.277c4.05-4.308,6.588-9.326,7.187-15.191C165.201,313.502,162.31,303.418,154.922,294.666z"/>
</g>
</svg>
