<?xml version="1.0" encoding="utf-8"?>
<!-- Generator: Adobe Illustrator 21.1.0, SVG Export Plug-In . SVG Version: 6.00 Build 0)  -->
<svg version="1.1" id="Calque_1" xmlns="http://www.w3.org/2000/svg" xmlns:xlink="http://www.w3.org/1999/xlink" x="0px" y="0px"
	 viewBox="0 0 432 432" style="enable-background:new 0 0 432 432;" xml:space="preserve">
<style type="text/css">
	.st0{fill:#1B1B1B;}
	.st1{fill:#746458;}
	.st2{fill:#C1944E;}
	.st3{fill-rule:evenodd;clip-rule:evenodd;fill:#C1944E;}
	.st4{fill:#020203;}
	.st5{fill:#92AA3C;}
	.st6{fill:#A67D52;}
	.st7{fill:#C69C6C;}
	.st8{fill:#E7E6E6;}
	.st9{fill:#B83A44;}
	.st10{fill:#78716A;}
	.st11{fill:#343434;}
	.st12{fill:#AC2F39;}
	.st13{fill:#B4B4B4;}
	.st14{fill:#BA9BC9;}
	.st15{fill:#CA9685;}
	.st16{fill:#99A5AF;}
	.st17{fill:#6B897C;}
	.st18{fill:#718AA5;}
	.st19{fill:#B28E81;}
	.st20{fill:#808181;}
	.st21{fill:#AD8963;}
	.st22{fill:#CDCCCC;}
	.st23{fill:#CC9485;}
	.st24{fill:#A192B1;}
	.st25{fill:#758971;}
	.st26{fill:#97A8B2;}
	.st27{fill:#5B6876;}
	.st28{fill:#7A8F44;}
	.st29{fill:#30354C;}
	.st30{fill:#6D798D;}
	.st31{fill:#946277;}
	.st32{fill:#4E4D4D;}
	.st33{fill:#D59985;}
	.st34{fill:#975B5D;}
	.st35{fill:#566567;}
	.st36{fill:#BBCC53;}
	.st37{fill:#A9807A;}
	.st38{fill:#676767;}
	.st39{fill:#BF8B7B;}
	.st40{fill:#743F2F;}
	.st41{fill:#C29347;}
	.st42{fill-rule:evenodd;clip-rule:evenodd;fill:#C29347;}
	.st43{fill:#BF924C;}
	.st44{fill:#D39A46;}
	.st45{fill:#476FA1;}
	.st46{fill:#BF694C;}
	.st47{fill:#934735;}
	.st48{fill:#F39A94;}
	.st49{fill:#F7BDB9;}
	.st50{fill:#2B2525;}
	.st51{fill:#DAB0B3;}
	.st52{fill:#8E6568;}
	.st53{fill:#BD684F;}
	.st54{fill:#EAAA63;}
	.st55{fill:#6D8FB0;}
	.st56{fill:#E99C4F;}
	.st57{fill:#EB8563;}
	.st58{fill:#F39149;}
	.st59{fill:#B56955;}
	.st60{fill:#B73736;}
	.st61{fill:#D8AD74;}
	.st62{fill:#C07A41;}
	.st63{fill:#F9B03D;}
	.st64{fill:#C1292E;}
	.st65{fill:#A8A1CF;}
	.st66{fill:#F8C6CC;}
	.st67{fill:#AE748E;}
	.st68{fill:#738998;}
	.st69{fill:#5B856E;}
	.st70{fill:#32353E;}
	.st71{fill:#537791;}
	.st72{fill:#3C3C3A;}
	.st73{fill:#823231;}
	.st74{fill:#C19446;}
	.st75{fill:#CDA372;}
	.st76{fill:#C26647;}
	.st77{fill:#B16F59;}
	.st78{fill:#823D26;}
	.st79{fill:#C7AA72;}
	.st80{fill:#A46B75;}
	.st81{fill:#688698;}
	.st82{fill:#C1949E;}
	.st83{fill:#7CA991;}
	.st84{fill:#758F5E;}
	.st85{fill:#908E60;}
	.st86{fill:#4C4B3D;}
	.st87{fill:#4E5E6E;}
	.st88{fill:#C1BD99;}
	.st89{fill:#DEE3B1;}
	.st90{fill:#ADA6AD;}
	.st91{fill:#90535D;}
	.st92{fill:#59493C;}
	.st93{fill:#009245;}
	.st94{fill:#3B8E5F;}
	.st95{fill:#82A0B3;}
	.st96{fill:#974B4B;}
	.st97{fill:#FFFFFF;}
	.st98{fill:#D7A564;}
	.st99{fill:#C78859;}
	.st100{fill:#76ABBC;}
	.st101{fill:#58A2B3;}
	.st102{fill:#797AA5;}
	.st103{fill:#B38F6E;}
	.st104{fill:#739AA8;}
	.st105{fill:#CD9C8C;}
</style>
<g>
	<g>
		<path class="st32" d="M237.7,124.8c-0.2,0.2-0.3,0.5-0.5,0.7c-2.4,3.8-5.2,7.4-8.2,10.8c-0.5,0.6-0.7,1.1-0.8,1.9
			c-0.7,6.4-1.9,12.7-4.2,18.8c-2.2,5.7-5.9,10.4-10.9,14c-2.6,1.9-5.4,3.3-8.7,3.6c-5.5,0.5-10.1-1.4-13.8-5.5
			c-0.2-0.2-0.4-0.5-0.6-0.7c0,0-0.1,0-0.2,0c-0.1,1-0.3,2-0.4,2.9c-0.3,4.3-0.5,8.5-0.9,12.8c-0.2,1.7-0.5,3.5-1,5.1
			c-1.1,3.5-5.4,4.3-7.9,1.7c-0.6-0.7-1.1-1.5-1.4-2.4c-1.1-2.5-1.2-5.2-1.1-7.9c0.2-4.9,0.7-9.8,1.3-14.7c0.1-0.6,0.1-1.2,0-1.8
			c-0.2,0.3-0.3,0.6-0.5,0.9c-1.6,3-3.2,6.1-5,9c-1,1.7-2.3,3.2-3.6,4.7c-0.7,0.8-1.7,1.5-2.7,2c-3.4,2-7.1,1.6-10.1-1
			c-1.6-1.3-2.8-2.9-3.9-4.6c-1.8-3.1-2.8-6.5-3.1-10.1c-0.5-4.8-0.3-9.6,0.4-14.3c0-0.1,0-0.2,0-0.6c-0.3,0.4-0.5,0.7-0.6,0.9
			c-1.9,3.2-3.9,6.3-6.2,9.2c-1.1,1.4-2.3,2.8-3.8,3.9c-1.4,1.1-2.9,1.8-4.6,2.1c-3.5,0.7-6.5-0.6-9-2.9c-1.4-1.2-2.4-2.7-3.3-4.4
			c-0.2-0.4-0.4-0.7-0.7-1.2c-0.2,0.5-0.4,0.8-0.5,1.2c-0.9,1.9-1.8,3.9-2.7,5.8c-1.1,2.3-2.5,4.4-4.2,6.3c-0.6,0.6-1.2,1.3-1.8,1.8
			c-2.3,1.8-4.9,2-7.5,0.6c-3-1.6-4.9-4.2-6-7.4c-0.6-1.7-0.8-3.4-0.9-5.2c-0.1-3.7,0.2-7.4,0.8-11.1c0.9-6.4,2-12.7,2.9-19.1
			c0.4-2.9,0.7-5.8,0.5-8.7c0-0.3-0.1-0.7-0.1-1c-0.2-1.3-0.6-1.6-1.9-1.6c-1,0-2,0.2-2.9,0.7c-2.1,1-3.8,2.4-5.4,4
			c-2.5,2.5-4.5,5.4-6.3,8.4c-3.9,6.7-6.6,14-8.5,21.5c-1.2,4.6-2.2,9.3-3.4,14c-0.2,1-0.5,1.9-0.9,2.9c-0.2,0.7-0.5,1.3-0.9,1.9
			c-2.1,3.2-6.2,3.7-9,1c-0.8-0.8-1.4-1.7-2-2.7c-1.3-2.3-1.8-4.9-2.1-7.5c-0.6-5.1-0.7-10.2-0.4-15.2c0.7-12.4,2.7-24.6,6.7-36.4
			c3.4-10.2,9.2-19,16.8-26.6c3.6-3.6,7.7-6.5,12.4-8.5c2.7-1.1,5.6-1.7,8.5-1.7c6.6-0.1,9.7,5.7,8.4,10.6c-0.6,2.4-1.7,4.5-3.2,6.5
			c-3,3.8-6.7,6.8-10.9,9c-4.1,2.2-8.4,3.8-13,4.5c-1.4,0.2-2.8,0.3-4.3,0.5c-3,6.4-5,13.2-6.6,20.2c-2.4,10.3-3.6,24.3-3,28.9
			c0.2-0.4,0.3-0.9,0.5-1.3c2.5-7,5.3-13.9,8.8-20.5c3-5.6,6.5-10.8,11.2-15.2c1.8-1.7,3.7-3.2,5.8-4.3c1.7-0.9,3.6-1.6,5.5-1.8
			c5.4-0.5,9.1,3.1,10.4,6.6c0.7,1.7,1,3.5,1.1,5.4c0.2,4.1-0.3,8.1-0.9,12.1c-0.8,5.5-1.7,11.1-2.5,16.6c-0.6,4.4-0.6,8.7-0.1,13.1
			c0,0.4,0.1,0.7,0.2,1.1c1-0.6,1.8-1.4,2.4-2.2c1.3-1.7,2.5-3.4,3.6-5.1c1.2-1.8,2.1-3.7,3.3-5.5c0.4-0.7,0.5-1.3,0.4-2.1
			c-0.9-6.3-0.1-12.4,2.3-18.3c1.6-4,4-7.4,7.5-10.1c4.4-3.4,9.3-4.4,14.7-3.2c4,1,7.5,3,10.5,5.8c0.3,0.3,0.6,0.5,1,0.9
			c0.2-0.4,0.4-0.7,0.6-1c0.6-0.7,1.1-1.5,1.8-2.1c1.5-1.2,3.2-1.6,5-0.9c1.9,0.8,2.8,2.3,3.1,4.2c0.2,1.4,0,2.8-0.3,4.2
			c-1,4.3-2.1,8.6-3.1,12.9c-1,4.2-1.7,8.5-1.9,12.9c-0.3,5.1,0.4,10.1,2,15c0.2,0.6,0.5,1.1,0.7,1.6c0.2,0.4,0.5,0.5,0.9,0.3
			c0.6-0.3,1.3-0.6,1.8-1.1c1-1,2-2.1,2.8-3.2c3.3-4.4,5.8-9.2,7.9-14.2c1.4-3.3,2.7-6.6,3.9-9.9c0.5-1.5,0.7-3.2,1-4.8
			c1.7-10,3.9-19.8,6.7-29.5c0.4-1.5,1-3,1.6-4.4c0.5-1.3,1.3-2.4,2.4-3.3c1-0.8,2.1-1.3,3.4-1.1c1.7,0.2,2.9,1.2,3.5,2.8
			c0.3,0.9,0.4,1.8,0.5,2.7c0.1,0.4,0,0.7,0.2,1.1c0.2-0.3,0.5-0.5,0.7-0.8c1.2-1.4,2.6-2.6,4.1-3.6c4.1-2.5,8.3-2.7,12.6-0.3
			c3.8,2,6.4,5.1,8.1,9c1.6,3.6,2.5,7.4,2.7,11.4c0.1,1.2,0.1,2.4,0.2,3.7c0.3-0.3,0.5-0.5,0.6-0.7c2.5-3.4,4.2-7.2,5.8-11.1
			c0.8-1.9,1.5-3.9,2.3-5.9c0.2-0.6,0.5-1.3,0.8-1.9c1.3-2.3,3.8-3.2,6.3-2.1c1.5,0.7,2.6,1.9,3.3,3.4c0.9,1.8,1.1,3.7,1.3,5.7
			c0.3,4.3,0.3,8.5,0.1,12.8c0,0.8,0,1.6,0.2,2.5c0.1-0.3,0.3-0.6,0.4-0.9c1.4-3.5,3.1-6.8,5.3-9.9c1.8-2.5,3.9-4.9,6.4-6.7
			c3.3-2.5,7-3.7,11.1-3.3c2.7,0.2,5.2,1.2,7.2,3c3.7,3.1,5.9,7.1,7,11.8c0.8,3.1,1,6.2,1,9.4c0,0.7,0,1.4,0,2.1
			c0.1,0,0.2,0.1,0.2,0.1c0.3-0.3,0.6-0.5,0.8-0.8c2.1-2.5,4.2-5.1,6.3-7.6c1.5-1.8,3.2-3.6,4.8-5.4c0.4-0.5,0.6-0.9,0.7-1.6
			c0.2-1.4,0.4-2.8,0.8-4.2c0.2-0.9,0.7-1.8,1.2-2.5c2.1-2.8,5.8-2.7,7.8,0.1c1.1,1.5,1.4,3.1,1.4,4.9c0,1.8-0.1,3.7-0.1,5.5
			c0.1,2.2,0.1,4.3,0.4,6.5c0.8,5.7,2.2,11.3,4.7,16.6c0.8,1.8,1.8,3.5,3,5c1.1,1.2,2.3,2.3,3.7,3c1.5,0.7,3,0.7,4.5-0.2
			c0.7-0.5,1.5-1.1,2.1-1.7c3.3-3.6,5.5-7.8,7.3-12.3c2.1-5,3.5-10.2,4.7-15.6c0.5-2.6,1.3-5.1,2.3-7.5c0.9-2.1,2.3-3.6,4.6-4.1
			c1.6-0.4,3.2-0.2,4.7,0.5c2.6,1.1,4.7,2.9,6.4,5.1c2.2,2.9,3.7,6.3,4.9,9.7c0.3,0.9,0.6,1.7,1,2.9c0.2-0.5,0.3-0.8,0.3-1.1
			c1.6-8.3,0.7-16.3-2.6-24.1c-2.8-6.5-7.1-11.9-12.9-16c-3.6-2.5-7.4-4.4-11.7-5.1c-3.9-0.6-7.8-0.4-11.5,1.2
			c-0.4,0.2-0.9,0.3-1.4,0.4c-1,0.1-1.9-0.4-2.2-1.2c-0.4-0.8-0.2-1.7,0.5-2.3c0.4-0.3,0.8-0.6,1.2-0.8c2.8-1.3,5.7-2.1,8.8-2.4
			c3.8-0.3,7.6-0.1,11.2,1.2c2.5,0.8,5,1.9,7.2,3.4c5.3,3.5,9.8,7.8,13.1,13.3c2.5,4.2,4.7,8.6,5.7,13.5c2.2,9.9,1.4,19.6-2.6,28.9
			c-0.3,0.8-0.4,1.5-0.2,2.4c1.4,6.3,2.5,12.8,3.3,19.2c0.8,7.2,1.3,14.4,0.9,21.6c-0.2,4.6-0.9,9.2-2.6,13.5
			c-1.1,2.7-2.7,5.1-5,7.1c-4.8,4.1-11.4,4.8-17.1,1.7c-3.5-1.9-6.1-4.7-7.7-8.3c-3.1-6.9-3.4-13.9-1.1-21c1.3-3.9,3.1-7.6,5.5-11
			c2.4-3.4,4.9-6.7,7.4-10c1.7-2.3,3.4-4.6,5.2-6.9c0.3-0.4,0.5-0.8,0.4-1.3c-1.6-7.4-3.5-14.8-6.8-21.7c-0.3-0.7-0.7-1.4-1.3-2.1
			c-0.2,0.7-0.3,1.4-0.5,2.1c-1.1,6.1-2.6,12.1-4.7,18c-1.4,3.8-3,7.5-5.1,11c-0.9,1.5-1.9,2.9-3,4.2c-2.2,2.7-5,4.3-8.4,4.9
			c-4.1,0.7-8,0.4-11.8-1.5c-2.4-1.1-4.3-2.8-6.1-4.7c-2.8-3.1-4.8-6.7-6.2-10.6c-2.1-5.5-3.2-11.1-3.8-16.9c0-0.1,0-0.3-0.1-0.6
			c-0.3,0.4-0.6,0.6-0.8,0.8c-3.6,4.4-7.4,8.5-11.7,12.2c-0.5,0.4-0.7,0.8-0.7,1.4c-0.8,6.8-2.2,13.4-4.4,19.9
			c-1,2.8-2.1,5.6-3.6,8.2c-1,1.8-2.2,3.5-3.6,5c-3.7,4.1-8.3,6.3-13.8,6.7c-3.3,0.2-6.3-0.8-8.8-2.9c-0.3-0.2-0.5-0.5-1-0.9
			c0.4,2.3,0.7,4.4,1,6.4c0.5,2.7,1.1,5.4,1.5,8c0.2,1.1,0.3,2.2,0.3,3.3c0,2.5-1.5,4.6-3.7,5.3c-2.3,0.7-4.7-0.2-6.2-2.3
			c-1-1.4-1.6-3.1-2-4.7c-0.7-3.5-1.5-7-2-10.5c-0.8-5.3-1.6-10.7-2.2-16c-0.5-4.1-0.8-8.2-1-12.3c-0.3-4.9-0.5-9.7-0.6-14.6
			c-0.1-4.4,0.1-8.8,0.2-13.1c0-1.8,0.1-3.5,0.2-5.3c0-0.4,0-0.7,0-1.1C237.9,124.8,237.8,124.8,237.7,124.8z M250.5,168.4
			c0.3-0.3,0.3-0.3,0.3-0.4c1.3-3.2,3.5-5.7,6.2-7.8c2.3-1.8,4.8-3.4,7.3-5.1c3.4-2.2,6.8-4.4,10.2-6.6c0.5-0.3,0.9-0.7,0.9-1.4
			c0.1-1.2,0.3-2.4,0.4-3.6c0.6-5.4,0.9-10.7,0.1-16.1c-0.3-2.1-0.7-4.3-1.4-6.3c-1.4-4.5-5.8-4.9-8.5-3.2c-1.2,0.7-2.3,1.6-3.3,2.5
			c-2.4,2.2-4.2,4.9-5.6,7.8c-3.8,7.6-5.8,15.7-6.5,24.2c-0.2,2.9-0.3,5.8-0.6,8.7C249.9,163.6,250.4,165.9,250.5,168.4z
			 M191.8,153.5c0.3-0.2,0.4-0.2,0.5-0.3c1.8-1.7,3.8-3,6.1-4c2.4-1,4.8-2,7.1-3c3.3-1.3,6.6-2.6,9.7-4.4c0.6-0.3,0.9-0.7,1-1.4
			c0.3-2.9,0.6-5.8,0.9-8.7c0.6-5.5-0.2-10.9-1.9-16.2c-0.5-1.5-1.3-2.8-2.4-3.9c-1.3-1.4-2.8-1.7-4.5-0.9c-0.5,0.2-1.1,0.5-1.6,0.9
			c-1,0.8-2,1.6-2.8,2.6c-2.7,2.9-4.7,6.2-6.2,9.8c-0.4,0.9-0.7,1.8-0.9,2.8c-1.7,7.2-3,14.4-4.2,21.7
			C192.3,150.1,192.1,151.7,191.8,153.5z M360.2,158c-0.3,0.3-0.5,0.5-0.6,0.6c-1.6,2-3.1,3.9-4.7,5.9c-2.5,3.2-4.8,6.4-6.7,9.9
			c-1.7,3.1-3,6.3-3.4,9.8c-0.5,4.3,0.1,8.4,2.4,12.2c1.1,1.9,2.7,3.2,4.7,3.9c1.9,0.7,3.7,0.4,5.1-1.2c0.7-0.7,1.3-1.5,1.8-2.3
			c1.6-2.5,2.3-5.3,2.7-8.1c0.6-4.4,0.7-8.8,0.4-13.2c-0.2-3.7-0.6-7.3-0.9-10.9C360.9,162.5,360.6,160.4,360.2,158z M131.1,147.1
			c0,0.7-0.1,1.3,0,2c0.1,1.4,0.3,2.7,0.5,4.1c0.2,1.8,0.8,3.4,1.8,4.9c0.7,1.1,1.3,1.4,2.5,0.8c0.8-0.4,1.6-0.9,2.2-1.5
			c1.6-1.7,3.3-3.3,4.7-5.2c3-4,5.9-8.1,8.7-12.2c0.3-0.4,0.4-0.8,0.6-1.2c0.6-2.2,1.2-4.5,1.8-6.7c0.2-0.5,0.1-0.9-0.3-1.3
			c-2-2-4.3-3.6-7-4.6c-1.4-0.6-2.9-0.9-4.4-0.7c-2.7,0.3-4.6,1.8-6.2,3.8c-1.2,1.6-2.1,3.3-2.8,5.2
			C131.8,138.5,131.1,142.8,131.1,147.1z M82.7,101.3c0.4-0.1,0.7-0.1,1-0.2c1.6-0.5,3.1-1,4.7-1.5c5.7-1.9,10.5-5.2,14.6-9.5
			c1.3-1.4,2.4-2.9,2.9-4.7c0.2-0.7,0.4-1.5,0.4-2.2c0.1-1.3-0.4-1.9-1.6-2.3c-1.1-0.4-2.2-0.3-3.3-0.1c-2.3,0.5-4.4,1.5-6.3,3.1
			c-5.6,4.6-9.6,10.3-12.4,17C82.8,100.9,82.8,101,82.7,101.3z M273.9,154.9c-0.4,0.2-0.6,0.3-0.7,0.4c-2,1.3-4,2.6-6,3.9
			c-2.6,1.7-5.1,3.5-7.4,5.7c-1.4,1.4-2.6,2.9-3.3,4.7c-0.6,1.4-0.7,2.8-0.4,4.3c0.4,1.5,1.3,2.2,2.8,1.8c1.1-0.3,2.2-0.7,3.3-1.2
			c3.6-1.7,6.2-4.4,7.9-8.1c1.3-2.8,2.3-5.7,3.1-8.6C273.4,156.9,273.6,156,273.9,154.9z M214.6,148c-2.4,1.2-4.6,2.3-6.8,3.3
			c-2.3,1.1-4.6,2.2-6.8,3.3c-1.5,0.8-2.9,1.8-4,3c-0.7,0.7-1.2,1.5-1.5,2.5c-0.7,2.5,0.3,3.9,2.4,4.5c1.6,0.4,3.2,0.2,4.7-0.5
			c2.6-1.4,4.9-3.2,6.9-5.3C212.2,155.7,213.6,152,214.6,148z"/>
		<path class="st32" d="M180.9,298.6c0.1,2.2,0.1,4.4,0.3,6.7c0.3,3.3,0.6,6.6,1.1,9.9c1,7,2.3,14,4.9,20.6c0.8,2,1.8,4,3.1,5.7
			c1.4,1.8,1.9,1.8,3.2-0.1c1.2-1.8,1.8-3.8,2.3-5.8c0.5-2.1,1-4.1,1.6-6.2c0.1-0.4,0.1-0.8-0.2-1.1c-2.5-3-3.7-6.6-4.3-10.3
			c-0.6-4.1-0.4-8.1,0.9-12.1c1.2-3.6,3-6.9,5.9-9.4c2.2-1.9,4.7-3,7.5-3.3c2.2-0.3,4.3,0.2,6.3,1.2c1.2,0.6,2.4,1.3,3.6,2.1
			c0.2-0.3,0.4-0.6,0.7-1c0.6-0.8,1.3-1.5,2.2-2c1.9-1,4-0.6,5.3,1.1c0.8,1,1.2,2.2,1.4,3.4c0.2,1.3,0.3,2.6,0.2,3.9
			c-0.2,3.5-0.5,7.1-0.6,10.6c-0.1,3-0.2,6.1-0.1,9.1c0.1,2.8,0.3,5.6,1,8.3c0.1,0.4,0.3,0.8,0.5,1.5c0.6-0.7,1.1-1.2,1.5-1.7
			c1.3-1.8,2.4-3.7,3.2-5.8c1.5-4,2.8-8,4.2-12.1c0.2-0.5,0.3-1.1,0.5-1.6c0.8-2,1.1-4.2,1.2-6.4c0.1-2.5,0.4-5.1,1.1-7.5
			c0.3-1.2,0.8-2.3,1.5-3.2c2.1-2.5,5.5-2.5,7.6,0c1.2,1.4,1.7,3.1,1.7,4.9c0,2-0.2,4-0.2,6.1c-0.1,2.3-0.3,4.6,0,6.9
			c0.3,2.2,0.5,4.3,1.4,6.3c0.3,0.7,0.7,1.3,1.1,1.9c1,1.2,1.5,1.3,2.8,0.5c0.7-0.5,1.4-1.1,2.1-1.7c2-2,3.6-4.3,5-6.7
			c1.1-1.9,2.1-4,3.1-5.9c1.2-2.2,2.3-4.5,3.6-6.7c0.4-0.8,1-1.6,1.6-2.3c1.9-2.1,4.7-2.1,6.8-0.1c0.8,0.8,1.4,1.8,1.8,2.9
			c1,2.8,1.2,5.8,1,8.7c-0.3,4.2-0.9,8.3-1.6,12.5c0,0.2,0,0.4,0,0.6c0.2,0,0.3,0,0.4-0.1c4.2-2.7,8-5.8,10.4-10.3
			c2.1-3.8,3.1-7.9,3.3-12.2c0.1-4.7-3-8.3-7.6-9c-0.7-0.1-1.4-0.3-2-0.7c-1.3-0.9-1.4-2.4-0.3-3.5c1-1,2.3-1.1,3.6-1
			c5.4,0.6,8.9,3.6,10.9,8.5c1.4,3.4,1.4,7,0.7,10.6c-0.8,4.3-2.2,8.4-4.5,12.1c-2.1,3.4-4.9,6.3-8.2,8.5c-2.5,1.7-5.1,3.1-7.7,4.6
			c-0.6,0.3-0.9,0.7-1.2,1.4c-2.5,6.7-5.7,12.9-10.5,18.3c-2.8,3.1-6,5.7-9.7,7.6c-3.4,1.7-6.9,2.6-10.7,2.4
			c-5.8-0.3-10.5-5.4-10.3-11.2c0.1-2.2,0.9-4.1,2.2-5.9c1.4-2.1,3.3-3.6,5.5-4.9c2.9-1.6,5.9-2.9,9.1-3.9c3.9-1.2,7.8-2.5,11.7-3.8
			c1.1-0.3,1.6-0.9,2-2c2-5.6,3.4-11.3,4.5-17.1c0.1-0.5,0.2-1.1,0.1-1.7c-0.2,0.3-0.3,0.5-0.5,0.8c-1.4,2.9-2.8,5.9-4.3,8.8
			c-1.1,2.2-2.4,4.2-3.9,6.1c-1.1,1.4-2.4,2.7-3.9,3.6c-3.2,2-6.6,2.2-10,0.5c-3.5-1.7-5.9-4.6-7.5-8.1c-0.2-0.4-0.3-0.7-0.6-1.3
			c-0.2,0.4-0.3,0.6-0.4,0.9c-1.1,3.4-2.2,6.8-3.8,10.1c-0.8,1.7-1.8,3.3-2.8,4.9c-0.5,0.8-1.2,1.5-1.9,2.2
			c-2.2,1.9-4.7,2.3-7.4,1.1c-2.1-0.9-3.5-2.5-4.7-4.3c-1.6-2.5-2.5-5.2-3.1-8c0-0.1-0.1-0.3-0.1-0.6c-0.2,0.3-0.4,0.5-0.6,0.7
			c-1,1.4-1.9,2.8-3,4.1c-1.1,1.3-2.6,2.3-4.2,2.9c-1.8,0.6-3.6,0.6-5.4-0.1c-0.3-0.1-0.6-0.2-0.9-0.3c0,0-0.1,0-0.2,0.1
			c-0.2,1.2-0.4,2.4-0.6,3.6c-0.5,2.6-1.1,5.2-2.3,7.6c-0.5,1-1,2-1.7,2.9c-2.2,3.2-5.5,4.2-9.2,3c-2.2-0.7-4-2.1-5.6-3.8
			c-1.5-1.6-2.7-3.3-3.7-5.2c-2.1-3.9-3.8-8-4.9-12.3c-0.1-0.4-0.2-0.7-0.3-1.3c-0.2,0.4-0.4,0.6-0.5,0.8c-0.7,1.5-1.7,2.8-3,3.9
			c-2.3,1.9-4.8,2.4-7.6,1.4c-2.4-0.8-4.5-2.2-6-4.2c-4.2-5.4-5.7-11.4-3.9-18c0.8-3,2.4-5.5,5.2-7.1c2.5-1.4,5-1.7,7.7-0.7
			c1.6,0.6,3,1.4,4.2,2.5c0.3,0.2,0.6,0.5,0.9,0.8c0-2,0-3.8,0-5.8c-0.1,0-0.3-0.1-0.5-0.2c-3.6-0.6-7-1.7-10.5-2.7
			c-2.7-0.8-5.4-1.4-8.3-1.4c-1.3,0-2.5,0.2-3.8,0.3c-3,0.4-6.5,3.4-5.7,8c0.3,1.7,0.5,3.5,1.6,5c0.3,0.4,0.4,1,0.1,1.5
			c-0.4,0.5-0.9,0.6-1.5,0.5c-0.8-0.1-1.5-0.6-2.1-1.2c-0.3-0.3-0.5-0.6-0.7-0.9c-4.7-8.1-0.2-16.1,6.1-18.2
			c4.2-1.4,8.4-1.6,12.6-0.5c2.3,0.6,4.5,1.3,6.8,2c2.1,0.6,4.3,1.3,6.5,2c0.2-0.9,0.3-1.7,0.5-2.4c0.4-2.3,1.1-4.6,2-6.8
			c0.8-1.8,1.8-3.4,3.3-4.8c1.4-1.4,3.1-2.3,5.1-2.5c0.8-0.1,1.7,0,2.4,0.2c3.4,0.8,7,4.1,7.3,8.1c0.1,1.6-0.2,3.1-0.9,4.5
			c-1.8,3.5-4.3,6.2-7.9,7.8c-0.3,0.1-0.5,0.3-0.8,0.4C181.1,298.4,181.1,298.4,180.9,298.6z M215.4,302.1c-1.4-0.8-2.8-1.4-4.4-1.7
			c-1.9-0.3-3.3,0.4-4.4,1.8c-0.8,1.1-1.3,2.3-1.6,3.6c-1.2,4.6-1.3,9.2-0.2,13.8c0.3,1.5,0.7,2.9,1.1,4.3c0.4,1.1,0.8,1.3,1.9,0.7
			c0.9-0.6,1.7-1.2,2.4-2c1.3-1.7,2.5-3.5,3.8-5.3c0.4-0.5,0.5-1.1,0.5-1.7c0.1-2,0.2-4,0.3-6C214.9,307.1,215.1,304.7,215.4,302.1z
			 M262.3,334.3c-0.3,0.1-0.5,0.1-0.7,0.2c-2.5,0.7-4.9,1.5-7.4,2.2c-2.6,0.8-5.1,1.8-7.4,3.2c-1.4,0.8-2.7,1.8-4,2.8
			c-0.9,0.8-1.6,1.8-2,2.9c-1,2.7,1.7,6.1,4.4,5.7c1.2-0.2,2.4-0.4,3.4-1c1.4-0.8,2.7-1.6,4-2.5c4.5-3.4,7.5-8.1,9.8-13.2
			C262.3,334.6,262.3,334.5,262.3,334.3z M159.5,314.1c0.3,2.9,1,5.6,2.3,8.1c0.6,1.2,1.4,2.4,2.5,3.2c0.8,0.6,1.3,0.7,2.1,0
			c0.6-0.5,1.1-1.1,1.5-1.8c1.3-2.3,2.1-4.8,2.5-7.5c0.1-0.4,0-0.9-0.2-1.3c-0.7-1.2-1.5-2.4-2.3-3.6c-0.9-1.1-2-2-3.3-2.6
			c-2.4-1.1-3.5-0.7-4.4,1.8C159.8,311.6,159.7,312.8,159.5,314.1z M181.1,292.8c1.8-0.8,3.1-1.8,4.1-3.3c0.4-0.5,0.7-1.1,0.9-1.8
			c0.5-1.4-0.1-2.7-1.3-3.4c-1.1-0.6-1.6-0.5-2.2,0.7C181.3,287.4,181.3,290.1,181.1,292.8z"/>
		<g>
			<path class="st75" d="M235.9,261.5c-4.5,0-8.9,0-13.5,0c0,0.9,0,1.8,0,2.7c0,1.4,0.1,2.8,0.2,4.3c0.1,1.2,0.1,2.4,0.2,3.6
				c0,3.5-2.3,6-5.5,6.2c-3.2,0.1-5.8-2.3-6.1-5.7c-0.1-1.9-0.2-3.7-0.3-5.6c-0.2-4.8-0.4-9.6-0.6-14.3c-0.1-3.4-0.2-6.7-0.3-10.1
				c-0.1-4.5-0.3-9-0.4-13.5c-0.1-3.9-0.2-7.9-0.3-11.8c-0.1-3.3-0.3-6.5-0.4-9.8c-0.2-6-0.3-12-0.5-17.9c0-1.2,0.1-2.4,0.3-3.6
				c0.4-2.4,2.2-4.2,4.4-4.6c2.3-0.4,4.5,0.6,5.7,2.7c0.8,1.3,1.1,2.8,1.1,4.3c0.1,2.7,0.2,5.3,0.3,8c0.2,4.7,0.4,9.3,0.6,14
				c0.1,3.3,0.2,6.6,0.3,9.9c0.1,4,0.1,8.1,0.2,12.1c0.1,4.7,0.3,9.4,0.4,14.1c0.1,2.7,0.2,5.3,0.4,8c0.2,0,0.4,0.1,0.6,0.1
				c3.5-0.4,7-0.2,10.5,0.2c0.8,0.1,1.7,0.1,2.7,0.2c0-0.6,0-1,0-1.4c0.1-6.7,0.1-13.4,0.3-20.1c0.1-5,0.4-10,0.7-15
				c0.1-2.4,0.5-4.8,0.8-7.1c0.2-1,0.6-2,1.2-2.9c2.1-3.3,6.4-3.2,8.4,0.2c0.8,1.2,1.1,2.6,1.2,4.1c0,2.9,0,5.8-0.1,8.6
				c-0.1,2.9-0.2,5.8-0.3,8.6c-0.5,13.8-0.4,27.5-0.4,41.3c0,0.6,0,1.2-0.1,1.8c-0.6,3.1-3.2,5.1-6.2,4.8c-2.9-0.2-5.3-2.8-5.3-6
				c0-3,0-6,0-9C235.9,262.4,235.9,262,235.9,261.5z"/>
			<path class="st75" d="M156.5,257.2c-3.9,0.9-7.6,1.7-11.4,2.5c-3.8,0.8-7.5,1.5-11.4,1.8c0,0.4-0.1,0.7-0.1,1
				c0,3.3-0.1,6.5-0.1,9.8c0,0.7-0.1,1.4-0.3,2c-0.3,1.1-1.1,1.7-2.2,1.8c-1.1,0.1-2-0.4-2.5-1.3c-0.3-0.5-0.6-1.2-0.6-1.8
				c-0.3-3.2-0.7-6.5-0.9-9.7c-0.3-5.8-0.3-11.5,0.1-17.3c0.4-7.4,0.9-14.8,1.5-22.2c0.5-5.8,1.2-11.6,1.8-17.4
				c0.6-5.2,1.7-10.4,3.1-15.5c0.6-2.3,1.5-4.5,2.7-6.5c1.1-1.7,2.4-3,4.3-3.7c2.2-0.8,4.3-0.6,6.3,0.4c1.7,0.8,3.1,2.1,4.2,3.6
				c2.5,3.2,4.3,6.8,5.7,10.6c1.8,4.8,3.1,9.7,4,14.7c1.4,7.9,2.8,15.8,4.1,23.6c0.8,4.6,1.5,9.2,2.1,13.7c0.6,4.3,1.1,8.6,1.7,12.9
				c0.3,2,0.6,4,0.8,6c0.2,2.6-0.5,5-2.2,6.9c-1,1.1-2.3,1.6-3.9,1.3c-1.8-0.4-3.2-1.4-4.1-3c-0.9-1.6-1.3-3.2-1.5-5
				c-0.3-2.9-0.7-5.8-1.1-8.7C156.6,257.7,156.6,257.5,156.5,257.2z M155.7,250.2c-0.7-4.6-1.3-9.1-2.2-13.5
				c-2.1-9.8-4.4-19.5-6.6-29.2c-1-4.3-2.6-8.4-4.8-12.3c-0.2-0.3-0.4-0.6-0.7-1.1c-0.2,0.4-0.3,0.7-0.4,0.9
				c-0.5,1.9-1.2,3.7-1.5,5.6c-0.7,3.6-1.4,7.3-1.9,10.9c-0.8,5.6-1.5,11.3-2.1,16.9c-0.4,3.9-0.7,7.7-1,11.6
				c-0.3,4.4-0.5,8.8-0.8,13.2c0,0.4,0,0.8,0,1.1C141.1,253.1,148.3,251.7,155.7,250.2z"/>
			<path class="st75" d="M294.1,258.7c3.2,4.8,6.1,9.6,10,13.8c0.9,0.9,1.6,1.9,2.1,3.1c0.6,1.5,0.4,2.8-0.7,3.8
				c-1,1-2.5,1.2-3.8,0.4c-0.9-0.5-1.8-1.1-2.6-1.8c-2.9-2.5-5.3-5.3-7.5-8.3c-0.2-0.2-0.4-0.5-0.6-0.7c0,0-0.1-0.1-0.3-0.1
				c0,1.1,0,2.1-0.1,3.1c0,1.2,0,2.3-0.1,3.5c-0.1,0.7-0.2,1.5-0.5,2.2c-0.9,2-3.4,2.2-4.6,0.4c-0.5-0.8-0.8-1.7-0.9-2.6
				c-0.2-1.9-0.4-3.9-0.4-5.8c-0.1-6.3-0.1-12.6-0.1-18.9c-0.1-8.4-0.2-16.8-0.1-25.3c0-5.7,0.3-11.4,0.6-17.2
				c0.1-2.8,0.4-5.7,0.8-8.5c0.3-2.1,1.1-4.1,2.4-5.9c2.8-4,7.8-5.5,12.4-3.7c2.7,1,4.8,2.8,6.6,5.1c3.3,4.2,5.2,9.1,6.3,14.3
				c1.1,5.3,1.4,10.7,1.1,16.1c-0.3,5-1.1,9.9-2.6,14.6c-1.6,4.9-4.3,9.2-8,12.8c-2.1,2-4.6,3.4-7.1,4.6
				C295.5,258.1,294.9,258.4,294.1,258.7z M290.7,251.4c2.8-1,5.3-3.1,6.5-5.7c0.7-1.5,1.2-3.1,1.7-4.6c2.8-7.9,4.1-15.9,3.3-24.2
				c-0.3-3.2-0.9-6.4-2-9.5c-0.7-2-1.8-3.7-3.1-5.3c-1.1-1.4-2.9-1.1-3.7,0.4c-0.3,0.6-0.5,1.2-0.6,1.8c-0.4,2.7-0.8,5.3-1.1,8
				c-0.7,8.1-1.2,16.2-1.1,24.3c0,4.7,0.1,9.4,0.1,14.1C290.6,250.8,290.6,251.1,290.7,251.4z"/>
			<path class="st75" d="M101.4,251c1.6-1.1,3.1-2.1,4.6-3.1c1.8-1.2,3.6-2.3,5.4-3.4c1.5-0.9,3.2-0.7,4.4,0.4
				c1.2,1.1,1.6,2.8,0.8,4.3c-0.4,0.7-0.9,1.5-1.5,2c-2.6,2.2-5.2,4.3-7.9,6.5c-0.2,0.2-0.4,0.3-0.7,0.5c0.2,0.3,0.4,0.6,0.6,0.8
				c2.7,3.8,5.7,7.5,9,10.9c1.2,1.2,2,2.7,2.2,4.5c0.2,4.2-3.6,7-7.5,5.6c-1.4-0.5-2.5-1.4-3.5-2.5c-2.9-3.1-5.6-6.3-8.1-9.7
				c-4-5.5-7.9-11.1-11.4-17c-3.6-6.1-6.6-12.5-9.6-18.9c-2.9-6.1-5.4-12.4-7.5-18.8c-1.2-3.6-2.1-7.3-2.5-11
				c-0.3-2.8-0.2-5.6,1.2-8.2c0.8-1.6,1.9-2.9,3.3-3.9c0.6-0.4,1.1-0.8,1.7-1.1c5.8-3.2,11.7-5.9,18.2-7.4c4.1-0.9,8.3-0.9,12.5-0.1
				c0.7,0.1,1.5,0.4,2.1,0.8c1.7,1.1,1.6,3.1-0.2,3.9c-1.1,0.5-2.3,0.9-3.5,1c-7.6,0.9-14.7,3.5-21.3,7.3c-0.7,0.4-1.4,0.9-2.1,1.4
				c-0.5,0.4-0.7,0.9-0.7,1.5c0.2,3.2,0.8,6.2,1.7,9.3c1.8,6.3,4.2,12.4,6.9,18.3c1.8,3.9,3.7,7.8,5.6,11.8c2.2,4.6,4.9,9,7.6,13.3
				C100.9,250.4,101.1,250.6,101.4,251z"/>
			<path class="st75" d="M340,235.5c0.2,3.8,0.4,7.5,0.6,11.3c0.3,5.8,0.5,11.7-0.6,17.4c-0.9,4.8-2.3,9.5-5.4,13.4
				c-1.1,1.4-2.3,2.7-3.5,3.9c-1.5,1.5-3.4,2.3-5.4,2.8c-2.4,0.5-4.9,0.8-7.3,0.3c-4.6-1-7.3-3.9-8.4-8.4
				c-1.4-5.3-0.6-10.5,1.8-15.4c0.3-0.6,0.8-1.3,1.4-1.7c0.9-0.7,1.9-0.8,3-0.3c1,0.5,1.5,1.4,1.6,2.5c0.1,0.9-0.2,1.7-0.6,2.5
				c-1,2.2-1.5,4.4-1.4,6.9c0,1.2,0.3,2.4,0.9,3.6c0.6,1.2,1.5,1.6,2.8,1.2c0.6-0.2,1.1-0.4,1.6-0.8c3.1-2,5.3-4.7,6.4-8.2
				c0.9-3,1.5-6.1,1.7-9.2c0.3-4.8-0.2-9.5-0.4-14.2c-0.2-4.1-0.4-8.1-0.4-12.2c0-2.9,0.4-5.7,1.3-8.5c0.9-2.8,2.3-5.2,4.3-7.3
				c2.4-2.5,5.3-3.5,8.7-3.4c4.3,0.1,8.2,1.7,11.7,4.1c3.4,2.4,5.1,5.8,5.3,9.9c0.3,5.4-1.1,10.5-4.2,15c-0.6,0.8-1.3,1.5-2.1,2.2
				c-0.4,0.3-1,0.6-1.5,0.7c-1.5,0.3-2.8-1.1-2.4-2.5c0.1-0.5,0.3-1,0.7-1.4c2.2-2.8,3.1-6.1,3.8-9.5c0.3-1.7,0.5-3.4,0.3-5.1
				c-0.6-4.2-4-6.5-7.5-6.6c-1.1,0-2.1,0.4-2.9,1.1c-1.1,1-1.8,2.2-2.3,3.6c-0.7,2.1-1,4.2-1.1,6.4c-0.1,2,0,4,0,6.1
				C340.2,235.5,340.1,235.5,340,235.5z"/>
			<path class="st75" d="M264.9,214.9c0,0.3-0.1,0.6-0.1,0.8c0,3.3-0.1,6.6,0,9.9c0.1,3.3,0.4,6.5,0.5,9.7c0.1,3,0.2,6.1,0.3,9.1
				c0.1,2.3,0.1,4.6,0.2,7c0,0.3,0,0.6,0.1,1c0.4,0,0.8,0.1,1.2,0.1c1.8,0,3.5-0.1,5.3,0c0.7,0,1.4,0.1,2.1,0.4
				c1.5,0.5,2.4,1.9,2.4,3.4c0,1.5-0.9,2.8-2.4,3.4c-0.6,0.2-1.2,0.3-1.8,0.3c-1.8,0.1-3.7,0.1-5.5,0.2c-0.3,0-0.7,0-1.1,0.1
				c0.2,2.3,0.3,4.4,0.5,6.6c0.1,1.1,0.3,2.1,0.5,3.2c0.2,1,0.7,1.8,1.8,2.1c1.6,0.4,3.2,0.8,4.8,1.2c0.6,0.2,1.3,0.2,1.8,0.5
				c1.4,0.5,2.3,1.8,2.2,3.2c0,1.4-0.9,2.6-2.3,3.1c-0.5,0.2-1,0.3-1.5,0.4c-2.9,0.1-5.8,0.6-8.7,0.3c-0.9-0.1-1.9-0.2-2.8-0.4
				c-2.9-0.7-4.9-2.5-6-5.4c-0.8-2-1.1-4.1-1.3-6.2c-0.3-4.1-0.6-8.3-0.7-12.4c-0.2-5.3-0.3-10.5-0.5-15.8
				c-0.2-4.6-0.6-9.2-0.8-13.8c-0.1-3.5-0.5-6.9-0.1-10.4c0.2-2,0.6-4,1.8-5.7c1.2-1.7,2.8-2.7,4.8-3c3.2-0.4,6.4-0.3,9.6-0.1
				c1.2,0.1,2.4,0.2,3.6,0.3c1,0.1,1.9,0.4,2.7,1c1.9,1.3,1.9,3.1,0,4.3c-0.6,0.4-1.2,0.7-1.8,0.8c-1.5,0.3-3.1,0.4-4.7,0.6
				c-1.1,0.1-2.2,0.2-3.3,0.4C265.5,214.7,265.2,214.8,264.9,214.9z"/>
			<path class="st75" d="M179.2,205.2c-0.9-0.1-1.7-0.3-2.6-0.4c-0.5-0.1-1.1-0.3-1.6-0.5c-1.5-0.8-1.6-2.7-0.1-3.5
				c1-0.5,2.1-0.8,3.2-0.9c1.7-0.2,3.3-0.3,5-0.4c2.6-0.2,5.1-0.4,7.7-0.6c0.9-0.1,1.8-0.1,2.7-0.1c1.8,0,3.2,1.2,3.2,2.9
				c0.1,1.7-1.1,3-3,3.2c-1,0.1-2.1,0.2-3.3,0.3c-0.1,1-0.1,2.1,0,3.1c0,1,0.1,2.1,0.2,3.1c0.1,3.3,0.1,6.7,0.3,10
				c0.2,5.3,0.5,10.7,0.8,16c0.1,1.7,0.2,3.4,0.3,5.2c0.2,3.7,0.5,7.3,0.7,11c0.2,4.3,0.5,8.5,0.7,12.8c0.1,1.2,0.1,2.5-0.1,3.7
				c-0.4,2.6-2.4,4.4-4.8,4.8c-2.4,0.3-4.7-1.1-5.9-3.4c-0.7-1.4-0.8-3-0.9-4.5c-0.2-3.4-0.3-6.8-0.5-10.2c-0.2-3.2-0.4-6.3-0.6-9.5
				c-0.3-5.1-0.6-10.2-0.9-15.3c-0.1-2.7-0.2-5.4-0.3-8.1c-0.1-5.9-0.2-11.7-0.2-17.6C179.3,205.7,179.2,205.5,179.2,205.2z"/>
			<path class="st75" d="M317.1,201.9c0.1-1.2,0.2-2.4,0.2-3.6c0-2.7-0.3-5.3-1.8-7.6c-0.7-1-1.3-2.1-1.5-3.3
				c-0.4-2.1,0.1-4,1.7-5.4c1.6-1.4,3.5-1.5,5.5-0.8c1.5,0.5,2.7,1.5,3.6,2.8c0.9,1.2,1.7,2.5,2.3,3.8c1.9,4.5,2.3,9.3,1.5,14.1
				c-0.4,2-1.2,3.9-2.4,5.6c-1,1.3-2.3,2.1-3.9,2.1c-2.7,0.1-4.9-1.8-5.1-4.5C317.1,204,317.1,202.9,317.1,201.9
				C317.1,201.9,317.1,201.9,317.1,201.9z"/>
		</g>
	</g>
	<g>
		<path class="st76" d="M144.1,80.5c0.5-0.5,0.8-0.8,1.1-1.2c1.8-1.9,3.7-3.6,6-4.8c2.3-1.3,4.8-2,7.4-1.8c4.4,0.3,7.8,4,7.9,8.4
			c0.1,2.4-0.5,4.6-1.5,6.7c-0.8,1.7-1.7,3.4-2.9,4.9c-3.9,5.3-8.5,9.9-13.8,13.7c-1.1,0.8-2.2,1.5-3.3,2.1c-3.6,2-7.2,1.4-10.1-1.5
			c-1.4-1.4-2.4-3.1-3.4-4.9c-3.6-6.6-5.8-13.7-6.9-21.1c-0.4-2.4-0.4-4.8-0.3-7.2c0.1-3.9,2.8-7.1,6.4-8c2.6-0.6,4.9,0.1,6.9,1.7
			c1.5,1.2,2.6,2.8,3.5,4.5c1.2,2.4,2,4.9,2.7,7.5C143.9,79.8,143.9,80,144.1,80.5z"/>
		<path class="st76" d="M251.7,85.9c0.7-1.7,1.3-3.3,2-4.9c0.8-1.8,1.8-3.4,3.1-4.8c0.9-1,2-1.9,3.3-2.4c3-1.2,6.2-0.4,8.2,2
			c1.7,1.9,2.3,4.3,2.4,6.7c0.1,3-0.5,6-1.4,8.8c-0.9,2.9-2.1,5.7-3.6,8.3c-0.5,0.9-1.1,1.9-1.8,2.7c-2.2,2.8-5.1,3.8-8.6,3.2
			c-1.8-0.3-3.5-1-5.2-1.8c-3.7-1.9-7.1-4.2-9.9-7.3c-1-1.1-2-2.3-2.8-3.6c-1.4-2.3-1.5-4.8,0.1-7.1c1.6-2.3,4-3.2,6.8-2.9
			c2.2,0.2,4.2,1.2,6.2,2.3C250.9,85.4,251.3,85.7,251.7,85.9z"/>
		<path class="st76" d="M296.8,94.4c1.5-0.5,2.9-1,4.3-1.3c1.2-0.3,2.5-0.2,3.7,0.2c3.8,1.1,5.6,5,4.3,8.7c-0.6,1.7-1.8,3.1-3.2,4.3
			c-1.2,0.9-2.4,1.8-3.6,2.7c-1.5,1.1-3.2,2-4.7,3.1c-3.5,2.4-7.4,1.5-9.9-1.6c-0.6-0.8-1.1-1.6-1.6-2.4c-2.4-4.5-3.6-9.3-3.6-14.3
			c0-1,0.2-2,0.4-2.9c1.4-4.6,6.8-6.1,10.4-3c1.4,1.2,2.2,2.7,2.8,4.4C296.3,92.9,296.6,93.7,296.8,94.4z"/>
		<path class="st76" d="M190.1,80.4c1.1-0.3,2.2-0.6,3.2-0.8c5.4-0.9,9.4,3.7,7.8,8.9c-0.5,1.5-1.2,2.8-2.2,4
			c-2.8,3.3-6.3,5.3-10.4,6.5c-3.1,0.9-6-0.3-7.7-3.1c-0.8-1.3-1.5-2.8-1.8-4.3c-0.8-3.5-1.3-7.1-1-10.7c0.1-1.2,0.2-2.3,0.5-3.4
			c0.5-2,1.6-3.5,3.5-4.2c2.2-0.9,4.8-0.2,6.3,1.8c0.9,1.1,1.3,2.4,1.6,3.8C189.9,79.3,190,79.8,190.1,80.4z"/>
		<path class="st76" d="M170,107.8c0.2-0.5,0.4-0.8,0.6-1.1c0.8-1.2,1.5-2.5,2.5-3.5c1.7-1.8,3.9-2.4,6.4-1.5
			c2.5,0.9,3.7,2.9,3.9,5.4c0.2,2.6-0.5,5-1.5,7.3c-0.8,1.7-1.8,3.3-3,4.7c-2.1,2.5-4.8,3.6-8,3c-4.6-0.8-8.4-3.1-11.2-6.9
			c-0.9-1.2-1.5-2.5-1.7-4c-0.4-4.3,2.7-6.9,6.7-6.5c1.6,0.2,2.9,0.9,4,2C169.1,107.1,169.5,107.4,170,107.8z"/>
		<path class="st76" d="M301.4,69.4c0.3-0.3,0.7-0.7,1-1c1.3-1.3,2.7-2.4,4.5-2.9c4.3-1.4,8.3,2.1,7.5,6.6c-0.2,1.2-0.7,2.4-1.4,3.4
			c-1.8,2.4-3.7,4.7-5.9,6.7c-0.9,0.8-1.8,1.4-2.9,1.8c-1.8,0.7-3.7,0.5-5.3-0.5c-4.6-2.9-7.8-7-8.6-12.5c0-0.3-0.1-0.5-0.1-0.8
			c-0.6-3.6,2.5-6.1,6-5.1c1.5,0.4,2.7,1.4,3.8,2.5C300.4,68.1,300.9,68.7,301.4,69.4z"/>
		<path class="st76" d="M325.6,109.2c0.6-0.8,1.1-1.5,1.6-2.2c0.4-0.6,0.9-1.1,1.4-1.6c1.4-1.5,3.1-2,5.1-1.5c2.1,0.5,3.3,1.9,3.9,4
			c0.3,1.2,0.3,2.4,0.1,3.7c-0.7,3.4-2.2,6.3-4.6,8.8c-2.1,2.2-4.7,2.9-7.7,2.4c-3.4-0.6-6.3-2.3-8.9-4.5c-1.3-1.1-2.2-2.6-2.4-4.3
			c-0.4-3,1.6-5.7,4.7-6.3c2-0.4,3.9,0.1,5.6,1C324.8,108.8,325.2,109,325.6,109.2z"/>
		<path class="st76" d="M219.1,355.2c1.2-0.3,2.2-0.6,3.3-0.8c1.1-0.2,2.2-0.2,3.3,0.1c3.4,1,4.9,4.7,3.1,7.7
			c-0.6,1.1-1.5,2-2.7,2.5c-1.4,0.6-2.8,1.3-4.3,1.6c-2.4,0.4-4.8,0.7-7.3,0.8c-3.8,0.2-6.1-1.4-7.2-5c-0.6-1.8-0.9-3.7-1.2-5.6
			c-0.3-2-0.4-4.1-0.4-6.2c0.1-3.6,2.8-6,6.3-5.9c1.9,0.1,3.3,1,4.4,2.5c0.9,1.1,1.4,2.4,1.7,3.8
			C218.7,352.3,218.9,353.7,219.1,355.2z"/>
		<path class="st76" d="M132.1,284.7c0.3-0.1,0.7-0.3,1.2-0.4c2.6-0.7,4.9,0.7,5.3,3.3c0.2,1.1-0.2,2.1-0.7,3
			c-0.7,1.1-1.7,2-2.8,2.7c-1.7,1-3.4,2-5.2,2.8c-2.1,1-4.4,0.1-5.7-2c-0.8-1.4-1.3-2.9-1.5-4.4c-0.2-1.5-0.2-3.1-0.3-4.7
			c0-0.4,0.1-0.9,0.2-1.3c0.5-1.7,1.5-2.8,3.2-3.3c1.7-0.5,3.2,0,4.4,1.3C130.8,282.5,131.3,283.6,132.1,284.7z"/>
		<path class="st76" d="M229,100.1c0.1-0.5,0.1-0.9,0.2-1.4c0.2-0.8,0.3-1.7,0.5-2.5c0.5-1.3,1.4-2.1,2.9-2.2c1.3-0.1,2.5,0.7,3.1,2
			c0.5,1.1,0.6,2.3,0.6,3.5c0,1.6,0,3.2,0,4.8c0,2.3-1.3,3.9-3.5,4.3c-2.7,0.5-5.2-0.1-7.5-1.5c-0.6-0.4-1.1-0.9-1.5-1.5
			c-1.1-1.6-0.7-3.7,1-4.8c0.8-0.5,1.7-0.8,2.6-0.8C227.9,100.1,228.4,100.1,229,100.1z"/>
	</g>
</g>
</svg>
